<?xml version="1.0" encoding="us-ascii" standalone="no"?><svg xmlns="http://www.w3.org/2000/svg" xmlns:xlink="http://www.w3.org/1999/xlink" contentStyleType="text/css" height="1018px" preserveAspectRatio="none" style="width:1059px;height:1018px;" version="1.1" viewBox="0 0 1059 1018" width="1059px" zoomAndPan="magnify"><defs/><g><text fill="#0A2A61" font-family="sans-serif" font-size="14" font-weight="bold" lengthAdjust="spacing" textLength="245" x="400" y="22.9951">NGC from 1EdTech Consortium</text><!--class W3C--><g id="elem_W3C"><rect codeLine="57" fill="#ECF6F4" height="40.2656" id="W3C" rx="2.5" ry="2.5" style="stroke:#181818;stroke-width:0.5;" width="120" x="13.5" y="530.2769"/><ellipse cx="28.5" cy="550.4097" fill="#D99B55" rx="11" ry="11" style="stroke:#181818;stroke-width:1.0;"/><path d="M28.6094,545.9878 Q27.6719,545.9878 27.2344,546.9878 Q26.8125,547.9878 26.8125,550.2222 Q26.8125,552.4566 27.2344,553.4566 Q27.6719,554.4566 28.6094,554.4566 Q29.5625,554.4566 29.9844,553.4566 Q30.4219,552.4566 30.4219,550.2222 Q30.4219,547.9878 29.9844,546.9878 Q29.5625,545.9878 28.6094,545.9878 Z M24.2656,550.2222 Q24.2656,547.0503 25.3594,545.4253 Q26.4688,543.7847 28.6094,543.7847 Q30.7656,543.7847 31.8594,545.4253 Q32.9688,547.0503 32.9688,550.2222 Q32.9688,553.3941 31.8594,555.0191 Q30.7656,556.6441 28.6094,556.6441 Q26.4688,556.6441 25.3594,555.0191 Q24.2656,553.3941 24.2656,550.2222 Z " fill="#000000"/><text fill="#000000" font-family="sans-serif" font-size="12" font-style="italic" lengthAdjust="spacing" textLength="92" x="40.5" y="546.4155">&#171;Organization&#187;</text><text fill="#0A2A61" font-family="sans-serif" font-size="14" lengthAdjust="spacing" textLength="32" x="70.5" y="562.2407">W3C</text></g><!--class Verifiable credentials WG--><g id="elem_Verifiable credentials WG"><rect codeLine="58" fill="#ECF6F4" height="64.5625" id="Verifiable credentials WG" rx="2.5" ry="2.5" style="stroke:#181818;stroke-width:0.5;" width="202" x="87.5" y="663.8369"/><ellipse cx="102.5" cy="683.9697" fill="#D99B55" rx="11" ry="11" style="stroke:#181818;stroke-width:1.0;"/><path d="M102.6094,679.5478 Q101.6719,679.5478 101.2344,680.5478 Q100.8125,681.5478 100.8125,683.7822 Q100.8125,686.0166 101.2344,687.0166 Q101.6719,688.0166 102.6094,688.0166 Q103.5625,688.0166 103.9844,687.0166 Q104.4219,686.0166 104.4219,683.7822 Q104.4219,681.5478 103.9844,680.5478 Q103.5625,679.5478 102.6094,679.5478 Z M98.2656,683.7822 Q98.2656,680.6103 99.3594,678.9853 Q100.4688,677.3447 102.6094,677.3447 Q104.7656,677.3447 105.8594,678.9853 Q106.9688,680.6103 106.9688,683.7822 Q106.9688,686.9541 105.8594,688.5791 Q104.7656,690.2041 102.6094,690.2041 Q100.4688,690.2041 99.3594,688.5791 Q98.2656,686.9541 98.2656,683.7822 Z " fill="#000000"/><text fill="#000000" font-family="sans-serif" font-size="12" font-style="italic" lengthAdjust="spacing" textLength="92" x="155.5" y="679.9755">&#171;Organization&#187;</text><text fill="#0A2A61" font-family="sans-serif" font-size="14" lengthAdjust="spacing" textLength="170" x="116.5" y="695.8007">Verifiable credentials WG</text><line style="stroke:#181818;stroke-width:0.5;" x1="88.5" x2="288.5" y1="704.1025" y2="704.1025"/><a href="https://www.w3.org/groups/wg/vc/" target="_top" title="https://www.w3.org/groups/wg/vc/" xlink:actuate="onRequest" xlink:href="https://www.w3.org/groups/wg/vc/" xlink:show="new" xlink:title="https://www.w3.org/groups/wg/vc/" xlink:type="simple"><text fill="#F5665D" font-family="sans-serif" font-size="14" lengthAdjust="spacing" text-decoration="underline" textLength="101" x="93.5" y="721.0976">Working group</text></a></g><!--class Verifiable credentials (W3C)--><g id="elem_Verifiable credentials (W3C)"><rect codeLine="64" fill="#ECF6F4" height="64.5625" id="Verifiable credentials (W3C)" rx="2.5" ry="2.5" style="stroke:#181818;stroke-width:0.5;" width="220" x="189.5" y="805.4069"/><ellipse cx="204.5" cy="825.5397" fill="#55D9D6" rx="11" ry="11" style="stroke:#181818;stroke-width:1.0;"/><path d="M203.9844,826.1022 Q202.125,825.3991 201.4688,824.6334 Q200.8281,823.8522 200.8281,822.5397 Q200.8281,820.8522 201.9063,819.8834 Q202.9844,818.9147 204.8594,818.9147 Q205.7188,818.9147 206.5625,819.1178 Q207.4219,819.3053 208.2656,819.6959 L208.2656,822.0866 Q207.4844,821.5241 206.6563,821.2428 Q205.8438,820.9459 205.0469,820.9459 Q204.1719,820.9459 203.6875,821.3053 Q203.2188,821.6647 203.2188,822.3209 Q203.2188,822.8366 203.5625,823.1803 Q203.9063,823.5084 205,823.9147 L206.0625,824.3209 Q207.5469,824.8678 208.25,825.7741 Q208.9688,826.6803 208.9688,828.0553 Q208.9688,829.9303 207.8594,830.8522 Q206.75,831.7741 204.5,831.7741 Q203.5781,831.7741 202.6563,831.5553 Q201.7344,831.3366 200.875,830.9147 L200.875,828.3834 Q201.8438,829.0709 202.7656,829.4147 Q203.6875,829.7584 204.5781,829.7584 Q205.4844,829.7584 205.9844,829.3522 Q206.4844,828.9303 206.4844,828.1959 Q206.4844,827.6334 206.1406,827.2272 Q205.8125,826.8053 205.1875,826.5553 L203.9844,826.1022 Z " fill="#000000"/><text fill="#000000" font-family="sans-serif" font-size="12" font-style="italic" lengthAdjust="spacing" textLength="72" x="276.5" y="821.5455">&#171;Standard&#187;</text><text fill="#0A2A61" font-family="sans-serif" font-size="14" lengthAdjust="spacing" textLength="188" x="218.5" y="837.3707">Verifiable credentials (W3C)</text><line style="stroke:#181818;stroke-width:0.5;" x1="190.5" x2="408.5" y1="845.6725" y2="845.6725"/><a href="https://www.w3.org/TR/vc-data-model/" target="_top" title="https://www.w3.org/TR/vc-data-model/" xlink:actuate="onRequest" xlink:href="https://www.w3.org/TR/vc-data-model/" xlink:show="new" xlink:title="https://www.w3.org/TR/vc-data-model/" xlink:type="simple"><text fill="#F5665D" font-family="sans-serif" font-size="14" lengthAdjust="spacing" text-decoration="underline" textLength="72" x="195.5" y="862.6676">VC at W3C</text></a></g><!--class Linked Data--><g id="elem_Linked Data"><rect codeLine="80" fill="#ECF6F4" height="64.5625" id="Linked Data" rx="2.5" ry="2.5" style="stroke:#181818;stroke-width:0.5;" width="113" x="7" y="946.9669"/><ellipse cx="22" cy="967.0997" fill="#55D9D6" rx="11" ry="11" style="stroke:#181818;stroke-width:1.0;"/><path d="M21.4844,967.6622 Q19.625,966.9591 18.9688,966.1934 Q18.3281,965.4122 18.3281,964.0997 Q18.3281,962.4122 19.4063,961.4434 Q20.4844,960.4747 22.3594,960.4747 Q23.2188,960.4747 24.0625,960.6778 Q24.9219,960.8653 25.7656,961.2559 L25.7656,963.6466 Q24.9844,963.0841 24.1563,962.8028 Q23.3438,962.5059 22.5469,962.5059 Q21.6719,962.5059 21.1875,962.8653 Q20.7188,963.2247 20.7188,963.8809 Q20.7188,964.3966 21.0625,964.7403 Q21.4063,965.0684 22.5,965.4747 L23.5625,965.8809 Q25.0469,966.4278 25.75,967.3341 Q26.4688,968.2403 26.4688,969.6153 Q26.4688,971.4903 25.3594,972.4122 Q24.25,973.3341 22,973.3341 Q21.0781,973.3341 20.1563,973.1153 Q19.2344,972.8966 18.375,972.4747 L18.375,969.9434 Q19.3438,970.6309 20.2656,970.9747 Q21.1875,971.3184 22.0781,971.3184 Q22.9844,971.3184 23.4844,970.9122 Q23.9844,970.4903 23.9844,969.7559 Q23.9844,969.1934 23.6406,968.7872 Q23.3125,968.3653 22.6875,968.1153 L21.4844,967.6622 Z " fill="#000000"/><text fill="#000000" font-family="sans-serif" font-size="12" font-style="italic" lengthAdjust="spacing" textLength="72" x="40.5" y="963.1055">&#171;Standard&#187;</text><text fill="#0A2A61" font-family="sans-serif" font-size="14" lengthAdjust="spacing" textLength="81" x="36" y="978.9307">Linked Data</text><line style="stroke:#181818;stroke-width:0.5;" x1="8" x2="119" y1="987.2325" y2="987.2325"/><a href="https://www.w3.org/TR/ldp/" target="_top" title="https://www.w3.org/TR/ldp/" xlink:actuate="onRequest" xlink:href="https://www.w3.org/TR/ldp/" xlink:show="new" xlink:title="https://www.w3.org/TR/ldp/" xlink:type="simple"><text fill="#F5665D" font-family="sans-serif" font-size="14" lengthAdjust="spacing" text-decoration="underline" textLength="71" x="13" y="1004.2276">LD at W3C</text></a></g><!--class Schema org--><g id="elem_Schema org"><rect codeLine="84" fill="#ECF6F4" height="64.5625" id="Schema org" rx="2.5" ry="2.5" style="stroke:#181818;stroke-width:0.5;" width="115" x="445" y="805.4069"/><ellipse cx="460" cy="825.5397" fill="#55D9D6" rx="11" ry="11" style="stroke:#181818;stroke-width:1.0;"/><path d="M459.4844,826.1022 Q457.625,825.3991 456.9688,824.6334 Q456.3281,823.8522 456.3281,822.5397 Q456.3281,820.8522 457.4063,819.8834 Q458.4844,818.9147 460.3594,818.9147 Q461.2188,818.9147 462.0625,819.1178 Q462.9219,819.3053 463.7656,819.6959 L463.7656,822.0866 Q462.9844,821.5241 462.1563,821.2428 Q461.3438,820.9459 460.5469,820.9459 Q459.6719,820.9459 459.1875,821.3053 Q458.7188,821.6647 458.7188,822.3209 Q458.7188,822.8366 459.0625,823.1803 Q459.4063,823.5084 460.5,823.9147 L461.5625,824.3209 Q463.0469,824.8678 463.75,825.7741 Q464.4688,826.6803 464.4688,828.0553 Q464.4688,829.9303 463.3594,830.8522 Q462.25,831.7741 460,831.7741 Q459.0781,831.7741 458.1563,831.5553 Q457.2344,831.3366 456.375,830.9147 L456.375,828.3834 Q457.3438,829.0709 458.2656,829.4147 Q459.1875,829.7584 460.0781,829.7584 Q460.9844,829.7584 461.4844,829.3522 Q461.9844,828.9303 461.9844,828.1959 Q461.9844,827.6334 461.6406,827.2272 Q461.3125,826.8053 460.6875,826.5553 L459.4844,826.1022 Z " fill="#000000"/><text fill="#000000" font-family="sans-serif" font-size="12" font-style="italic" lengthAdjust="spacing" textLength="72" x="479.5" y="821.5455">&#171;Standard&#187;</text><text fill="#0A2A61" font-family="sans-serif" font-size="14" lengthAdjust="spacing" textLength="83" x="474" y="837.3707">Schema org</text><line style="stroke:#181818;stroke-width:0.5;" x1="446" x2="559" y1="845.6725" y2="845.6725"/><a href="https://schema.org/docs/schemas.html" target="_top" title="https://schema.org/docs/schemas.html" xlink:actuate="onRequest" xlink:href="https://schema.org/docs/schemas.html" xlink:show="new" xlink:title="https://schema.org/docs/schemas.html" xlink:type="simple"><text fill="#F5665D" font-family="sans-serif" font-size="14" lengthAdjust="spacing" text-decoration="underline" textLength="63" x="451" y="862.6676">schemas</text></a></g><!--class 1EdTech Consortium--><g id="elem_1EdTech Consortium"><rect codeLine="92" fill="#ECF6F4" height="40.2656" id="1EdTech Consortium" rx="2.5" ry="2.5" style="stroke:#181818;stroke-width:0.5;" width="178" x="347.5" y="158.6969"/><ellipse cx="362.5" cy="178.8297" fill="#D99B55" rx="11" ry="11" style="stroke:#181818;stroke-width:1.0;"/><path d="M362.6094,174.4078 Q361.6719,174.4078 361.2344,175.4078 Q360.8125,176.4078 360.8125,178.6422 Q360.8125,180.8766 361.2344,181.8766 Q361.6719,182.8766 362.6094,182.8766 Q363.5625,182.8766 363.9844,181.8766 Q364.4219,180.8766 364.4219,178.6422 Q364.4219,176.4078 363.9844,175.4078 Q363.5625,174.4078 362.6094,174.4078 Z M358.2656,178.6422 Q358.2656,175.4703 359.3594,173.8453 Q360.4688,172.2047 362.6094,172.2047 Q364.7656,172.2047 365.8594,173.8453 Q366.9688,175.4703 366.9688,178.6422 Q366.9688,181.8141 365.8594,183.4391 Q364.7656,185.0641 362.6094,185.0641 Q360.4688,185.0641 359.3594,183.4391 Q358.2656,181.8141 358.2656,178.6422 Z " fill="#000000"/><text fill="#000000" font-family="sans-serif" font-size="12" font-style="italic" lengthAdjust="spacing" textLength="92" x="403.5" y="174.8355">&#171;Organization&#187;</text><text fill="#0A2A61" font-family="sans-serif" font-size="14" lengthAdjust="spacing" textLength="146" x="376.5" y="190.6607">1EdTech Consortium</text></g><!--class Comprehensive\nLearner Record (CLR)--><g id="elem_Comprehensive\nLearner Record (CLR)"><rect codeLine="94" fill="#ECF6F4" height="80.8594" id="Comprehensive\nLearner Record (CLR)" rx="2.5" ry="2.5" style="stroke:#181818;stroke-width:0.5;" width="179" x="218" y="403.1169"/><ellipse cx="233" cy="431.3981" fill="#55D9D6" rx="11" ry="11" style="stroke:#181818;stroke-width:1.0;"/><path d="M232.4844,431.9606 Q230.625,431.2575 229.9688,430.4919 Q229.3281,429.7106 229.3281,428.3981 Q229.3281,426.7106 230.4063,425.7419 Q231.4844,424.7731 233.3594,424.7731 Q234.2188,424.7731 235.0625,424.9763 Q235.9219,425.1638 236.7656,425.5544 L236.7656,427.945 Q235.9844,427.3825 235.1563,427.1013 Q234.3438,426.8044 233.5469,426.8044 Q232.6719,426.8044 232.1875,427.1638 Q231.7188,427.5231 231.7188,428.1794 Q231.7188,428.695 232.0625,429.0388 Q232.4063,429.3669 233.5,429.7731 L234.5625,430.1794 Q236.0469,430.7263 236.75,431.6325 Q237.4688,432.5388 237.4688,433.9138 Q237.4688,435.7888 236.3594,436.7106 Q235.25,437.6325 233,437.6325 Q232.0781,437.6325 231.1563,437.4138 Q230.2344,437.195 229.375,436.7731 L229.375,434.2419 Q230.3438,434.9294 231.2656,435.2731 Q232.1875,435.6169 233.0781,435.6169 Q233.9844,435.6169 234.4844,435.2106 Q234.9844,434.7888 234.9844,434.0544 Q234.9844,433.4919 234.6406,433.0856 Q234.3125,432.6638 233.6875,432.4138 L232.4844,431.9606 Z " fill="#000000"/><text fill="#000000" font-family="sans-serif" font-size="12" font-style="italic" lengthAdjust="spacing" textLength="72" x="284.5" y="419.2555">&#171;Standard&#187;</text><text fill="#0A2A61" font-family="sans-serif" font-size="14" lengthAdjust="spacing" textLength="109" x="266" y="435.0807">Comprehensive</text><text fill="#0A2A61" font-family="sans-serif" font-size="14" lengthAdjust="spacing" textLength="147" x="247" y="451.3776">Learner Record (CLR)</text><line style="stroke:#181818;stroke-width:0.5;" x1="219" x2="396" y1="459.6794" y2="459.6794"/><a href="https://www.1edtech.org/standards/clr" target="_top" title="https://www.1edtech.org/standards/clr" xlink:actuate="onRequest" xlink:href="https://www.1edtech.org/standards/clr" xlink:show="new" xlink:title="https://www.1edtech.org/standards/clr" xlink:type="simple"><text fill="#F5665D" font-family="sans-serif" font-size="14" lengthAdjust="spacing" text-decoration="underline" textLength="106" x="224" y="476.6745">CLR at 1edtech</text></a></g><!--class Open Badges--><g id="elem_Open Badges"><rect codeLine="99" fill="#ECF6F4" height="64.5625" id="Open Badges" rx="2.5" ry="2.5" style="stroke:#181818;stroke-width:0.5;" width="127" x="439" y="663.8369"/><ellipse cx="454" cy="683.9697" fill="#55D9D6" rx="11" ry="11" style="stroke:#181818;stroke-width:1.0;"/><path d="M453.4844,684.5322 Q451.625,683.8291 450.9688,683.0634 Q450.3281,682.2822 450.3281,680.9697 Q450.3281,679.2822 451.4063,678.3134 Q452.4844,677.3447 454.3594,677.3447 Q455.2188,677.3447 456.0625,677.5478 Q456.9219,677.7353 457.7656,678.1259 L457.7656,680.5166 Q456.9844,679.9541 456.1563,679.6728 Q455.3438,679.3759 454.5469,679.3759 Q453.6719,679.3759 453.1875,679.7353 Q452.7188,680.0947 452.7188,680.7509 Q452.7188,681.2666 453.0625,681.6103 Q453.4063,681.9384 454.5,682.3447 L455.5625,682.7509 Q457.0469,683.2978 457.75,684.2041 Q458.4688,685.1103 458.4688,686.4853 Q458.4688,688.3603 457.3594,689.2822 Q456.25,690.2041 454,690.2041 Q453.0781,690.2041 452.1563,689.9853 Q451.2344,689.7666 450.375,689.3447 L450.375,686.8134 Q451.3438,687.5009 452.2656,687.8447 Q453.1875,688.1884 454.0781,688.1884 Q454.9844,688.1884 455.4844,687.7822 Q455.9844,687.3603 455.9844,686.6259 Q455.9844,686.0634 455.6406,685.6572 Q455.3125,685.2353 454.6875,684.9853 L453.4844,684.5322 Z " fill="#000000"/><text fill="#000000" font-family="sans-serif" font-size="12" font-style="italic" lengthAdjust="spacing" textLength="72" x="479.5" y="679.9755">&#171;Standard&#187;</text><text fill="#0A2A61" font-family="sans-serif" font-size="14" lengthAdjust="spacing" textLength="95" x="468" y="695.8007">Open Badges</text><line style="stroke:#181818;stroke-width:0.5;" x1="440" x2="565" y1="704.1025" y2="704.1025"/><a href="https://www.1edtech.org/standards/open-badges" target="_top" title="https://www.1edtech.org/standards/open-badges" xlink:actuate="onRequest" xlink:href="https://www.1edtech.org/standards/open-badges" xlink:show="new" xlink:title="https://www.1edtech.org/standards/open-badges" xlink:type="simple"><text fill="#F5665D" font-family="sans-serif" font-size="14" lengthAdjust="spacing" text-decoration="underline" textLength="100" x="445" y="721.0976">OB at 1edtech</text></a></g><!--class Badge Connect? API--><g id="elem_Badge Connect&#174; API"><rect codeLine="111" fill="#ECF6F4" height="64.5625" id="Badge Connect&#174; API" rx="2.5" ry="2.5" style="stroke:#181818;stroke-width:0.5;" width="179" x="489" y="518.1269"/><ellipse cx="504" cy="538.2597" fill="#55D9D6" rx="11" ry="11" style="stroke:#181818;stroke-width:1.0;"/><path d="M503.4844,538.8222 Q501.625,538.1191 500.9688,537.3534 Q500.3281,536.5722 500.3281,535.2597 Q500.3281,533.5722 501.4063,532.6034 Q502.4844,531.6347 504.3594,531.6347 Q505.2188,531.6347 506.0625,531.8378 Q506.9219,532.0253 507.7656,532.4159 L507.7656,534.8066 Q506.9844,534.2441 506.1563,533.9628 Q505.3438,533.6659 504.5469,533.6659 Q503.6719,533.6659 503.1875,534.0253 Q502.7188,534.3847 502.7188,535.0409 Q502.7188,535.5566 503.0625,535.9003 Q503.4063,536.2284 504.5,536.6347 L505.5625,537.0409 Q507.0469,537.5878 507.75,538.4941 Q508.4688,539.4003 508.4688,540.7753 Q508.4688,542.6503 507.3594,543.5722 Q506.25,544.4941 504,544.4941 Q503.0781,544.4941 502.1563,544.2753 Q501.2344,544.0566 500.375,543.6347 L500.375,541.1034 Q501.3438,541.7909 502.2656,542.1347 Q503.1875,542.4784 504.0781,542.4784 Q504.9844,542.4784 505.4844,542.0722 Q505.9844,541.6503 505.9844,540.9159 Q505.9844,540.3534 505.6406,539.9472 Q505.3125,539.5253 504.6875,539.2753 L503.4844,538.8222 Z " fill="#000000"/><text fill="#000000" font-family="sans-serif" font-size="12" font-style="italic" lengthAdjust="spacing" textLength="72" x="555.5" y="534.2655">&#171;Standard&#187;</text><text fill="#0A2A61" font-family="sans-serif" font-size="14" lengthAdjust="spacing" textLength="147" x="518" y="550.0907">Badge Connect&#174; API</text><line style="stroke:#181818;stroke-width:0.5;" x1="490" x2="667" y1="558.3925" y2="558.3925"/><text fill="#000000" font-family="sans-serif" font-size="14" lengthAdjust="spacing" textLength="26" x="495" y="575.3876">see</text><a href="https://www.imsglobal.org/spec/ob/v2p1/" target="_top" title="https://www.imsglobal.org/spec/ob/v2p1/" xlink:actuate="onRequest" xlink:href="https://www.imsglobal.org/spec/ob/v2p1/" xlink:show="new" xlink:title="https://www.imsglobal.org/spec/ob/v2p1/" xlink:type="simple"><text fill="#F5665D" font-family="sans-serif" font-size="14" lengthAdjust="spacing" text-decoration="underline" textLength="121" x="525" y="575.3876">Open Badges 2.1</text></a></g><!--class TrustEd\nMicrocredential\nFramework--><g id="elem_TrustEd\nMicrocredential\nFramework"><rect codeLine="116" fill="#ECF6F4" height="72.8594" id="TrustEd\nMicrocredential\nFramework" rx="2.5" ry="2.5" style="stroke:#181818;stroke-width:0.5;" width="137" x="703" y="513.9769"/><ellipse cx="718" cy="550.4066" fill="#55D9D6" rx="11" ry="11" style="stroke:#181818;stroke-width:1.0;"/><path d="M717.4844,550.9691 Q715.625,550.2659 714.9688,549.5003 Q714.3281,548.7191 714.3281,547.4066 Q714.3281,545.7191 715.4063,544.7503 Q716.4844,543.7816 718.3594,543.7816 Q719.2188,543.7816 720.0625,543.9847 Q720.9219,544.1722 721.7656,544.5628 L721.7656,546.9534 Q720.9844,546.3909 720.1563,546.1097 Q719.3438,545.8128 718.5469,545.8128 Q717.6719,545.8128 717.1875,546.1722 Q716.7188,546.5316 716.7188,547.1878 Q716.7188,547.7034 717.0625,548.0472 Q717.4063,548.3753 718.5,548.7816 L719.5625,549.1878 Q721.0469,549.7347 721.75,550.6409 Q722.4688,551.5472 722.4688,552.9222 Q722.4688,554.7972 721.3594,555.7191 Q720.25,556.6409 718,556.6409 Q717.0781,556.6409 716.1563,556.4222 Q715.2344,556.2034 714.375,555.7816 L714.375,553.2503 Q715.3438,553.9378 716.2656,554.2816 Q717.1875,554.6253 718.0781,554.6253 Q718.9844,554.6253 719.4844,554.2191 Q719.9844,553.7972 719.9844,553.0628 Q719.9844,552.5003 719.6406,552.0941 Q719.3125,551.6722 718.6875,551.4222 L717.4844,550.9691 Z " fill="#000000"/><text fill="#000000" font-family="sans-serif" font-size="12" font-style="italic" lengthAdjust="spacing" textLength="72" x="748.5" y="530.1155">&#171;Standard&#187;</text><text fill="#0A2A61" font-family="sans-serif" font-size="14" lengthAdjust="spacing" textLength="54" x="757.5" y="545.9407">TrustEd</text><text fill="#0A2A61" font-family="sans-serif" font-size="14" lengthAdjust="spacing" textLength="105" x="732" y="562.2376">Microcredential</text><text fill="#0A2A61" font-family="sans-serif" font-size="14" lengthAdjust="spacing" textLength="76" x="746.5" y="578.5345">Framework</text></g><!--class TrustEd\nMicrocredential\nKnowledge--><g id="elem_TrustEd\nMicrocredential\nKnowledge"><rect codeLine="118" fill="#ECF6F4" height="72.8594" id="TrustEd\nMicrocredential\nKnowledge" rx="2.5" ry="2.5" style="stroke:#181818;stroke-width:0.5;" width="137" x="692" y="288.1169"/><ellipse cx="707" cy="324.5466" fill="#55D9D6" rx="11" ry="11" style="stroke:#181818;stroke-width:1.0;"/><path d="M706.4844,325.1091 Q704.625,324.4059 703.9688,323.6403 Q703.3281,322.8591 703.3281,321.5466 Q703.3281,319.8591 704.4063,318.8903 Q705.4844,317.9216 707.3594,317.9216 Q708.2188,317.9216 709.0625,318.1247 Q709.9219,318.3122 710.7656,318.7028 L710.7656,321.0934 Q709.9844,320.5309 709.1563,320.2497 Q708.3438,319.9528 707.5469,319.9528 Q706.6719,319.9528 706.1875,320.3122 Q705.7188,320.6716 705.7188,321.3278 Q705.7188,321.8434 706.0625,322.1872 Q706.4063,322.5153 707.5,322.9216 L708.5625,323.3278 Q710.0469,323.8747 710.75,324.7809 Q711.4688,325.6872 711.4688,327.0622 Q711.4688,328.9372 710.3594,329.8591 Q709.25,330.7809 707,330.7809 Q706.0781,330.7809 705.1563,330.5622 Q704.2344,330.3434 703.375,329.9216 L703.375,327.3903 Q704.3438,328.0778 705.2656,328.4216 Q706.1875,328.7653 707.0781,328.7653 Q707.9844,328.7653 708.4844,328.3591 Q708.9844,327.9372 708.9844,327.2028 Q708.9844,326.6403 708.6406,326.2341 Q708.3125,325.8122 707.6875,325.5622 L706.4844,325.1091 Z " fill="#000000"/><text fill="#000000" font-family="sans-serif" font-size="12" font-style="italic" lengthAdjust="spacing" textLength="72" x="737.5" y="304.2555">&#171;Standard&#187;</text><text fill="#0A2A61" font-family="sans-serif" font-size="14" lengthAdjust="spacing" textLength="54" x="746.5" y="320.0807">TrustEd</text><text fill="#0A2A61" font-family="sans-serif" font-size="14" lengthAdjust="spacing" textLength="105" x="721" y="336.3776">Microcredential</text><text fill="#0A2A61" font-family="sans-serif" font-size="14" lengthAdjust="spacing" textLength="77" x="735" y="352.6745">Knowledge</text></g><!--class TrustEd\nMicrocredential\nApplication--><g id="elem_TrustEd\nMicrocredential\nApplication"><rect codeLine="119" fill="#ECF6F4" height="72.8594" id="TrustEd\nMicrocredential\nApplication" rx="2.5" ry="2.5" style="stroke:#181818;stroke-width:0.5;" width="137" x="864" y="288.1169"/><ellipse cx="879" cy="324.5466" fill="#55D9D6" rx="11" ry="11" style="stroke:#181818;stroke-width:1.0;"/><path d="M878.4844,325.1091 Q876.625,324.4059 875.9688,323.6403 Q875.3281,322.8591 875.3281,321.5466 Q875.3281,319.8591 876.4063,318.8903 Q877.4844,317.9216 879.3594,317.9216 Q880.2188,317.9216 881.0625,318.1247 Q881.9219,318.3122 882.7656,318.7028 L882.7656,321.0934 Q881.9844,320.5309 881.1563,320.2497 Q880.3438,319.9528 879.5469,319.9528 Q878.6719,319.9528 878.1875,320.3122 Q877.7188,320.6716 877.7188,321.3278 Q877.7188,321.8434 878.0625,322.1872 Q878.4063,322.5153 879.5,322.9216 L880.5625,323.3278 Q882.0469,323.8747 882.75,324.7809 Q883.4688,325.6872 883.4688,327.0622 Q883.4688,328.9372 882.3594,329.8591 Q881.25,330.7809 879,330.7809 Q878.0781,330.7809 877.1563,330.5622 Q876.2344,330.3434 875.375,329.9216 L875.375,327.3903 Q876.3438,328.0778 877.2656,328.4216 Q878.1875,328.7653 879.0781,328.7653 Q879.9844,328.7653 880.4844,328.3591 Q880.9844,327.9372 880.9844,327.2028 Q880.9844,326.6403 880.6406,326.2341 Q880.3125,325.8122 879.6875,325.5622 L878.4844,325.1091 Z " fill="#000000"/><text fill="#000000" font-family="sans-serif" font-size="12" font-style="italic" lengthAdjust="spacing" textLength="72" x="909.5" y="304.2555">&#171;Standard&#187;</text><text fill="#0A2A61" font-family="sans-serif" font-size="14" lengthAdjust="spacing" textLength="54" x="918.5" y="320.0807">TrustEd</text><text fill="#0A2A61" font-family="sans-serif" font-size="14" lengthAdjust="spacing" textLength="105" x="893" y="336.3776">Microcredential</text><text fill="#0A2A61" font-family="sans-serif" font-size="14" lengthAdjust="spacing" textLength="75" x="908" y="352.6745">Application</text></g><!--class TrustEd\nMicrocredential\nCoalition--><g id="elem_TrustEd\nMicrocredential\nCoalition"><rect codeLine="123" fill="#ECF6F4" height="97.1563" id="TrustEd\nMicrocredential\nCoalition" rx="2.5" ry="2.5" style="stroke:#181818;stroke-width:0.5;" width="137" x="510" y="275.9669"/><ellipse cx="525" cy="312.3966" fill="#D99B55" rx="11" ry="11" style="stroke:#181818;stroke-width:1.0;"/><path d="M525.1094,307.9747 Q524.1719,307.9747 523.7344,308.9747 Q523.3125,309.9747 523.3125,312.2091 Q523.3125,314.4434 523.7344,315.4434 Q524.1719,316.4434 525.1094,316.4434 Q526.0625,316.4434 526.4844,315.4434 Q526.9219,314.4434 526.9219,312.2091 Q526.9219,309.9747 526.4844,308.9747 Q526.0625,307.9747 525.1094,307.9747 Z M520.7656,312.2091 Q520.7656,309.0372 521.8594,307.4122 Q522.9688,305.7716 525.1094,305.7716 Q527.2656,305.7716 528.3594,307.4122 Q529.4688,309.0372 529.4688,312.2091 Q529.4688,315.3809 528.3594,317.0059 Q527.2656,318.6309 525.1094,318.6309 Q522.9688,318.6309 521.8594,317.0059 Q520.7656,315.3809 520.7656,312.2091 Z " fill="#000000"/><text fill="#000000" font-family="sans-serif" font-size="12" font-style="italic" lengthAdjust="spacing" textLength="92" x="545.5" y="292.1055">&#171;Organization&#187;</text><text fill="#0A2A61" font-family="sans-serif" font-size="14" lengthAdjust="spacing" textLength="54" x="564.5" y="307.9307">TrustEd</text><text fill="#0A2A61" font-family="sans-serif" font-size="14" lengthAdjust="spacing" textLength="105" x="539" y="324.2276">Microcredential</text><text fill="#0A2A61" font-family="sans-serif" font-size="14" lengthAdjust="spacing" textLength="59" x="562" y="340.5245">Coalition</text><line style="stroke:#181818;stroke-width:0.5;" x1="511" x2="646" y1="348.8263" y2="348.8263"/><a href="https://www.1edtech.org/program/tmc" target="_top" title="https://www.1edtech.org/program/tmc" xlink:actuate="onRequest" xlink:href="https://www.1edtech.org/program/tmc" xlink:show="new" xlink:title="https://www.1edtech.org/program/tmc" xlink:type="simple"><text fill="#F5665D" font-family="sans-serif" font-size="14" lengthAdjust="spacing" text-decoration="underline" textLength="110" x="516" y="365.8214">TMC at 1edtech</text></a></g><g id="elem_version"><path d="M805,43.2969 L805,98.6953 L1052,98.6953 L1052,53.2969 L1042,43.2969 L805,43.2969 " fill="#F5EDA8" style="stroke:#D99B55;stroke-width:0.5;"/><path d="M1042,43.2969 L1042,53.2969 L1052,53.2969 L1042,43.2969 " fill="#F5EDA8" style="stroke:#D99B55;stroke-width:1.0;"/><text fill="#0A2A61" font-family="sans-serif" font-size="13" lengthAdjust="spacing" textLength="177" x="811" y="60.3638">Next generation credentials</text><text fill="#0A2A61" font-family="sans-serif" font-size="13" lengthAdjust="spacing" textLength="226" x="811" y="75.4966">Last modified: 2024/05/24 14:57:23</text><a href="https://www.zotero.org/groups/5541646/nextgencredentials" target="_top" title="Zotero" xlink:actuate="onRequest" xlink:href="https://www.zotero.org/groups/5541646/nextgencredentials" xlink:show="new" xlink:title="Zotero" xlink:type="simple"><text fill="#F5665D" font-family="sans-serif" font-size="13" lengthAdjust="spacing" text-decoration="underline" textLength="124" x="811" y="90.6294">see documentation</text></a></g><g id="elem_GMN31"><path d="M103,43.2969 L103,98.6953 A0,0 0 0 0 103,98.6953 L432.5,98.6953 L436.5,158.2469 L440.5,98.6953 L770,98.6953 A0,0 0 0 0 770,98.6953 L770,53.2969 L760,43.2969 L103,43.2969 A0,0 0 0 0 103,43.2969 " fill="#F5EDA8" style="stroke:#D99B55;stroke-width:0.5;"/><path d="M760,43.2969 L760,53.2969 L770,53.2969 L760,43.2969 " fill="#F5EDA8" style="stroke:#D99B55;stroke-width:0.5;"/><text fill="#0A2A61" font-family="sans-serif" font-size="13" lengthAdjust="spacing" textLength="561" x="109" y="60.3638">R. Coyle, &#8220;Clarifying Credentials: What&#8217;s the Difference Between CLRs, LERs and Wallets?</text><text fill="#0A2A61" font-family="sans-serif" font-size="13" lengthAdjust="spacing" textLength="359" x="109" y="75.4966">| 1EdTech.&#8221; Accessed: May 22, 2024. [Online]. Available:</text><a href="https://www.1edtech.org/blog/clarifying-credentials-whats-the-difference-between-clrs-lers-and-wallets" target="_top" title="https://www.1edtech.org/blog/clarifying-credentials-whats-the-difference-between-clrs-lers-and-wallets" xlink:actuate="onRequest" xlink:href="https://www.1edtech.org/blog/clarifying-credentials-whats-the-difference-between-clrs-lers-and-wallets" xlink:show="new" xlink:title="https://www.1edtech.org/blog/clarifying-credentials-whats-the-difference-between-clrs-lers-and-wallets" xlink:type="simple"><text fill="#F5665D" font-family="sans-serif" font-size="13" lengthAdjust="spacing" text-decoration="underline" textLength="646" x="109" y="90.6294">https://www.1edtech.org/blog/clarifying-credentials-whats-the-difference-between-clrs-lers-and-wallets</text></a></g><!--link W3C to Verifiable credentials WG--><g id="link_W3C_Verifiable credentials WG"><path codeLine="62" d="M89.01,570.7869 C108.02,594.5469 136.7314,630.422 159.3914,658.742 " fill="none" id="W3C-to-Verifiable credentials WG" style="stroke:#0A2A61;stroke-width:1.0;stroke-dasharray:7.0,7.0;"/><polygon fill="#0A2A61" points="163.14,663.4269,160.6404,653.9005,160.0162,659.5228,154.3939,658.8986,163.14,663.4269" style="stroke:#0A2A61;stroke-width:1.0;"/><text fill="#0A2A61" font-family="sans-serif" font-size="13" lengthAdjust="spacing" textLength="75" x="139.5" y="629.9038">coordinates</text></g><!--link Verifiable credentials WG to Verifiable credentials (W3C)--><g id="link_Verifiable credentials WG_Verifiable credentials (W3C)"><path codeLine="68" d="M213.69,728.7869 C231.85,751.6269 252.5354,777.6308 270.6754,800.4408 " fill="none" id="Verifiable credentials WG-to-Verifiable credentials (W3C)" style="stroke:#0A2A61;stroke-width:1.0;stroke-dasharray:7.0,7.0;"/><polygon fill="#0A2A61" points="274.41,805.1369,271.9388,795.6031,271.2978,801.2235,265.6774,800.5825,274.41,805.1369" style="stroke:#0A2A61;stroke-width:1.0;"/><text fill="#0A2A61" font-family="sans-serif" font-size="13" lengthAdjust="spacing" textLength="63" x="252.5" y="771.4738">maintains</text></g><!--link W3C to Linked Data--><g id="link_W3C_Linked Data"><path codeLine="83" d="M72.71,570.9069 C71.82,593.3269 70.39,631.2369 69.5,663.8369 C66.67,767.2569 64.8257,883.8475 64.0157,940.5575 " fill="none" id="W3C-to-Linked Data" style="stroke:#0A2A61;stroke-width:1.0;stroke-dasharray:7.0,7.0;"/><polygon fill="#0A2A61" points="63.93,946.5569,68.0581,937.6149,64.0014,941.5574,60.0589,937.5007,63.93,946.5569" style="stroke:#0A2A61;stroke-width:1.0;"/><text fill="#0A2A61" font-family="sans-serif" font-size="13" lengthAdjust="spacing" textLength="63" x="68.5" y="771.4738">maintains</text></g><!--link Schema org to Linked Data--><g id="link_Schema org_Linked Data"><path codeLine="87" d="M444.6,863.5469 C438.85,865.7969 433.08,867.9769 427.5,869.9669 C320.36,908.1269 198.1348,942.4613 126.0148,961.8213 " fill="none" id="Schema org-to-Linked Data" style="stroke:#0A2A61;stroke-width:1.0;stroke-dasharray:7.0,7.0;"/><polygon fill="#0A2A61" points="120.22,963.3769,129.9493,964.9067,125.049,962.0806,127.8752,957.1803,120.22,963.3769" style="stroke:#0A2A61;stroke-width:1.0;"/><text fill="#0A2A61" font-family="sans-serif" font-size="13" lengthAdjust="spacing" textLength="30" x="330.5" y="913.0338">uses</text></g><!--link Comprehensive\nLearner Record (CLR) to Verifiable credentials (W3C)--><g id="link_Comprehensive\nLearner Record (CLR)_Verifiable credentials (W3C)"><path codeLine="97" d="M309.67,484.1669 C312.8,543.6869 318.46,659.7169 320.5,758.4069 C320.66,765.9569 321.74,767.9469 320.5,775.4069 C318.86,785.2769 321.7397,778.6881 318.4697,788.0781 " fill="none" id="Comprehensive\nLearner Record (CLR)-to-Verifiable credentials (W3C)" style="stroke:#0A2A61;stroke-width:1.0;"/><polygon fill="none" points="312.55,805.0769,324.1359,790.0514,312.8034,786.1049,312.55,805.0769" style="stroke:#0A2A61;stroke-width:1.0;"/></g><!--link Open Badges to Verifiable credentials (W3C)--><g id="link_Open Badges_Verifiable credentials (W3C)"><path codeLine="102" d="M456.44,728.7869 C423.21,751.6269 393.393,772.1297 360.213,794.9397 " fill="none" id="Open Badges-to-Verifiable credentials (W3C)" style="stroke:#0A2A61;stroke-width:1.0;"/><polygon fill="none" points="345.38,805.1369,363.6121,799.8841,356.814,789.9954,345.38,805.1369" style="stroke:#0A2A61;stroke-width:1.0;"/></g><!--link Open Badges to Schema org--><g id="link_Open Badges_Schema org"><path codeLine="103" d="M502.5,728.7869 C502.5,751.6269 502.5,764.3269 502.5,787.1369 " fill="none" id="Open Badges-to-Schema org" style="stroke:#0A2A61;stroke-width:1.0;"/><polygon fill="none" points="502.5,805.1369,508.5,787.1369,496.5,787.1369,502.5,805.1369" style="stroke:#0A2A61;stroke-width:1.0;"/></g><!--link 1EdTech Consortium to Comprehensive\nLearner Record (CLR)--><g id="link_1EdTech Consortium_Comprehensive\nLearner Record (CLR)"><path codeLine="105" d="M381.85,199.2469 C368.09,206.5769 354.65,216.3069 345.5,228.9669 C308.32,280.3969 303.473,350.6587 304.603,396.7787 " fill="none" id="1EdTech Consortium-to-Comprehensive\nLearner Record (CLR)" style="stroke:#0A2A61;stroke-width:1.0;stroke-dasharray:7.0,7.0;"/><polygon fill="#0A2A61" points="304.75,402.7769,308.5284,393.6816,304.6275,397.7784,300.5308,393.8776,304.75,402.7769" style="stroke:#0A2A61;stroke-width:1.0;"/><text fill="#0A2A61" font-family="sans-serif" font-size="13" lengthAdjust="spacing" textLength="63" x="346.5" y="242.0338">maintains</text></g><!--link 1EdTech Consortium to Open Badges--><g id="link_1EdTech Consortium_Open Badges"><path codeLine="106" d="M436.84,199.0769 C438.16,257.7469 444.31,439.3269 471.5,586.8369 C476.36,613.1869 483.052,636.6353 489.942,658.0453 " fill="none" id="1EdTech Consortium-to-Open Badges" style="stroke:#0A2A61;stroke-width:1.0;stroke-dasharray:7.0,7.0;"/><polygon fill="#0A2A61" points="491.78,663.7569,492.8306,653.9642,490.2483,658.9973,485.2152,656.4149,491.78,663.7569" style="stroke:#0A2A61;stroke-width:1.0;"/><text fill="#0A2A61" font-family="sans-serif" font-size="13" lengthAdjust="spacing" textLength="63" x="456.5" y="448.1138">maintains</text></g><!--link Badge Connect? API to Open Badges--><g id="link_Badge Connect&#174; API_Open Badges"><path codeLine="114" d="M561.82,582.9469 C549.15,606.9069 537.4098,629.1088 524.7498,653.0488 " fill="none" id="Badge Connect&#174; API-to-Open Badges" style="stroke:#0A2A61;stroke-width:1.0;"/><polygon fill="#0A2A61" points="519.14,663.6569,525.4809,660.2228,524.7498,653.0488,518.4089,656.4829,519.14,663.6569" style="stroke:#0A2A61;stroke-width:1.0;"/><text fill="#0A2A61" font-family="sans-serif" font-size="13" lengthAdjust="spacing" textLength="62" x="543.5" y="629.9038">defined in</text></g><!--link TrustEd\nMicrocredential\nFramework to Open Badges--><g id="link_TrustEd\nMicrocredential\nFramework_Open Badges"><path codeLine="117" d="M704.31,587.3069 C660.59,610.6669 619.9466,632.3755 577.8466,654.8655 " fill="none" id="TrustEd\nMicrocredential\nFramework-to-Open Badges" style="stroke:#0A2A61;stroke-width:1.0;"/><polygon fill="none" points="561.97,663.3469,580.6737,660.1577,575.0195,649.5733,561.97,663.3469" style="stroke:#0A2A61;stroke-width:1.0;"/></g><!--link TrustEd\nMicrocredential\nKnowledge to TrustEd\nMicrocredential\nFramework--><g id="link_TrustEd\nMicrocredential\nKnowledge_TrustEd\nMicrocredential\nFramework"><path codeLine="120" d="M762.24,361.0169 C764.3,402.8069 767.1006,459.8614 769.1606,501.7514 " fill="none" id="TrustEd\nMicrocredential\nKnowledge-to-TrustEd\nMicrocredential\nFramework" style="stroke:#0A2A61;stroke-width:1.0;"/><polygon fill="#0A2A61" points="769.75,513.7369,773.4505,507.5476,769.1606,501.7514,765.4601,507.9406,769.75,513.7369" style="stroke:#0A2A61;stroke-width:1.0;"/><text fill="#0A2A61" font-family="sans-serif" font-size="13" lengthAdjust="spacing" textLength="62" x="768.5" y="448.1138">defined in</text></g><!--link TrustEd\nMicrocredential\nApplication to TrustEd\nMicrocredential\nFramework--><g id="link_TrustEd\nMicrocredential\nApplication_TrustEd\nMicrocredential\nFramework"><path codeLine="121" d="M915.12,361.2969 C898.1,394.6269 870.31,444.9069 839.5,483.9769 C831.38,494.2669 830.2979,496.1457 820.8179,505.3757 " fill="none" id="TrustEd\nMicrocredential\nApplication-to-TrustEd\nMicrocredential\nFramework" style="stroke:#0A2A61;stroke-width:1.0;"/><polygon fill="#0A2A61" points="812.22,513.7469,819.3093,512.4273,820.8179,505.3757,813.7286,506.6953,812.22,513.7469" style="stroke:#0A2A61;stroke-width:1.0;"/><text fill="#0A2A61" font-family="sans-serif" font-size="13" lengthAdjust="spacing" textLength="62" x="892.5" y="448.1138">defined in</text></g><!--link 1EdTech Consortium to TrustEd\nMicrocredential\nCoalition--><g id="link_1EdTech Consortium_TrustEd\nMicrocredential\nCoalition"><path codeLine="126" d="M455.65,199.2169 C474.88,218.6769 501.0428,245.1589 526.7828,271.2089 " fill="none" id="1EdTech Consortium-to-TrustEd\nMicrocredential\nCoalition" style="stroke:#0A2A61;stroke-width:1.0;stroke-dasharray:7.0,7.0;"/><polygon fill="#0A2A61" points="531,275.4769,527.5196,266.2635,527.4857,271.9202,521.8289,271.8864,531,275.4769" style="stroke:#0A2A61;stroke-width:1.0;"/><text fill="#0A2A61" font-family="sans-serif" font-size="13" lengthAdjust="spacing" textLength="75" x="499.5" y="242.0338">coordinates</text></g><!--link TrustEd\nMicrocredential\nCoalition to TrustEd\nMicrocredential\nFramework--><g id="link_TrustEd\nMicrocredential\nCoalition_TrustEd\nMicrocredential\nFramework"><path codeLine="127" d="M607.45,373.5269 C628.42,406.3669 658.58,449.9469 690.5,483.9769 C700.27,494.3969 707.0785,500.8147 718.2485,509.9647 " fill="none" id="TrustEd\nMicrocredential\nCoalition-to-TrustEd\nMicrocredential\nFramework" style="stroke:#0A2A61;stroke-width:1.0;stroke-dasharray:7.0,7.0;"/><polygon fill="#0A2A61" points="722.89,513.7669,718.4625,504.9693,719.0221,510.5984,713.393,511.158,722.89,513.7669" style="stroke:#0A2A61;stroke-width:1.0;"/><text fill="#0A2A61" font-family="sans-serif" font-size="13" lengthAdjust="spacing" textLength="63" x="691.5" y="448.1138">maintains</text></g><!--SRC=[pLVlKjj64F-kfzY63q37ih2n7D1aQ8qDQISaCE09qn8-dAN5lk6aqzoTSPo4cRn6PzfNw4FqKV8aNPtyHy86Eqq_n1yOfDtR_Ut-TlTMtcONLSmJAMH_33o11DyRw6E2YXak4mWLHfWOpeHsdBP2PZ0AeBvJRtWxlbTlGAqMDEf1lUwSC6qWbX6_uGzL_C3V2nfDnpcM2a9kh6aDB8b0cW4gY6GuZCcD5LGW5SWqWaO4v-ftQL19w2ivJ47mdc9gVBqrC2RLWUUDHgFg1wjHbQhlMItj-NwZrcmqlImQ2gOGnBQpwJb0lqsOcWWfU5LbaUnXDPIn5zeeyzVkQ80em0f_xeVXv6WhUsvRXJF14ZEC1VG8iXN_4E4DJn3IGp54W0tVtzlhx3yKiV0MDdPQzLQpLXQTCO4l5M826qVju-PneooUY7o_izzfbaMTLnFXpdE_xH-MXQUA9Ns4ZSx-_g7lbsM_eH1o11l7_b6djLUMdMEK2PfDl-Cu0nuXO9oQCSGOzr1HKKmr3Nj_OOXIfYBOkgZaGBTX-gweTwhwi7LQcM3Q1dfc2VzWsI_gNKfr2rkN5Pl9RR2FPqf6mz0uZhxbISeKYp_cf4pfJ2U4M2vdIijrt5BXLOduYEgHNkegbnucdg1AqCQxaIfcnl2axp4XtCogQytgwi34mW5hlgMK7Dcgc10yVtii4rEIM56F_iigDebocQ5yQB9BW7A5jc1Q7pxGcbU8rGapdGNxDjoPw89_GAZjF7ZxXiK8BPRYUokmVtuPfwW4JsudreZ-7CeRQh8597dXpELIHQWcifpScMnv1hhSY4NHlUDutpwOQEeqWlh-Yi7qFAZjVpU3oL83povtsy_WnOkyKmuERAPcLCEpjwWe5jOJMCm2NBui7leuEvNzhgwAk4QxHKoZldSNUhQxgC3pUAwlPyVldTc_ER1gzU193064aWg19rdlpCwk6SGMkTYUn34T7GS7i4OqtNCAmusOOIwHZSA3jsrW1iZW8z4y4SDJCUOG0uWPfyBWYPwR_9_ATZUeDPygsoRTjy7ExdTJjaw1rnEQ7NHbT8Y71HhdB3x6e8XI3quwPTxkdGV5L_9H9AA0uo8SOCo0x3vLJNCSskfR7Ddydppdynqc3sKyHGyBi08OQgf-nmwu0DwyRCEDaZ7KZg8kXWDe4s5I6JwCwGRLXYcZXprwgt0w11OrIpDXgjQMSQfmW8dcT_WkEK6cgDZW74EPNSJja_FjHtWeSr33o90xcm0zqTHUA1IGYOoFYGBbuDvPpwlhVbhLHRCmJbDQN0vPr4Vz3N0bMN5xrWgS7YwWBZbP1zso4mNQ7MSfIxOOribGiNGVjrJ4K9ewFs0IKTKupYPq1mYlUQZaF8XtoJGlMUF7ccQ9ekLDPytDmsdUhTtCPuAX-UTlQ9tz-bY_PEEZJ0AFTL_87XCv3Ic6dknvT_Mqva41DTIhjPo0fTvSzyS7_0UGxu0HJT1PXNJLK9kZw5so4ESnBM8uekjh0RcptgcSs2A4rKvV9N8aa9GNdQuysqfJmKCxdByASi6dJTfQmPMIkIwe_sX-TUXjoGGl16w76Qpgy5J9FhdqJ1n2ztLxeR6NzKxUFEiWAIyiwu5VPRsKeNdF9jHzm3JSqQTJzh5Zj-CdLeHC_iGYqCZsr_hkaknzpHt-CLy9xcs7brO7oYxD6CXGEpbs8rEGDyjl9mlZl4hlnW8hyENpd_JzGkDrdAsLxRc_02u7p7pv_8S6sbQWmszkaBvvGeH3DAFi2vQcewx0oT5vljHSqaSN6lrJxk7Jz1AjVldy5xJ24BNE4lEQZQ5UhzW4LU7gDA7F6BokGkkESP5D-01Mb5cFjZQwygQOtKAEt151rYxXTQCPNhUNutNfcjIk84vTWkkEShY5vFqB]--></g></svg>