<?xml version="1.0" encoding="us-ascii" standalone="no"?><svg xmlns="http://www.w3.org/2000/svg" xmlns:xlink="http://www.w3.org/1999/xlink" contentStyleType="text/css" height="970px" preserveAspectRatio="none" style="width:1578px;height:970px;background:#FFFFFF;" version="1.1" viewBox="0 0 1578 970" width="1578px" zoomAndPan="magnify"><defs/><g><text fill="#0A2A61" font-family="sans-serif" font-size="14" font-weight="bold" lengthAdjust="spacing" textLength="245" x="659.75" y="22.9951">NGC from 1EdTech Consortium</text><!--class W3C--><g id="elem_W3C"><rect codeLine="57" fill="#ECF6F4" height="40.2656" id="W3C" rx="2.5" ry="2.5" style="stroke:#181818;stroke-width:0.5;" width="120" x="7" y="482.5469"/><ellipse cx="22" cy="502.6797" fill="#D99B55" rx="11" ry="11" style="stroke:#181818;stroke-width:1.0;"/><path d="M22.1094,498.2578 Q21.1719,498.2578 20.7344,499.2578 Q20.3125,500.2578 20.3125,502.4922 Q20.3125,504.7266 20.7344,505.7266 Q21.1719,506.7266 22.1094,506.7266 Q23.0625,506.7266 23.4844,505.7266 Q23.9219,504.7266 23.9219,502.4922 Q23.9219,500.2578 23.4844,499.2578 Q23.0625,498.2578 22.1094,498.2578 Z M17.7656,502.4922 Q17.7656,499.3203 18.8594,497.6953 Q19.9688,496.0547 22.1094,496.0547 Q24.2656,496.0547 25.3594,497.6953 Q26.4688,499.3203 26.4688,502.4922 Q26.4688,505.6641 25.3594,507.2891 Q24.2656,508.9141 22.1094,508.9141 Q19.9688,508.9141 18.8594,507.2891 Q17.7656,505.6641 17.7656,502.4922 Z " fill="#000000"/><text fill="#000000" font-family="sans-serif" font-size="12" font-style="italic" lengthAdjust="spacing" textLength="92" x="34" y="498.6855">&#171;Organization&#187;</text><text fill="#0A2A61" font-family="sans-serif" font-size="14" lengthAdjust="spacing" textLength="32" x="64" y="514.5107">W3C</text></g><!--class Verifiable credentials WG--><g id="elem_Verifiable credentials WG"><rect codeLine="58" fill="#ECF6F4" height="64.5625" id="Verifiable credentials WG" rx="2.5" ry="2.5" style="stroke:#181818;stroke-width:0.5;" width="202" x="190" y="616.1069"/><ellipse cx="205" cy="636.2397" fill="#D99B55" rx="11" ry="11" style="stroke:#181818;stroke-width:1.0;"/><path d="M205.1094,631.8178 Q204.1719,631.8178 203.7344,632.8178 Q203.3125,633.8178 203.3125,636.0522 Q203.3125,638.2866 203.7344,639.2866 Q204.1719,640.2866 205.1094,640.2866 Q206.0625,640.2866 206.4844,639.2866 Q206.9219,638.2866 206.9219,636.0522 Q206.9219,633.8178 206.4844,632.8178 Q206.0625,631.8178 205.1094,631.8178 Z M200.7656,636.0522 Q200.7656,632.8803 201.8594,631.2553 Q202.9688,629.6147 205.1094,629.6147 Q207.2656,629.6147 208.3594,631.2553 Q209.4688,632.8803 209.4688,636.0522 Q209.4688,639.2241 208.3594,640.8491 Q207.2656,642.4741 205.1094,642.4741 Q202.9688,642.4741 201.8594,640.8491 Q200.7656,639.2241 200.7656,636.0522 Z " fill="#000000"/><text fill="#000000" font-family="sans-serif" font-size="12" font-style="italic" lengthAdjust="spacing" textLength="92" x="258" y="632.2455">&#171;Organization&#187;</text><text fill="#0A2A61" font-family="sans-serif" font-size="14" lengthAdjust="spacing" textLength="170" x="219" y="648.0707">Verifiable credentials WG</text><line style="stroke:#181818;stroke-width:0.5;" x1="191" x2="391" y1="656.3725" y2="656.3725"/><a href="https://www.w3.org/groups/wg/vc/" target="_top" title="https://www.w3.org/groups/wg/vc/" xlink:actuate="onRequest" xlink:href="https://www.w3.org/groups/wg/vc/" xlink:show="new" xlink:title="https://www.w3.org/groups/wg/vc/" xlink:type="simple"><text fill="#F5665D" font-family="sans-serif" font-size="14" lengthAdjust="spacing" text-decoration="underline" textLength="101" x="196" y="673.3676">Working group</text></a></g><!--class Verifiable credentials (W3C)--><g id="elem_Verifiable credentials (W3C)"><rect codeLine="64" fill="#ECF6F4" height="64.5625" id="Verifiable credentials (W3C)" rx="2.5" ry="2.5" style="stroke:#181818;stroke-width:0.5;" width="220" x="209" y="757.6769"/><ellipse cx="224" cy="777.8097" fill="#55D9D6" rx="11" ry="11" style="stroke:#181818;stroke-width:1.0;"/><path d="M223.4844,778.3722 Q221.625,777.6691 220.9688,776.9034 Q220.3281,776.1222 220.3281,774.8097 Q220.3281,773.1222 221.4063,772.1534 Q222.4844,771.1847 224.3594,771.1847 Q225.2188,771.1847 226.0625,771.3878 Q226.9219,771.5753 227.7656,771.9659 L227.7656,774.3566 Q226.9844,773.7941 226.1563,773.5128 Q225.3438,773.2159 224.5469,773.2159 Q223.6719,773.2159 223.1875,773.5753 Q222.7188,773.9347 222.7188,774.5909 Q222.7188,775.1066 223.0625,775.4503 Q223.4063,775.7784 224.5,776.1847 L225.5625,776.5909 Q227.0469,777.1378 227.75,778.0441 Q228.4688,778.9503 228.4688,780.3253 Q228.4688,782.2003 227.3594,783.1222 Q226.25,784.0441 224,784.0441 Q223.0781,784.0441 222.1563,783.8253 Q221.2344,783.6066 220.375,783.1847 L220.375,780.6534 Q221.3438,781.3409 222.2656,781.6847 Q223.1875,782.0284 224.0781,782.0284 Q224.9844,782.0284 225.4844,781.6222 Q225.9844,781.2003 225.9844,780.4659 Q225.9844,779.9034 225.6406,779.4972 Q225.3125,779.0753 224.6875,778.8253 L223.4844,778.3722 Z " fill="#000000"/><text fill="#000000" font-family="sans-serif" font-size="12" font-style="italic" lengthAdjust="spacing" textLength="72" x="296" y="773.8155">&#171;Standard&#187;</text><text fill="#0A2A61" font-family="sans-serif" font-size="14" lengthAdjust="spacing" textLength="188" x="238" y="789.6407">Verifiable credentials (W3C)</text><line style="stroke:#181818;stroke-width:0.5;" x1="210" x2="428" y1="797.9425" y2="797.9425"/><a href="https://www.w3.org/TR/vc-data-model/" target="_top" title="https://www.w3.org/TR/vc-data-model/" xlink:actuate="onRequest" xlink:href="https://www.w3.org/TR/vc-data-model/" xlink:show="new" xlink:title="https://www.w3.org/TR/vc-data-model/" xlink:type="simple"><text fill="#F5665D" font-family="sans-serif" font-size="14" lengthAdjust="spacing" text-decoration="underline" textLength="72" x="215" y="814.9376">VC at W3C</text></a></g><!--class Linked Data--><g id="elem_Linked Data"><rect codeLine="80" fill="#ECF6F4" height="64.5625" id="Linked Data" rx="2.5" ry="2.5" style="stroke:#181818;stroke-width:0.5;" width="113" x="81.5" y="899.2369"/><ellipse cx="96.5" cy="919.3697" fill="#55D9D6" rx="11" ry="11" style="stroke:#181818;stroke-width:1.0;"/><path d="M95.9844,919.9322 Q94.125,919.2291 93.4688,918.4634 Q92.8281,917.6822 92.8281,916.3697 Q92.8281,914.6822 93.9063,913.7134 Q94.9844,912.7447 96.8594,912.7447 Q97.7188,912.7447 98.5625,912.9478 Q99.4219,913.1353 100.2656,913.5259 L100.2656,915.9166 Q99.4844,915.3541 98.6563,915.0728 Q97.8438,914.7759 97.0469,914.7759 Q96.1719,914.7759 95.6875,915.1353 Q95.2188,915.4947 95.2188,916.1509 Q95.2188,916.6666 95.5625,917.0103 Q95.9063,917.3384 97,917.7447 L98.0625,918.1509 Q99.5469,918.6978 100.25,919.6041 Q100.9688,920.5103 100.9688,921.8853 Q100.9688,923.7603 99.8594,924.6822 Q98.75,925.6041 96.5,925.6041 Q95.5781,925.6041 94.6563,925.3853 Q93.7344,925.1666 92.875,924.7447 L92.875,922.2134 Q93.8438,922.9009 94.7656,923.2447 Q95.6875,923.5884 96.5781,923.5884 Q97.4844,923.5884 97.9844,923.1822 Q98.4844,922.7603 98.4844,922.0259 Q98.4844,921.4634 98.1406,921.0572 Q97.8125,920.6353 97.1875,920.3853 L95.9844,919.9322 Z " fill="#000000"/><text fill="#000000" font-family="sans-serif" font-size="12" font-style="italic" lengthAdjust="spacing" textLength="72" x="115" y="915.3755">&#171;Standard&#187;</text><text fill="#0A2A61" font-family="sans-serif" font-size="14" lengthAdjust="spacing" textLength="81" x="110.5" y="931.2007">Linked Data</text><line style="stroke:#181818;stroke-width:0.5;" x1="82.5" x2="193.5" y1="939.5025" y2="939.5025"/><a href="https://www.w3.org/TR/ldp/" target="_top" title="https://www.w3.org/TR/ldp/" xlink:actuate="onRequest" xlink:href="https://www.w3.org/TR/ldp/" xlink:show="new" xlink:title="https://www.w3.org/TR/ldp/" xlink:type="simple"><text fill="#F5665D" font-family="sans-serif" font-size="14" lengthAdjust="spacing" text-decoration="underline" textLength="71" x="87.5" y="956.4976">LD at W3C</text></a></g><!--class Schema org--><g id="elem_Schema org"><rect codeLine="84" fill="#ECF6F4" height="64.5625" id="Schema org" rx="2.5" ry="2.5" style="stroke:#181818;stroke-width:0.5;" width="115" x="487.5" y="757.6769"/><ellipse cx="502.5" cy="777.8097" fill="#55D9D6" rx="11" ry="11" style="stroke:#181818;stroke-width:1.0;"/><path d="M501.9844,778.3722 Q500.125,777.6691 499.4688,776.9034 Q498.8281,776.1222 498.8281,774.8097 Q498.8281,773.1222 499.9063,772.1534 Q500.9844,771.1847 502.8594,771.1847 Q503.7188,771.1847 504.5625,771.3878 Q505.4219,771.5753 506.2656,771.9659 L506.2656,774.3566 Q505.4844,773.7941 504.6563,773.5128 Q503.8438,773.2159 503.0469,773.2159 Q502.1719,773.2159 501.6875,773.5753 Q501.2188,773.9347 501.2188,774.5909 Q501.2188,775.1066 501.5625,775.4503 Q501.9063,775.7784 503,776.1847 L504.0625,776.5909 Q505.5469,777.1378 506.25,778.0441 Q506.9688,778.9503 506.9688,780.3253 Q506.9688,782.2003 505.8594,783.1222 Q504.75,784.0441 502.5,784.0441 Q501.5781,784.0441 500.6563,783.8253 Q499.7344,783.6066 498.875,783.1847 L498.875,780.6534 Q499.8438,781.3409 500.7656,781.6847 Q501.6875,782.0284 502.5781,782.0284 Q503.4844,782.0284 503.9844,781.6222 Q504.4844,781.2003 504.4844,780.4659 Q504.4844,779.9034 504.1406,779.4972 Q503.8125,779.0753 503.1875,778.8253 L501.9844,778.3722 Z " fill="#000000"/><text fill="#000000" font-family="sans-serif" font-size="12" font-style="italic" lengthAdjust="spacing" textLength="72" x="522" y="773.8155">&#171;Standard&#187;</text><text fill="#0A2A61" font-family="sans-serif" font-size="14" lengthAdjust="spacing" textLength="83" x="516.5" y="789.6407">Schema org</text><line style="stroke:#181818;stroke-width:0.5;" x1="488.5" x2="601.5" y1="797.9425" y2="797.9425"/><a href="https://schema.org/docs/schemas.html" target="_top" title="https://schema.org/docs/schemas.html" xlink:actuate="onRequest" xlink:href="https://schema.org/docs/schemas.html" xlink:show="new" xlink:title="https://schema.org/docs/schemas.html" xlink:type="simple"><text fill="#F5665D" font-family="sans-serif" font-size="14" lengthAdjust="spacing" text-decoration="underline" textLength="63" x="493.5" y="814.9376">schemas</text></a></g><!--class 1EdTech Consortium--><g id="elem_1EdTech Consortium"><rect codeLine="92" fill="#ECF6F4" height="40.2656" id="1EdTech Consortium" rx="2.5" ry="2.5" style="stroke:#181818;stroke-width:0.5;" width="178" x="867" y="174.8269"/><ellipse cx="882" cy="194.9597" fill="#D99B55" rx="11" ry="11" style="stroke:#181818;stroke-width:1.0;"/><path d="M882.1094,190.5378 Q881.1719,190.5378 880.7344,191.5378 Q880.3125,192.5378 880.3125,194.7722 Q880.3125,197.0066 880.7344,198.0066 Q881.1719,199.0066 882.1094,199.0066 Q883.0625,199.0066 883.4844,198.0066 Q883.9219,197.0066 883.9219,194.7722 Q883.9219,192.5378 883.4844,191.5378 Q883.0625,190.5378 882.1094,190.5378 Z M877.7656,194.7722 Q877.7656,191.6003 878.8594,189.9753 Q879.9688,188.3347 882.1094,188.3347 Q884.2656,188.3347 885.3594,189.9753 Q886.4688,191.6003 886.4688,194.7722 Q886.4688,197.9441 885.3594,199.5691 Q884.2656,201.1941 882.1094,201.1941 Q879.9688,201.1941 878.8594,199.5691 Q877.7656,197.9441 877.7656,194.7722 Z " fill="#000000"/><text fill="#000000" font-family="sans-serif" font-size="12" font-style="italic" lengthAdjust="spacing" textLength="92" x="923" y="190.9655">&#171;Organization&#187;</text><text fill="#0A2A61" font-family="sans-serif" font-size="14" lengthAdjust="spacing" textLength="146" x="896" y="206.7907">1EdTech Consortium</text></g><!--class Open Badges--><g id="elem_Open Badges"><rect codeLine="94" fill="#ECF6F4" height="64.5625" id="Open Badges" rx="2.5" ry="2.5" style="stroke:#181818;stroke-width:0.5;" width="127" x="514.5" y="616.1069"/><ellipse cx="529.5" cy="636.2397" fill="#55D9D6" rx="11" ry="11" style="stroke:#181818;stroke-width:1.0;"/><path d="M528.9844,636.8022 Q527.125,636.0991 526.4688,635.3334 Q525.8281,634.5522 525.8281,633.2397 Q525.8281,631.5522 526.9063,630.5834 Q527.9844,629.6147 529.8594,629.6147 Q530.7188,629.6147 531.5625,629.8178 Q532.4219,630.0053 533.2656,630.3959 L533.2656,632.7866 Q532.4844,632.2241 531.6563,631.9428 Q530.8438,631.6459 530.0469,631.6459 Q529.1719,631.6459 528.6875,632.0053 Q528.2188,632.3647 528.2188,633.0209 Q528.2188,633.5366 528.5625,633.8803 Q528.9063,634.2084 530,634.6147 L531.0625,635.0209 Q532.5469,635.5678 533.25,636.4741 Q533.9688,637.3803 533.9688,638.7553 Q533.9688,640.6303 532.8594,641.5522 Q531.75,642.4741 529.5,642.4741 Q528.5781,642.4741 527.6563,642.2553 Q526.7344,642.0366 525.875,641.6147 L525.875,639.0834 Q526.8438,639.7709 527.7656,640.1147 Q528.6875,640.4584 529.5781,640.4584 Q530.4844,640.4584 530.9844,640.0522 Q531.4844,639.6303 531.4844,638.8959 Q531.4844,638.3334 531.1406,637.9272 Q530.8125,637.5053 530.1875,637.2553 L528.9844,636.8022 Z " fill="#000000"/><text fill="#000000" font-family="sans-serif" font-size="12" font-style="italic" lengthAdjust="spacing" textLength="72" x="555" y="632.2455">&#171;Standard&#187;</text><text fill="#0A2A61" font-family="sans-serif" font-size="14" lengthAdjust="spacing" textLength="95" x="543.5" y="648.0707">Open Badges</text><line style="stroke:#181818;stroke-width:0.5;" x1="515.5" x2="640.5" y1="656.3725" y2="656.3725"/><a href="https://www.1edtech.org/standards/open-badges" target="_top" title="https://www.1edtech.org/standards/open-badges" xlink:actuate="onRequest" xlink:href="https://www.1edtech.org/standards/open-badges" xlink:show="new" xlink:title="https://www.1edtech.org/standards/open-badges" xlink:type="simple"><text fill="#F5665D" font-family="sans-serif" font-size="14" lengthAdjust="spacing" text-decoration="underline" textLength="100" x="520.5" y="673.3676">OB at 1edtech</text></a></g><!--class Comprehensive\nLearner Record (CLR)--><g id="elem_Comprehensive\nLearner Record (CLR)"><rect codeLine="104" fill="#ECF6F4" height="80.8594" id="Comprehensive\nLearner Record (CLR)" rx="2.5" ry="2.5" style="stroke:#181818;stroke-width:0.5;" width="179" x="329.5" y="300.2469"/><ellipse cx="344.5" cy="328.5281" fill="#55D9D6" rx="11" ry="11" style="stroke:#181818;stroke-width:1.0;"/><path d="M343.9844,329.0906 Q342.125,328.3875 341.4688,327.6219 Q340.8281,326.8406 340.8281,325.5281 Q340.8281,323.8406 341.9063,322.8719 Q342.9844,321.9031 344.8594,321.9031 Q345.7188,321.9031 346.5625,322.1063 Q347.4219,322.2938 348.2656,322.6844 L348.2656,325.075 Q347.4844,324.5125 346.6563,324.2313 Q345.8438,323.9344 345.0469,323.9344 Q344.1719,323.9344 343.6875,324.2938 Q343.2188,324.6531 343.2188,325.3094 Q343.2188,325.825 343.5625,326.1688 Q343.9063,326.4969 345,326.9031 L346.0625,327.3094 Q347.5469,327.8563 348.25,328.7625 Q348.9688,329.6688 348.9688,331.0438 Q348.9688,332.9188 347.8594,333.8406 Q346.75,334.7625 344.5,334.7625 Q343.5781,334.7625 342.6563,334.5438 Q341.7344,334.325 340.875,333.9031 L340.875,331.3719 Q341.8438,332.0594 342.7656,332.4031 Q343.6875,332.7469 344.5781,332.7469 Q345.4844,332.7469 345.9844,332.3406 Q346.4844,331.9188 346.4844,331.1844 Q346.4844,330.6219 346.1406,330.2156 Q345.8125,329.7938 345.1875,329.5438 L343.9844,329.0906 Z " fill="#000000"/><text fill="#000000" font-family="sans-serif" font-size="12" font-style="italic" lengthAdjust="spacing" textLength="72" x="396" y="316.3855">&#171;Standard&#187;</text><text fill="#0A2A61" font-family="sans-serif" font-size="14" lengthAdjust="spacing" textLength="109" x="377.5" y="332.2107">Comprehensive</text><text fill="#0A2A61" font-family="sans-serif" font-size="14" lengthAdjust="spacing" textLength="147" x="358.5" y="348.5076">Learner Record (CLR)</text><line style="stroke:#181818;stroke-width:0.5;" x1="330.5" x2="507.5" y1="356.8094" y2="356.8094"/><a href="https://www.1edtech.org/standards/clr" target="_top" title="https://www.1edtech.org/standards/clr" xlink:actuate="onRequest" xlink:href="https://www.1edtech.org/standards/clr" xlink:show="new" xlink:title="https://www.1edtech.org/standards/clr" xlink:type="simple"><text fill="#F5665D" font-family="sans-serif" font-size="14" lengthAdjust="spacing" text-decoration="underline" textLength="106" x="335.5" y="373.8045">CLR at 1edtech</text></a></g><!--class Credential Engine--><g id="elem_Credential Engine"><rect codeLine="113" fill="#ECF6F4" height="64.5625" id="Credential Engine" rx="2.5" ry="2.5" style="stroke:#181818;stroke-width:0.5;" width="211" x="83.5" y="308.3869"/><ellipse cx="124.15" cy="328.5197" fill="#D99B55" rx="11" ry="11" style="stroke:#181818;stroke-width:1.0;"/><path d="M124.2594,324.0978 Q123.3219,324.0978 122.8844,325.0978 Q122.4625,326.0978 122.4625,328.3322 Q122.4625,330.5666 122.8844,331.5666 Q123.3219,332.5666 124.2594,332.5666 Q125.2125,332.5666 125.6344,331.5666 Q126.0719,330.5666 126.0719,328.3322 Q126.0719,326.0978 125.6344,325.0978 Q125.2125,324.0978 124.2594,324.0978 Z M119.9156,328.3322 Q119.9156,325.1603 121.0094,323.5353 Q122.1188,321.8947 124.2594,321.8947 Q126.4156,321.8947 127.5094,323.5353 Q128.6188,325.1603 128.6188,328.3322 Q128.6188,331.5041 127.5094,333.1291 Q126.4156,334.7541 124.2594,334.7541 Q122.1188,334.7541 121.0094,333.1291 Q119.9156,331.5041 119.9156,328.3322 Z " fill="#000000"/><text fill="#000000" font-family="sans-serif" font-size="12" font-style="italic" lengthAdjust="spacing" textLength="92" x="158.85" y="324.5255">&#171;Organization&#187;</text><text fill="#0A2A61" font-family="sans-serif" font-size="14" lengthAdjust="spacing" textLength="122" x="143.85" y="340.3507">Credential Engine</text><line style="stroke:#181818;stroke-width:0.5;" x1="84.5" x2="293.5" y1="348.6525" y2="348.6525"/><text fill="#000000" font-family="sans-serif" font-size="14" lengthAdjust="spacing" textLength="199" x="89.5" y="365.6476">https://credentialengine.org/</text></g><!--class Credential Transparency\nDescription Language (CTDL)--><g id="elem_Credential Transparency\nDescription Language (CTDL)"><rect codeLine="116" fill="#ECF6F4" height="56.5625" id="Credential Transparency\nDescription Language (CTDL)" rx="2.5" ry="2.5" style="stroke:#181818;stroke-width:0.5;" width="234" x="162" y="474.3969"/><ellipse cx="177" cy="502.6781" fill="#55D9D6" rx="11" ry="11" style="stroke:#181818;stroke-width:1.0;"/><path d="M176.4844,503.2406 Q174.625,502.5375 173.9688,501.7719 Q173.3281,500.9906 173.3281,499.6781 Q173.3281,497.9906 174.4063,497.0219 Q175.4844,496.0531 177.3594,496.0531 Q178.2188,496.0531 179.0625,496.2563 Q179.9219,496.4438 180.7656,496.8344 L180.7656,499.225 Q179.9844,498.6625 179.1563,498.3813 Q178.3438,498.0844 177.5469,498.0844 Q176.6719,498.0844 176.1875,498.4438 Q175.7188,498.8031 175.7188,499.4594 Q175.7188,499.975 176.0625,500.3188 Q176.4063,500.6469 177.5,501.0531 L178.5625,501.4594 Q180.0469,502.0063 180.75,502.9125 Q181.4688,503.8188 181.4688,505.1938 Q181.4688,507.0688 180.3594,507.9906 Q179.25,508.9125 177,508.9125 Q176.0781,508.9125 175.1563,508.6938 Q174.2344,508.475 173.375,508.0531 L173.375,505.5219 Q174.3438,506.2094 175.2656,506.5531 Q176.1875,506.8969 177.0781,506.8969 Q177.9844,506.8969 178.4844,506.4906 Q178.9844,506.0688 178.9844,505.3344 Q178.9844,504.7719 178.6406,504.3656 Q178.3125,503.9438 177.6875,503.6938 L176.4844,503.2406 Z " fill="#000000"/><text fill="#000000" font-family="sans-serif" font-size="12" font-style="italic" lengthAdjust="spacing" textLength="72" x="256" y="490.5355">&#171;Standard&#187;</text><text fill="#0A2A61" font-family="sans-serif" font-size="14" lengthAdjust="spacing" textLength="168" x="208" y="506.3607">Credential Transparency</text><text fill="#0A2A61" font-family="sans-serif" font-size="14" lengthAdjust="spacing" textLength="202" x="191" y="522.6576">Description Language (CTDL)</text></g><!--class Badge Connect? API--><g id="elem_Badge Connect&#174; API"><rect codeLine="122" fill="#ECF6F4" height="64.5625" id="Badge Connect&#174; API" rx="2.5" ry="2.5" style="stroke:#181818;stroke-width:0.5;" width="179" x="501.5" y="470.3969"/><ellipse cx="516.5" cy="490.5297" fill="#55D9D6" rx="11" ry="11" style="stroke:#181818;stroke-width:1.0;"/><path d="M515.9844,491.0922 Q514.125,490.3891 513.4688,489.6234 Q512.8281,488.8422 512.8281,487.5297 Q512.8281,485.8422 513.9063,484.8734 Q514.9844,483.9047 516.8594,483.9047 Q517.7188,483.9047 518.5625,484.1078 Q519.4219,484.2953 520.2656,484.6859 L520.2656,487.0766 Q519.4844,486.5141 518.6563,486.2328 Q517.8438,485.9359 517.0469,485.9359 Q516.1719,485.9359 515.6875,486.2953 Q515.2188,486.6547 515.2188,487.3109 Q515.2188,487.8266 515.5625,488.1703 Q515.9063,488.4984 517,488.9047 L518.0625,489.3109 Q519.5469,489.8578 520.25,490.7641 Q520.9688,491.6703 520.9688,493.0453 Q520.9688,494.9203 519.8594,495.8422 Q518.75,496.7641 516.5,496.7641 Q515.5781,496.7641 514.6563,496.5453 Q513.7344,496.3266 512.875,495.9047 L512.875,493.3734 Q513.8438,494.0609 514.7656,494.4047 Q515.6875,494.7484 516.5781,494.7484 Q517.4844,494.7484 517.9844,494.3422 Q518.4844,493.9203 518.4844,493.1859 Q518.4844,492.6234 518.1406,492.2172 Q517.8125,491.7953 517.1875,491.5453 L515.9844,491.0922 Z " fill="#000000"/><text fill="#000000" font-family="sans-serif" font-size="12" font-style="italic" lengthAdjust="spacing" textLength="72" x="568" y="486.5355">&#171;Standard&#187;</text><text fill="#0A2A61" font-family="sans-serif" font-size="14" lengthAdjust="spacing" textLength="147" x="530.5" y="502.3607">Badge Connect&#174; API</text><line style="stroke:#181818;stroke-width:0.5;" x1="502.5" x2="679.5" y1="510.6625" y2="510.6625"/><text fill="#000000" font-family="sans-serif" font-size="14" lengthAdjust="spacing" textLength="26" x="507.5" y="527.6576">see</text><a href="https://www.imsglobal.org/spec/ob/v2p1/" target="_top" title="https://www.imsglobal.org/spec/ob/v2p1/" xlink:actuate="onRequest" xlink:href="https://www.imsglobal.org/spec/ob/v2p1/" xlink:show="new" xlink:title="https://www.imsglobal.org/spec/ob/v2p1/" xlink:type="simple"><text fill="#F5665D" font-family="sans-serif" font-size="14" lengthAdjust="spacing" text-decoration="underline" textLength="121" x="537.5" y="527.6576">Open Badges 2.1</text></a></g><!--class TrustEd\nMicrocredential\nFramework--><g id="elem_TrustEd\nMicrocredential\nFramework"><rect codeLine="127" fill="#ECF6F4" height="72.8594" id="TrustEd\nMicrocredential\nFramework" rx="2.5" ry="2.5" style="stroke:#181818;stroke-width:0.5;" width="137" x="715.5" y="466.2469"/><ellipse cx="730.5" cy="502.6766" fill="#55D9D6" rx="11" ry="11" style="stroke:#181818;stroke-width:1.0;"/><path d="M729.9844,503.2391 Q728.125,502.5359 727.4688,501.7703 Q726.8281,500.9891 726.8281,499.6766 Q726.8281,497.9891 727.9063,497.0203 Q728.9844,496.0516 730.8594,496.0516 Q731.7188,496.0516 732.5625,496.2547 Q733.4219,496.4422 734.2656,496.8328 L734.2656,499.2234 Q733.4844,498.6609 732.6563,498.3797 Q731.8438,498.0828 731.0469,498.0828 Q730.1719,498.0828 729.6875,498.4422 Q729.2188,498.8016 729.2188,499.4578 Q729.2188,499.9734 729.5625,500.3172 Q729.9063,500.6453 731,501.0516 L732.0625,501.4578 Q733.5469,502.0047 734.25,502.9109 Q734.9688,503.8172 734.9688,505.1922 Q734.9688,507.0672 733.8594,507.9891 Q732.75,508.9109 730.5,508.9109 Q729.5781,508.9109 728.6563,508.6922 Q727.7344,508.4734 726.875,508.0516 L726.875,505.5203 Q727.8438,506.2078 728.7656,506.5516 Q729.6875,506.8953 730.5781,506.8953 Q731.4844,506.8953 731.9844,506.4891 Q732.4844,506.0672 732.4844,505.3328 Q732.4844,504.7703 732.1406,504.3641 Q731.8125,503.9422 731.1875,503.6922 L729.9844,503.2391 Z " fill="#000000"/><text fill="#000000" font-family="sans-serif" font-size="12" font-style="italic" lengthAdjust="spacing" textLength="72" x="761" y="482.3855">&#171;Standard&#187;</text><text fill="#0A2A61" font-family="sans-serif" font-size="14" lengthAdjust="spacing" textLength="54" x="770" y="498.2107">TrustEd</text><text fill="#0A2A61" font-family="sans-serif" font-size="14" lengthAdjust="spacing" textLength="105" x="744.5" y="514.5076">Microcredential</text><text fill="#0A2A61" font-family="sans-serif" font-size="14" lengthAdjust="spacing" textLength="76" x="759" y="530.8045">Framework</text></g><!--class TrustEd\nMicrocredential\nKnowledge--><g id="elem_TrustEd\nMicrocredential\nKnowledge"><rect codeLine="129" fill="#ECF6F4" height="72.8594" id="TrustEd\nMicrocredential\nKnowledge" rx="2.5" ry="2.5" style="stroke:#181818;stroke-width:0.5;" width="137" x="715.5" y="304.2469"/><ellipse cx="730.5" cy="340.6766" fill="#55D9D6" rx="11" ry="11" style="stroke:#181818;stroke-width:1.0;"/><path d="M729.9844,341.2391 Q728.125,340.5359 727.4688,339.7703 Q726.8281,338.9891 726.8281,337.6766 Q726.8281,335.9891 727.9063,335.0203 Q728.9844,334.0516 730.8594,334.0516 Q731.7188,334.0516 732.5625,334.2547 Q733.4219,334.4422 734.2656,334.8328 L734.2656,337.2234 Q733.4844,336.6609 732.6563,336.3797 Q731.8438,336.0828 731.0469,336.0828 Q730.1719,336.0828 729.6875,336.4422 Q729.2188,336.8016 729.2188,337.4578 Q729.2188,337.9734 729.5625,338.3172 Q729.9063,338.6453 731,339.0516 L732.0625,339.4578 Q733.5469,340.0047 734.25,340.9109 Q734.9688,341.8172 734.9688,343.1922 Q734.9688,345.0672 733.8594,345.9891 Q732.75,346.9109 730.5,346.9109 Q729.5781,346.9109 728.6563,346.6922 Q727.7344,346.4734 726.875,346.0516 L726.875,343.5203 Q727.8438,344.2078 728.7656,344.5516 Q729.6875,344.8953 730.5781,344.8953 Q731.4844,344.8953 731.9844,344.4891 Q732.4844,344.0672 732.4844,343.3328 Q732.4844,342.7703 732.1406,342.3641 Q731.8125,341.9422 731.1875,341.6922 L729.9844,341.2391 Z " fill="#000000"/><text fill="#000000" font-family="sans-serif" font-size="12" font-style="italic" lengthAdjust="spacing" textLength="72" x="761" y="320.3855">&#171;Standard&#187;</text><text fill="#0A2A61" font-family="sans-serif" font-size="14" lengthAdjust="spacing" textLength="54" x="770" y="336.2107">TrustEd</text><text fill="#0A2A61" font-family="sans-serif" font-size="14" lengthAdjust="spacing" textLength="105" x="744.5" y="352.5076">Microcredential</text><text fill="#0A2A61" font-family="sans-serif" font-size="14" lengthAdjust="spacing" textLength="77" x="758.5" y="368.8045">Knowledge</text></g><!--class TrustEd\nMicrocredential\nApplication--><g id="elem_TrustEd\nMicrocredential\nApplication"><rect codeLine="130" fill="#ECF6F4" height="72.8594" id="TrustEd\nMicrocredential\nApplication" rx="2.5" ry="2.5" style="stroke:#181818;stroke-width:0.5;" width="137" x="543.5" y="304.2469"/><ellipse cx="558.5" cy="340.6766" fill="#55D9D6" rx="11" ry="11" style="stroke:#181818;stroke-width:1.0;"/><path d="M557.9844,341.2391 Q556.125,340.5359 555.4688,339.7703 Q554.8281,338.9891 554.8281,337.6766 Q554.8281,335.9891 555.9063,335.0203 Q556.9844,334.0516 558.8594,334.0516 Q559.7188,334.0516 560.5625,334.2547 Q561.4219,334.4422 562.2656,334.8328 L562.2656,337.2234 Q561.4844,336.6609 560.6563,336.3797 Q559.8438,336.0828 559.0469,336.0828 Q558.1719,336.0828 557.6875,336.4422 Q557.2188,336.8016 557.2188,337.4578 Q557.2188,337.9734 557.5625,338.3172 Q557.9063,338.6453 559,339.0516 L560.0625,339.4578 Q561.5469,340.0047 562.25,340.9109 Q562.9688,341.8172 562.9688,343.1922 Q562.9688,345.0672 561.8594,345.9891 Q560.75,346.9109 558.5,346.9109 Q557.5781,346.9109 556.6563,346.6922 Q555.7344,346.4734 554.875,346.0516 L554.875,343.5203 Q555.8438,344.2078 556.7656,344.5516 Q557.6875,344.8953 558.5781,344.8953 Q559.4844,344.8953 559.9844,344.4891 Q560.4844,344.0672 560.4844,343.3328 Q560.4844,342.7703 560.1406,342.3641 Q559.8125,341.9422 559.1875,341.6922 L557.9844,341.2391 Z " fill="#000000"/><text fill="#000000" font-family="sans-serif" font-size="12" font-style="italic" lengthAdjust="spacing" textLength="72" x="589" y="320.3855">&#171;Standard&#187;</text><text fill="#0A2A61" font-family="sans-serif" font-size="14" lengthAdjust="spacing" textLength="54" x="598" y="336.2107">TrustEd</text><text fill="#0A2A61" font-family="sans-serif" font-size="14" lengthAdjust="spacing" textLength="105" x="572.5" y="352.5076">Microcredential</text><text fill="#0A2A61" font-family="sans-serif" font-size="14" lengthAdjust="spacing" textLength="75" x="587.5" y="368.8045">Application</text></g><!--class TrustEd\nMicrocredential\nCoalition--><g id="elem_TrustEd\nMicrocredential\nCoalition"><rect codeLine="134" fill="#ECF6F4" height="97.1563" id="TrustEd\nMicrocredential\nCoalition" rx="2.5" ry="2.5" style="stroke:#181818;stroke-width:0.5;" width="137" x="887.5" y="292.0969"/><ellipse cx="902.5" cy="328.5266" fill="#D99B55" rx="11" ry="11" style="stroke:#181818;stroke-width:1.0;"/><path d="M902.6094,324.1047 Q901.6719,324.1047 901.2344,325.1047 Q900.8125,326.1047 900.8125,328.3391 Q900.8125,330.5734 901.2344,331.5734 Q901.6719,332.5734 902.6094,332.5734 Q903.5625,332.5734 903.9844,331.5734 Q904.4219,330.5734 904.4219,328.3391 Q904.4219,326.1047 903.9844,325.1047 Q903.5625,324.1047 902.6094,324.1047 Z M898.2656,328.3391 Q898.2656,325.1672 899.3594,323.5422 Q900.4688,321.9016 902.6094,321.9016 Q904.7656,321.9016 905.8594,323.5422 Q906.9688,325.1672 906.9688,328.3391 Q906.9688,331.5109 905.8594,333.1359 Q904.7656,334.7609 902.6094,334.7609 Q900.4688,334.7609 899.3594,333.1359 Q898.2656,331.5109 898.2656,328.3391 Z " fill="#000000"/><text fill="#000000" font-family="sans-serif" font-size="12" font-style="italic" lengthAdjust="spacing" textLength="92" x="923" y="308.2355">&#171;Organization&#187;</text><text fill="#0A2A61" font-family="sans-serif" font-size="14" lengthAdjust="spacing" textLength="54" x="942" y="324.0607">TrustEd</text><text fill="#0A2A61" font-family="sans-serif" font-size="14" lengthAdjust="spacing" textLength="105" x="916.5" y="340.3576">Microcredential</text><text fill="#0A2A61" font-family="sans-serif" font-size="14" lengthAdjust="spacing" textLength="59" x="939.5" y="356.6545">Coalition</text><line style="stroke:#181818;stroke-width:0.5;" x1="888.5" x2="1023.5" y1="364.9562" y2="364.9562"/><a href="https://www.1edtech.org/program/tmc" target="_top" title="https://www.1edtech.org/program/tmc" xlink:actuate="onRequest" xlink:href="https://www.1edtech.org/program/tmc" xlink:show="new" xlink:title="https://www.1edtech.org/program/tmc" xlink:type="simple"><text fill="#F5665D" font-family="sans-serif" font-size="14" lengthAdjust="spacing" text-decoration="underline" textLength="110" x="893.5" y="381.9514">TMC at 1edtech</text></a></g><g id="elem_version"><path d="M1324.5,43.2969 L1324.5,113.8281 L1571.5,113.8281 L1571.5,53.2969 L1561.5,43.2969 L1324.5,43.2969 " fill="#F5EDA8" style="stroke:#D99B55;stroke-width:0.5;"/><path d="M1561.5,43.2969 L1561.5,53.2969 L1571.5,53.2969 L1561.5,43.2969 " fill="#F5EDA8" style="stroke:#D99B55;stroke-width:1.0;"/><text fill="#0A2A61" font-family="sans-serif" font-size="13" lengthAdjust="spacing" textLength="177" x="1330.5" y="60.3638">Next generation credentials</text><text fill="#0A2A61" font-family="sans-serif" font-size="13" lengthAdjust="spacing" textLength="226" x="1330.5" y="75.4966">Last modified: 2024/05/24 18:53:54</text><text fill="#0A2A61" font-family="sans-serif" font-size="13" lengthAdjust="spacing" textLength="88" x="1330.5" y="90.6294">See readings:</text><text fill="#0A2A61" font-family="sans-serif" font-size="13" lengthAdjust="spacing" textLength="172" x="1330.5" y="105.7622">https://bit.ly/NextGenCreds</text></g><g id="elem_GMN35"><path d="M622.5,50.8669 L622.5,106.2653 A0,0 0 0 0 622.5,106.2653 L952,106.2653 L956,174.5569 L960,106.2653 L1289.5,106.2653 A0,0 0 0 0 1289.5,106.2653 L1289.5,60.8669 L1279.5,50.8669 L622.5,50.8669 A0,0 0 0 0 622.5,50.8669 " fill="#F5EDA8" style="stroke:#D99B55;stroke-width:0.5;"/><path d="M1279.5,50.8669 L1279.5,60.8669 L1289.5,60.8669 L1279.5,50.8669 " fill="#F5EDA8" style="stroke:#D99B55;stroke-width:0.5;"/><text fill="#0A2A61" font-family="sans-serif" font-size="13" lengthAdjust="spacing" textLength="561" x="628.5" y="67.9338">R. Coyle, &#8220;Clarifying Credentials: What&#8217;s the Difference Between CLRs, LERs and Wallets?</text><text fill="#0A2A61" font-family="sans-serif" font-size="13" lengthAdjust="spacing" textLength="359" x="628.5" y="83.0666">| 1EdTech.&#8221; Accessed: May 22, 2024. [Online]. Available:</text><a href="https://www.1edtech.org/blog/clarifying-credentials-whats-the-difference-between-clrs-lers-and-wallets" target="_top" title="https://www.1edtech.org/blog/clarifying-credentials-whats-the-difference-between-clrs-lers-and-wallets" xlink:actuate="onRequest" xlink:href="https://www.1edtech.org/blog/clarifying-credentials-whats-the-difference-between-clrs-lers-and-wallets" xlink:show="new" xlink:title="https://www.1edtech.org/blog/clarifying-credentials-whats-the-difference-between-clrs-lers-and-wallets" xlink:type="simple"><text fill="#F5665D" font-family="sans-serif" font-size="13" lengthAdjust="spacing" text-decoration="underline" textLength="646" x="628.5" y="98.1994">https://www.1edtech.org/blog/clarifying-credentials-whats-the-difference-between-clrs-lers-and-wallets</text></a></g><!--link W3C to Verifiable credentials WG--><g id="link_W3C_Verifiable credentials WG"><path codeLine="62" d="M97.21,523.0569 C134.23,546.8169 192.41,584.1368 236.55,612.4568 " fill="none" id="W3C-to-Verifiable credentials WG" style="stroke:#0A2A61;stroke-width:1.0;stroke-dasharray:7.0,7.0;"/><polygon fill="#0A2A61" points="241.6,615.6969,236.1851,607.4702,237.3917,612.9968,231.865,614.2035,241.6,615.6969" style="stroke:#0A2A61;stroke-width:1.0;"/><text fill="#0A2A61" font-family="sans-serif" font-size="13" lengthAdjust="spacing" textLength="75" x="194" y="582.1738">coordinates</text></g><!--link Verifiable credentials WG to Verifiable credentials (W3C)--><g id="link_Verifiable credentials WG_Verifiable credentials (W3C)"><path codeLine="68" d="M297.35,681.0569 C301.94,703.8969 306.9088,728.7143 311.4888,751.5243 " fill="none" id="Verifiable credentials WG-to-Verifiable credentials (W3C)" style="stroke:#0A2A61;stroke-width:1.0;stroke-dasharray:7.0,7.0;"/><polygon fill="#0A2A61" points="312.67,757.4069,314.82,747.7956,311.6857,752.5047,306.9765,749.3704,312.67,757.4069" style="stroke:#0A2A61;stroke-width:1.0;"/><text fill="#0A2A61" font-family="sans-serif" font-size="13" lengthAdjust="spacing" textLength="63" x="308" y="723.7438">maintains</text></g><!--link W3C to Linked Data--><g id="link_W3C_Linked Data"><path codeLine="83" d="M70.24,523.1269 C81.47,590.6469 117.8552,809.4182 131.7552,892.9582 " fill="none" id="W3C-to-Linked Data" style="stroke:#0A2A61;stroke-width:1.0;stroke-dasharray:7.0,7.0;"/><polygon fill="#0A2A61" points="132.74,898.8769,135.2086,889.3424,131.9193,893.9447,127.3171,890.6555,132.74,898.8769" style="stroke:#0A2A61;stroke-width:1.0;"/><text fill="#0A2A61" font-family="sans-serif" font-size="13" lengthAdjust="spacing" textLength="63" x="106" y="723.7438">maintains</text></g><!--link Schema org to Linked Data--><g id="link_Schema org_Linked Data"><path codeLine="87" d="M487.12,810.7969 C409.32,837.4769 277.5656,882.6606 200.3756,909.1306 " fill="none" id="Schema org-to-Linked Data" style="stroke:#0A2A61;stroke-width:1.0;stroke-dasharray:7.0,7.0;"/><polygon fill="#0A2A61" points="194.7,911.0769,204.5109,911.9412,199.4296,909.455,201.9158,904.3738,194.7,911.0769" style="stroke:#0A2A61;stroke-width:1.0;"/><text fill="#0A2A61" font-family="sans-serif" font-size="13" lengthAdjust="spacing" textLength="30" x="367" y="865.3038">uses</text></g><!--link Open Badges to Verifiable credentials (W3C)--><g id="link_Open Badges_Verifiable credentials (W3C)"><path codeLine="97" d="M519.23,681.0569 C476.84,703.8969 435.7158,726.0582 393.3858,748.8682 " fill="none" id="Open Badges-to-Verifiable credentials (W3C)" style="stroke:#0A2A61;stroke-width:1.0;"/><polygon fill="none" points="377.54,757.4069,396.2321,754.1501,390.5396,743.5862,377.54,757.4069" style="stroke:#0A2A61;stroke-width:1.0;"/></g><!--link Open Badges to Schema org--><g id="link_Open Badges_Schema org"><path codeLine="98" d="M570.51,681.0569 C565.11,703.8969 561.9894,717.0793 556.5994,739.8893 " fill="none" id="Open Badges-to-Schema org" style="stroke:#0A2A61;stroke-width:1.0;"/><polygon fill="none" points="552.46,757.4069,562.4386,741.2691,550.7602,738.5095,552.46,757.4069" style="stroke:#0A2A61;stroke-width:1.0;"/></g><!--link 1EdTech Consortium to Comprehensive\nLearner Record (CLR)--><g id="link_1EdTech Consortium_Comprehensive\nLearner Record (CLR)"><path codeLine="100" d="M866.9,210.5469 C778.96,226.1769 641.3,253.9869 526,292.0969 C518.95,294.4269 517.33,294.8769 510.15,297.6769 " fill="none" id="1EdTech Consortium-to-Comprehensive\nLearner Record (CLR)" style="stroke:#0A2A61;stroke-width:1.0;stroke-dasharray:7.0,7.0;"/><polygon fill="#0A2A61" points="504.56,299.8569,514.3983,300.3136,509.2183,298.0403,511.4917,292.8603,504.56,299.8569" style="stroke:#0A2A61;stroke-width:1.0;"/><text fill="#0A2A61" font-family="sans-serif" font-size="13" lengthAdjust="spacing" textLength="63" x="690" y="258.1638">maintains</text></g><!--link 1EdTech Consortium to Open Badges--><g id="link_1EdTech Consortium_Open Badges"><path codeLine="101" d="M1008.8,215.4969 C1021.5,222.7869 1033.54,232.4769 1041,245.0969 C1050.77,261.6169 1057.54,355.1069 1042,389.2469 C969.84,547.8269 757.1892,611.7111 647.7492,634.9411 " fill="none" id="1EdTech Consortium-to-Open Badges" style="stroke:#0A2A61;stroke-width:1.0;stroke-dasharray:7.0,7.0;"/><polygon fill="#0A2A61" points="641.88,636.1869,651.5144,638.231,646.771,635.1487,649.8533,630.4053,641.88,636.1869" style="stroke:#0A2A61;stroke-width:1.0;"/><text fill="#0A2A61" font-family="sans-serif" font-size="13" lengthAdjust="spacing" textLength="63" x="1024" y="432.3138">maintains</text></g><!--link Comprehensive\nLearner Record (CLR) to Open Badges--><g id="link_Comprehensive\nLearner Record (CLR)_Open Badges"><path codeLine="107" d="M427.18,381.4169 C436.77,422.7169 455.13,488.2769 484,539.1069 C500.23,567.6869 512.1124,582.7199 532.0224,603.0399 " fill="none" id="Comprehensive\nLearner Record (CLR)-to-Open Badges" style="stroke:#0A2A61;stroke-width:1.0;"/><polygon fill="none" points="544.62,615.8969,536.3081,598.8407,527.7368,607.2391,544.62,615.8969" style="stroke:#0A2A61;stroke-width:1.0;"/></g><!--link Credential Engine to Credential Transparency\nDescription Language (CTDL)--><g id="link_Credential Engine_Credential Transparency\nDescription Language (CTDL)"><path codeLine="117" d="M206.78,373.2869 C223.33,402.7069 244.798,440.8777 260.568,468.9077 " fill="none" id="Credential Engine-to-Credential Transparency\nDescription Language (CTDL)" style="stroke:#0A2A61;stroke-width:1.0;stroke-dasharray:7.0,7.0;"/><polygon fill="#0A2A61" points="263.51,474.1369,262.5831,464.3317,261.0583,469.7792,255.6108,468.2544,263.51,474.1369" style="stroke:#0A2A61;stroke-width:1.0;"/><text fill="#0A2A61" font-family="sans-serif" font-size="13" lengthAdjust="spacing" textLength="63" x="244" y="432.3138">maintains</text></g><!--link Comprehensive\nLearner Record (CLR) to Credential Transparency\nDescription Language (CTDL)--><g id="link_Comprehensive\nLearner Record (CLR)_Credential Transparency\nDescription Language (CTDL)"><path codeLine="118" d="M384.39,381.2269 C359.13,410.0969 337.3705,434.9582 314.9705,460.5682 " fill="none" id="Comprehensive\nLearner Record (CLR)-to-Credential Transparency\nDescription Language (CTDL)" style="stroke:#0A2A61;stroke-width:1.0;"/><polygon fill="none" points="303.12,474.1169,319.4867,464.5184,310.4542,456.618,303.12,474.1169" style="stroke:#0A2A61;stroke-width:1.0;"/></g><!--link Badge Connect? API to Open Badges--><g id="link_Badge Connect&#174; API_Open Badges"><path codeLine="125" d="M588.15,535.2169 C585.98,559.1769 584.0883,580.0354 581.9283,603.9754 " fill="none" id="Badge Connect&#174; API-to-Open Badges" style="stroke:#0A2A61;stroke-width:1.0;"/><polygon fill="#0A2A61" points="580.85,615.9269,585.373,610.3106,581.9283,603.9754,577.4053,609.5917,580.85,615.9269" style="stroke:#0A2A61;stroke-width:1.0;"/><text fill="#0A2A61" font-family="sans-serif" font-size="13" lengthAdjust="spacing" textLength="62" x="586" y="582.1738">defined in</text></g><!--link TrustEd\nMicrocredential\nFramework to Open Badges--><g id="link_TrustEd\nMicrocredential\nFramework_Open Badges"><path codeLine="128" d="M732.55,539.5769 C699.06,562.9369 670.5429,582.8285 638.3029,605.3185 " fill="none" id="TrustEd\nMicrocredential\nFramework-to-Open Badges" style="stroke:#0A2A61;stroke-width:1.0;"/><polygon fill="none" points="623.54,615.6169,641.7357,610.2395,634.8702,600.3976,623.54,615.6169" style="stroke:#0A2A61;stroke-width:1.0;"/></g><!--link TrustEd\nMicrocredential\nKnowledge to TrustEd\nMicrocredential\nFramework--><g id="link_TrustEd\nMicrocredential\nKnowledge_TrustEd\nMicrocredential\nFramework"><path codeLine="131" d="M784,377.5769 C784,403.9369 784,427.5669 784,453.8869 " fill="none" id="TrustEd\nMicrocredential\nKnowledge-to-TrustEd\nMicrocredential\nFramework" style="stroke:#0A2A61;stroke-width:1.0;"/><polygon fill="#0A2A61" points="784,465.8869,788,459.8869,784,453.8869,780,459.8869,784,465.8869" style="stroke:#0A2A61;stroke-width:1.0;"/><text fill="#0A2A61" font-family="sans-serif" font-size="13" lengthAdjust="spacing" textLength="62" x="785" y="432.3138">defined in</text></g><!--link TrustEd\nMicrocredential\nApplication to TrustEd\nMicrocredential\nFramework--><g id="link_TrustEd\nMicrocredential\nApplication_TrustEd\nMicrocredential\nFramework"><path codeLine="132" d="M649.35,377.3269 C668.07,395.1169 691.15,416.9169 712,436.2469 C722.4,445.8969 724.8496,448.1861 735.3796,457.7561 " fill="none" id="TrustEd\nMicrocredential\nApplication-to-TrustEd\nMicrocredential\nFramework" style="stroke:#0A2A61;stroke-width:1.0;"/><polygon fill="#0A2A61" points="744.26,465.8269,742.5101,458.8313,735.3796,457.7561,737.1295,464.7516,744.26,465.8269" style="stroke:#0A2A61;stroke-width:1.0;"/><text fill="#0A2A61" font-family="sans-serif" font-size="13" lengthAdjust="spacing" textLength="62" x="713" y="432.3138">defined in</text></g><!--link 1EdTech Consortium to TrustEd\nMicrocredential\nCoalition--><g id="link_1EdTech Consortium_TrustEd\nMicrocredential\nCoalition"><path codeLine="137" d="M956,215.3469 C956,234.8069 956,259.5569 956,285.6069 " fill="none" id="1EdTech Consortium-to-TrustEd\nMicrocredential\nCoalition" style="stroke:#0A2A61;stroke-width:1.0;stroke-dasharray:7.0,7.0;"/><polygon fill="#0A2A61" points="956,291.6069,960,282.6069,956,286.6069,952,282.6069,956,291.6069" style="stroke:#0A2A61;stroke-width:1.0;"/><text fill="#0A2A61" font-family="sans-serif" font-size="13" lengthAdjust="spacing" textLength="75" x="957" y="258.1638">coordinates</text></g><!--link TrustEd\nMicrocredential\nCoalition to TrustEd\nMicrocredential\nFramework--><g id="link_TrustEd\nMicrocredential\nCoalition_TrustEd\nMicrocredential\nFramework"><path codeLine="138" d="M905.57,389.7369 C889.76,404.7069 872.21,421.2269 856,436.2469 C845.6,445.8969 838.7102,452.2215 828.1802,461.7915 " fill="none" id="TrustEd\nMicrocredential\nCoalition-to-TrustEd\nMicrocredential\nFramework" style="stroke:#0A2A61;stroke-width:1.0;stroke-dasharray:7.0,7.0;"/><polygon fill="#0A2A61" points="823.74,465.8269,833.0906,462.7339,827.4402,462.464,827.71,456.8136,823.74,465.8269" style="stroke:#0A2A61;stroke-width:1.0;"/><text fill="#0A2A61" font-family="sans-serif" font-size="13" lengthAdjust="spacing" textLength="63" x="873" y="432.3138">maintains</text></g><!--SRC=[pLXTKXj747xVKtJC0v1YjKXcPTXoaGW9IChOk41bAW4_Z7ORQSgxCrip8sJvfyhNI5LoXHmYH_59qZEhdrqaG2PvC0yKEztJ_VL_3y5w5rN6XKnbVmnSWC3t1leeK373fO1OOOB2S9PgpsihP0QJ21hRZPrWEmmQEr2lHpkDgD7mJfWsaCc4N_FRBCqet8l2kkSTIGKnDqwq1YOIa6Q02X8P3pDIumXRaAV8D8961E_oTsbGIUWhESmXvJt5rFZjni2ON4T1C1gDQXySHqsgVk2uT126E_NcJZEmrf0n9ICslVN00_fPXwc8c8nNDPR87jPYcGMnix8uzaS3n1GSyUT-74-kjkntsp6yJfammoo57a5sv1yIlEO28Jz8XmYm5eQxkvszsoGMluErxLQZrQnNIQzPYiSAKS3QOVkeURHJ9Kz8OTZPwpIhfCwB2N7xMTWE3wh4KyL47s6jixTt48PLsc-Ofd84QqVXOQUrMwMTOM89pMROyRm1Jn0moyqOCinwg2Wfffo6lJyt55Ac4jWutog0RiBqhCntglgmSRermRG9zCq4_-2YN-QxaEeTR5niEKzkWljyhMGoZ8tdwNTSv4onx6CHb6auyqb0N2ndJCjv_4hYrIZm2UKZ7UeQbm6A8ALCq2QubYfZnd3H3rYQ-bQgxyJgsi1agGTEV4ifEN9PCGdm_FH82bEX57XwzATDMP4KH4CEqIIO4457YdL3bG5cm3NqC6P3gWbv3OBt1wxIi93IJfdM1xSapTF8ySIMPm64mp0ZdVCF2FNjMwUlM8RGOZc-TmJtwvTnZYhbujr46kL80UKLLU82aYAxvdIf4bGJMf41CzfoDtMvIHT9dpql-E_TAup2dQYnTr_t8fPdKNtlk-bUBZJmvE9f-mayVrwKq_w-yzGirF3a3IgoXVLIB7i1BexBbpxERjcVoyiohj7JCgPHFxY90rU2L0M5FM_Vpgv_zcP_5i1gjVrxCKGGIqe4Bco1pUwkQCG6gTYSs37jB_lxi88rtJComq-OORuje3I0DsrW1aZW7TRSOyDzDXOG8yWOfyJWGiz5_azf-pIgD-yVker6jFtqkqbRhnJN4-eTD5Sw58U5CCwZU5S4qoGFuAHJZTjdxrRoLNIK0r72SHuFC6D0Sk_BfZaExVWT3Zia9j_54839HnLFMSC2h0YefLE8NOEBuDLn6wwLpA1-c7Gn7a2R0YQLuSECngmsJ1azxD6fmcaJMEIiz8GfssbEQy41I_gex_1trTTrJ0o9TORg2QSE94dnUquAd1vOzq_uoEJFNbM9xtzwg3YMtYZvo_EMckUys9PPhd20GlCRl18do1HL3vnXBEtwqJuvgnRVtPBA62hbElNTAgeUxzCuLK0Y5fovajR2PMKBgBTutG4waRDjBCKRwYmsQbJtK6A7AGxN5MZBe9KfftPWupNYPc3vFOeLbEBOBiNHth8YvsTmAFfsUJl3FjT6ZMkkygUUlCrMpjL9lSsMyXalEbRdDdBCegZkR6UAnrUYWpfMF7Tjz8HsYo7PJUxgTauMe-GjGrIarwF4LxhCjqJmKUgy7r0ar0yyRnrio5_oMCcvswx4BBZKqZDDKqBHxgvjs-Rnr8yk3snH28pDFtz3w_MlTtL2EnYg6SqptKzbZwL5JkSO1x8Nt3JoUb39iaQjNYJrKcs-_-Ej1XL1yGIWb1IpvEcgeJQ7oPLOiFE8zd0SqMAo9C0htLfIHWygVI7aA4LYNbJwuDrMdgSyTcFtco2NT3gdhMHSnPchWdga-8TDRqkMyfBXvTA_krtcIlP9PM2o6BelsmlDSbbpBmfv5IJLLNGry0z9htXetXG4LHym3TIFjNthkdVFFSkVfT-puktQBJ0i_a5mJkLftw-qdUkeqafxtDJISM3r7AEmlKPxr3h0Wl4AI4RczcMvr95ErbcDpiOfRi7NBt_IWvF6mTY-0qhJ88AB0JDVl_nHZ9aElxv6syOG3j2CxFybgENfBJWvF2icnmKzfT7edmeDdwPRJ-thbx-W5SUejRNt9Hj3ex7bxAx1vQcWToU-hK7hXl7KJgG87iYU7gtPD6UdcFsIW_qHGTO-uVMJ6Lw_L-3rQJPhFwLG-GJN7nLmAUEcpliN]--></g></svg>