<?xml version="1.0" encoding="us-ascii" standalone="no"?><svg xmlns="http://www.w3.org/2000/svg" xmlns:xlink="http://www.w3.org/1999/xlink" contentStyleType="text/css" height="219px" preserveAspectRatio="none" style="width:235px;height:219px;background:#FFFFFF;" version="1.1" viewBox="0 0 235 219" width="235px" zoomAndPan="magnify"><defs/><g><!--class ISO org--><g id="elem_ISO org"><rect codeLine="1" fill="#F1F1F1" height="56.2656" id="ISO org" rx="2.5" ry="2.5" style="stroke:#181818;stroke-width:0.5;" width="83" x="76" y="7"/><ellipse cx="91" cy="27.1328" fill="#ADD1B2" rx="11" ry="11" style="stroke:#181818;stroke-width:1.0;"/><path d="M93.9688,32.7734 Q93.3906,33.0703 92.75,33.2109 Q92.1094,33.3672 91.4063,33.3672 Q88.9063,33.3672 87.5781,31.7266 Q86.2656,30.0703 86.2656,26.9453 Q86.2656,23.8203 87.5781,22.1641 Q88.9063,20.5078 91.4063,20.5078 Q92.1094,20.5078 92.75,20.6641 Q93.4063,20.8203 93.9688,21.1172 L93.9688,23.8359 Q93.3438,23.2578 92.75,22.9922 Q92.1563,22.7109 91.5313,22.7109 Q90.1875,22.7109 89.5,23.7891 Q88.8125,24.8516 88.8125,26.9453 Q88.8125,29.0391 89.5,30.1172 Q90.1875,31.1797 91.5313,31.1797 Q92.1563,31.1797 92.75,30.9141 Q93.3438,30.6328 93.9688,30.0547 L93.9688,32.7734 Z " fill="#000000"/><text fill="#000000" font-family="sans-serif" font-size="12" font-style="italic" lengthAdjust="spacing" textLength="55" x="103" y="23.1387">&#171;taxOrg&#187;</text><text fill="#000000" font-family="sans-serif" font-size="14" lengthAdjust="spacing" textLength="50" x="105.5" y="38.9639">ISO org</text><line style="stroke:#181818;stroke-width:0.5;" x1="77" x2="158" y1="47.2656" y2="47.2656"/><line style="stroke:#181818;stroke-width:0.5;" x1="77" x2="158" y1="55.2656" y2="55.2656"/></g><!--class ISO/IEC 18013-5:2021 mDL--><g id="elem_ISO/IEC 18013-5:2021 mDL"><rect codeLine="2" fill="#F1F1F1" height="72.5625" id="ISO/IEC 18013-5:2021 mDL" rx="2.5" ry="2.5" style="stroke:#181818;stroke-width:0.5;" width="221" x="7" y="140.27"/><ellipse cx="22" cy="160.4028" fill="#ADD1B2" rx="11" ry="11" style="stroke:#181818;stroke-width:1.0;"/><path d="M24.9688,166.0434 Q24.3906,166.3403 23.75,166.4809 Q23.1094,166.6372 22.4063,166.6372 Q19.9063,166.6372 18.5781,164.9966 Q17.2656,163.3403 17.2656,160.2153 Q17.2656,157.0903 18.5781,155.4341 Q19.9063,153.7778 22.4063,153.7778 Q23.1094,153.7778 23.75,153.9341 Q24.4063,154.0903 24.9688,154.3872 L24.9688,157.1059 Q24.3438,156.5278 23.75,156.2622 Q23.1563,155.9809 22.5313,155.9809 Q21.1875,155.9809 20.5,157.0591 Q19.8125,158.1216 19.8125,160.2153 Q19.8125,162.3091 20.5,163.3872 Q21.1875,164.4497 22.5313,164.4497 Q23.1563,164.4497 23.75,164.1841 Q24.3438,163.9028 24.9688,163.3247 L24.9688,166.0434 Z " fill="#000000"/><text fill="#000000" font-family="sans-serif" font-size="12" font-style="italic" lengthAdjust="spacing" textLength="91" x="85" y="156.4087">&#171;taxStandard&#187;</text><text fill="#000000" font-family="sans-serif" font-size="14" lengthAdjust="spacing" textLength="189" x="36" y="172.2339">ISO/IEC 18013-5:2021 mDL</text><line style="stroke:#181818;stroke-width:0.5;" x1="8" x2="227" y1="180.5356" y2="180.5356"/><a href="https://www.iso.org/standard/69084.html" target="_top" title="https://www.iso.org/standard/69084.html" xlink:actuate="onRequest" xlink:href="https://www.iso.org/standard/69084.html" xlink:show="new" xlink:title="https://www.iso.org/standard/69084.html" xlink:type="simple"><text fill="#0000FF" font-family="sans-serif" font-size="14" lengthAdjust="spacing" text-decoration="underline" textLength="75" x="13" y="197.5307">mDL at ISO</text></a><line style="stroke:#181818;stroke-width:0.5;" x1="8" x2="227" y1="204.8325" y2="204.8325"/></g><!--link ISO org to ISO/IEC 18013-5:2021 mDL--><g id="link_ISO org_ISO/IEC 18013-5:2021 mDL"><path codeLine="5" d="M117.5,63.68 C117.5,85.5 117.5,110.15 117.5,133.86 " fill="none" id="ISO org-to-ISO/IEC 18013-5:2021 mDL" style="stroke:#181818;stroke-width:1.0;"/><polygon fill="#181818" points="117.5,139.86,121.5,130.86,117.5,134.86,113.5,130.86,117.5,139.86" style="stroke:#181818;stroke-width:1.0;"/><text fill="#000000" font-family="sans-serif" font-size="13" lengthAdjust="spacing" textLength="63" x="118.5" y="106.3369">maintains</text></g><!--SRC=[Iyv9B2vMKF8CzbV8BqfNKh2nAKciy2zAjxFZKW22PBYqlgUhiuAXXO6XiQwfbP61aQ52heiFL7rmIM9UIc9HYfrTDLWN24H7PvIK51HRwUkNbvVhPHRdwm7Dro-6gjGtipImCD7BACdD0PcZa5YY0BGZDXQilHPC8joagsk7pmbM2hc9cNabG5mC0000]--></g></svg>