<?xml version="1.0" encoding="us-ascii" standalone="no"?><svg xmlns="http://www.w3.org/2000/svg" xmlns:xlink="http://www.w3.org/1999/xlink" contentStyleType="text/css" height="755px" preserveAspectRatio="none" style="width:1853px;height:755px;" version="1.1" viewBox="0 0 1853 755" width="1853px" zoomAndPan="magnify"><defs/><g><text fill="#0A2A61" font-family="sans-serif" font-size="14" font-weight="bold" lengthAdjust="spacing" textLength="219" x="810" y="22.9951">W3C and the VC community</text><!--class W3C--><g id="elem_W3C"><rect codeLine="60" fill="#ECF6F4" height="40.2656" id="W3C" rx="2.5" ry="2.5" style="stroke:#181818;stroke-width:0.5;" width="120" x="1073" y="44.2969"/><ellipse cx="1088" cy="64.4297" fill="#D99B55" rx="11" ry="11" style="stroke:#181818;stroke-width:1.0;"/><path d="M1088.1094,60.0078 Q1087.1719,60.0078 1086.7344,61.0078 Q1086.3125,62.0078 1086.3125,64.2422 Q1086.3125,66.4766 1086.7344,67.4766 Q1087.1719,68.4766 1088.1094,68.4766 Q1089.0625,68.4766 1089.4844,67.4766 Q1089.9219,66.4766 1089.9219,64.2422 Q1089.9219,62.0078 1089.4844,61.0078 Q1089.0625,60.0078 1088.1094,60.0078 Z M1083.7656,64.2422 Q1083.7656,61.0703 1084.8594,59.4453 Q1085.9688,57.8047 1088.1094,57.8047 Q1090.2656,57.8047 1091.3594,59.4453 Q1092.4688,61.0703 1092.4688,64.2422 Q1092.4688,67.4141 1091.3594,69.0391 Q1090.2656,70.6641 1088.1094,70.6641 Q1085.9688,70.6641 1084.8594,69.0391 Q1083.7656,67.4141 1083.7656,64.2422 Z " fill="#000000"/><text fill="#000000" font-family="sans-serif" font-size="12" font-style="italic" lengthAdjust="spacing" textLength="92" x="1100" y="60.4355">&#171;Organization&#187;</text><text fill="#0A2A61" font-family="sans-serif" font-size="14" lengthAdjust="spacing" textLength="32" x="1130" y="76.2607">W3C</text></g><!--class Verifiable credentials WG--><g id="elem_Verifiable credentials WG"><rect codeLine="64" fill="#ECF6F4" height="64.5625" id="Verifiable credentials WG" rx="2.5" ry="2.5" style="stroke:#181818;stroke-width:0.5;" width="202" x="371" y="186.0069"/><ellipse cx="386" cy="206.1397" fill="#D99B55" rx="11" ry="11" style="stroke:#181818;stroke-width:1.0;"/><path d="M386.1094,201.7178 Q385.1719,201.7178 384.7344,202.7178 Q384.3125,203.7178 384.3125,205.9522 Q384.3125,208.1866 384.7344,209.1866 Q385.1719,210.1866 386.1094,210.1866 Q387.0625,210.1866 387.4844,209.1866 Q387.9219,208.1866 387.9219,205.9522 Q387.9219,203.7178 387.4844,202.7178 Q387.0625,201.7178 386.1094,201.7178 Z M381.7656,205.9522 Q381.7656,202.7803 382.8594,201.1553 Q383.9688,199.5147 386.1094,199.5147 Q388.2656,199.5147 389.3594,201.1553 Q390.4688,202.7803 390.4688,205.9522 Q390.4688,209.1241 389.3594,210.7491 Q388.2656,212.3741 386.1094,212.3741 Q383.9688,212.3741 382.8594,210.7491 Q381.7656,209.1241 381.7656,205.9522 Z " fill="#000000"/><text fill="#000000" font-family="sans-serif" font-size="12" font-style="italic" lengthAdjust="spacing" textLength="92" x="439" y="202.1455">&#171;Organization&#187;</text><text fill="#0A2A61" font-family="sans-serif" font-size="14" lengthAdjust="spacing" textLength="170" x="400" y="217.9707">Verifiable credentials WG</text><line style="stroke:#181818;stroke-width:0.5;" x1="372" x2="572" y1="226.2725" y2="226.2725"/><a href="https://www.w3.org/groups/wg/vc/" target="_top" title="https://www.w3.org/groups/wg/vc/" xlink:actuate="onRequest" xlink:href="https://www.w3.org/groups/wg/vc/" xlink:show="new" xlink:title="https://www.w3.org/groups/wg/vc/" xlink:type="simple"><text fill="#F5665D" font-family="sans-serif" font-size="14" lengthAdjust="spacing" text-decoration="underline" textLength="101" x="377" y="243.2676">Working group</text></a></g><!--class Verifiable credentials (W3C)--><g id="elem_Verifiable credentials (W3C)"><rect codeLine="70" fill="#ECF6F4" height="64.5625" id="Verifiable credentials (W3C)" rx="2.5" ry="2.5" style="stroke:#181818;stroke-width:0.5;" width="220" x="7" y="376.4669"/><ellipse cx="22" cy="396.5997" fill="#55D9D6" rx="11" ry="11" style="stroke:#181818;stroke-width:1.0;"/><path d="M21.4844,397.1622 Q19.625,396.4591 18.9688,395.6934 Q18.3281,394.9122 18.3281,393.5997 Q18.3281,391.9122 19.4063,390.9434 Q20.4844,389.9747 22.3594,389.9747 Q23.2188,389.9747 24.0625,390.1778 Q24.9219,390.3653 25.7656,390.7559 L25.7656,393.1466 Q24.9844,392.5841 24.1563,392.3028 Q23.3438,392.0059 22.5469,392.0059 Q21.6719,392.0059 21.1875,392.3653 Q20.7188,392.7247 20.7188,393.3809 Q20.7188,393.8966 21.0625,394.2403 Q21.4063,394.5684 22.5,394.9747 L23.5625,395.3809 Q25.0469,395.9278 25.75,396.8341 Q26.4688,397.7403 26.4688,399.1153 Q26.4688,400.9903 25.3594,401.9122 Q24.25,402.8341 22,402.8341 Q21.0781,402.8341 20.1563,402.6153 Q19.2344,402.3966 18.375,401.9747 L18.375,399.4434 Q19.3438,400.1309 20.2656,400.4747 Q21.1875,400.8184 22.0781,400.8184 Q22.9844,400.8184 23.4844,400.4122 Q23.9844,399.9903 23.9844,399.2559 Q23.9844,398.6934 23.6406,398.2872 Q23.3125,397.8653 22.6875,397.6153 L21.4844,397.1622 Z " fill="#000000"/><text fill="#000000" font-family="sans-serif" font-size="12" font-style="italic" lengthAdjust="spacing" textLength="72" x="94" y="392.6055">&#171;Standard&#187;</text><text fill="#0A2A61" font-family="sans-serif" font-size="14" lengthAdjust="spacing" textLength="188" x="36" y="408.4307">Verifiable credentials (W3C)</text><line style="stroke:#181818;stroke-width:0.5;" x1="8" x2="226" y1="416.7325" y2="416.7325"/><a href="https://www.w3.org/TR/vc-data-model/" target="_top" title="https://www.w3.org/TR/vc-data-model/" xlink:actuate="onRequest" xlink:href="https://www.w3.org/TR/vc-data-model/" xlink:show="new" xlink:title="https://www.w3.org/TR/vc-data-model/" xlink:type="simple"><text fill="#F5665D" font-family="sans-serif" font-size="14" lengthAdjust="spacing" text-decoration="underline" textLength="72" x="13" y="433.7276">VC at W3C</text></a></g><!--class Credentials CG--><g id="elem_Credentials CG"><rect codeLine="84" fill="#ECF6F4" height="64.5625" id="Credentials CG" rx="2.5" ry="2.5" style="stroke:#181818;stroke-width:0.5;" width="135" x="802.5" y="186.0069"/><ellipse cx="817.5" cy="206.1397" fill="#D99B55" rx="11" ry="11" style="stroke:#181818;stroke-width:1.0;"/><path d="M817.6094,201.7178 Q816.6719,201.7178 816.2344,202.7178 Q815.8125,203.7178 815.8125,205.9522 Q815.8125,208.1866 816.2344,209.1866 Q816.6719,210.1866 817.6094,210.1866 Q818.5625,210.1866 818.9844,209.1866 Q819.4219,208.1866 819.4219,205.9522 Q819.4219,203.7178 818.9844,202.7178 Q818.5625,201.7178 817.6094,201.7178 Z M813.2656,205.9522 Q813.2656,202.7803 814.3594,201.1553 Q815.4688,199.5147 817.6094,199.5147 Q819.7656,199.5147 820.8594,201.1553 Q821.9688,202.7803 821.9688,205.9522 Q821.9688,209.1241 820.8594,210.7491 Q819.7656,212.3741 817.6094,212.3741 Q815.4688,212.3741 814.3594,210.7491 Q813.2656,209.1241 813.2656,205.9522 Z " fill="#000000"/><text fill="#000000" font-family="sans-serif" font-size="12" font-style="italic" lengthAdjust="spacing" textLength="92" x="837" y="202.1455">&#171;Organization&#187;</text><text fill="#0A2A61" font-family="sans-serif" font-size="14" lengthAdjust="spacing" textLength="103" x="831.5" y="217.9707">Credentials CG</text><line style="stroke:#181818;stroke-width:0.5;" x1="803.5" x2="936.5" y1="226.2725" y2="226.2725"/><a href="https://www.w3.org/groups/cg/credentials/" target="_top" title="https://www.w3.org/groups/cg/credentials/" xlink:actuate="onRequest" xlink:href="https://www.w3.org/groups/cg/credentials/" xlink:show="new" xlink:title="https://www.w3.org/groups/cg/credentials/" xlink:type="simple"><text fill="#F5665D" font-family="sans-serif" font-size="14" lengthAdjust="spacing" text-decoration="underline" textLength="123" x="808.5" y="243.2676">Community group</text></a></g><!--class Verifiable Credentials API--><g id="elem_Verifiable Credentials API"><rect codeLine="88" fill="#ECF6F4" height="64.5625" id="Verifiable Credentials API" rx="2.5" ry="2.5" style="stroke:#181818;stroke-width:0.5;" width="201" x="39.5" y="542.4769"/><ellipse cx="54.5" cy="562.6097" fill="#55D9D6" rx="11" ry="11" style="stroke:#181818;stroke-width:1.0;"/><path d="M53.9844,563.1722 Q52.125,562.4691 51.4688,561.7034 Q50.8281,560.9222 50.8281,559.6097 Q50.8281,557.9222 51.9063,556.9534 Q52.9844,555.9847 54.8594,555.9847 Q55.7188,555.9847 56.5625,556.1878 Q57.4219,556.3753 58.2656,556.7659 L58.2656,559.1566 Q57.4844,558.5941 56.6563,558.3128 Q55.8438,558.0159 55.0469,558.0159 Q54.1719,558.0159 53.6875,558.3753 Q53.2188,558.7347 53.2188,559.3909 Q53.2188,559.9066 53.5625,560.2503 Q53.9063,560.5784 55,560.9847 L56.0625,561.3909 Q57.5469,561.9378 58.25,562.8441 Q58.9688,563.7503 58.9688,565.1253 Q58.9688,567.0003 57.8594,567.9222 Q56.75,568.8441 54.5,568.8441 Q53.5781,568.8441 52.6563,568.6253 Q51.7344,568.4066 50.875,567.9847 L50.875,565.4534 Q51.8438,566.1409 52.7656,566.4847 Q53.6875,566.8284 54.5781,566.8284 Q55.4844,566.8284 55.9844,566.4222 Q56.4844,566.0003 56.4844,565.2659 Q56.4844,564.7034 56.1406,564.2972 Q55.8125,563.8753 55.1875,563.6253 L53.9844,563.1722 Z " fill="#000000"/><text fill="#000000" font-family="sans-serif" font-size="12" font-style="italic" lengthAdjust="spacing" textLength="72" x="117" y="558.6155">&#171;Standard&#187;</text><text fill="#0A2A61" font-family="sans-serif" font-size="14" lengthAdjust="spacing" textLength="169" x="68.5" y="574.4407">Verifiable Credentials API</text><line style="stroke:#181818;stroke-width:0.5;" x1="40.5" x2="239.5" y1="582.7425" y2="582.7425"/><a href="https://w3c-ccg.github.io/vc-api/" target="_top" title="https://w3c-ccg.github.io/vc-api/" xlink:actuate="onRequest" xlink:href="https://w3c-ccg.github.io/vc-api/" xlink:show="new" xlink:title="https://w3c-ccg.github.io/vc-api/" xlink:type="simple"><text fill="#F5665D" font-family="sans-serif" font-size="14" lengthAdjust="spacing" text-decoration="underline" textLength="93" x="45.5" y="599.7376">VCAPI at W3C</text></a></g><!--class Verifiable Issuers and Verifiers--><g id="elem_Verifiable Issuers and Verifiers"><rect codeLine="94" fill="#ECF6F4" height="64.5625" id="Verifiable Issuers and Verifiers" rx="2.5" ry="2.5" style="stroke:#181818;stroke-width:0.5;" width="237" x="283.5" y="542.4769"/><ellipse cx="298.5" cy="562.6097" fill="#55D9D6" rx="11" ry="11" style="stroke:#181818;stroke-width:1.0;"/><path d="M297.9844,563.1722 Q296.125,562.4691 295.4688,561.7034 Q294.8281,560.9222 294.8281,559.6097 Q294.8281,557.9222 295.9063,556.9534 Q296.9844,555.9847 298.8594,555.9847 Q299.7188,555.9847 300.5625,556.1878 Q301.4219,556.3753 302.2656,556.7659 L302.2656,559.1566 Q301.4844,558.5941 300.6563,558.3128 Q299.8438,558.0159 299.0469,558.0159 Q298.1719,558.0159 297.6875,558.3753 Q297.2188,558.7347 297.2188,559.3909 Q297.2188,559.9066 297.5625,560.2503 Q297.9063,560.5784 299,560.9847 L300.0625,561.3909 Q301.5469,561.9378 302.25,562.8441 Q302.9688,563.7503 302.9688,565.1253 Q302.9688,567.0003 301.8594,567.9222 Q300.75,568.8441 298.5,568.8441 Q297.5781,568.8441 296.6563,568.6253 Q295.7344,568.4066 294.875,567.9847 L294.875,565.4534 Q295.8438,566.1409 296.7656,566.4847 Q297.6875,566.8284 298.5781,566.8284 Q299.4844,566.8284 299.9844,566.4222 Q300.4844,566.0003 300.4844,565.2659 Q300.4844,564.7034 300.1406,564.2972 Q299.8125,563.8753 299.1875,563.6253 L297.9844,563.1722 Z " fill="#000000"/><text fill="#000000" font-family="sans-serif" font-size="12" font-style="italic" lengthAdjust="spacing" textLength="72" x="379" y="558.6155">&#171;Standard&#187;</text><text fill="#0A2A61" font-family="sans-serif" font-size="14" lengthAdjust="spacing" textLength="205" x="312.5" y="574.4407">Verifiable Issuers and Verifiers</text><line style="stroke:#181818;stroke-width:0.5;" x1="284.5" x2="519.5" y1="582.7425" y2="582.7425"/><a href="https://w3c-ccg.github.io/verifiable-issuers-verifiers/" target="_top" title="https://w3c-ccg.github.io/verifiable-issuers-verifiers/" xlink:actuate="onRequest" xlink:href="https://w3c-ccg.github.io/verifiable-issuers-verifiers/" xlink:show="new" xlink:title="https://w3c-ccg.github.io/verifiable-issuers-verifiers/" xlink:type="simple"><text fill="#F5665D" font-family="sans-serif" font-size="14" lengthAdjust="spacing" text-decoration="underline" textLength="86" x="289.5" y="599.7376">VI&amp;V at W3C</text></a></g><!--class VC for Education Task Force--><g id="elem_VC for Education Task Force"><rect codeLine="101" fill="#ECF6F4" height="40.2656" id="VC for Education Task Force" rx="2.5" ry="2.5" style="stroke:#181818;stroke-width:0.5;" width="226" x="1485" y="388.6169"/><ellipse cx="1500" cy="408.7497" fill="#D99B55" rx="11" ry="11" style="stroke:#181818;stroke-width:1.0;"/><path d="M1500.1094,404.3278 Q1499.1719,404.3278 1498.7344,405.3278 Q1498.3125,406.3278 1498.3125,408.5622 Q1498.3125,410.7966 1498.7344,411.7966 Q1499.1719,412.7966 1500.1094,412.7966 Q1501.0625,412.7966 1501.4844,411.7966 Q1501.9219,410.7966 1501.9219,408.5622 Q1501.9219,406.3278 1501.4844,405.3278 Q1501.0625,404.3278 1500.1094,404.3278 Z M1495.7656,408.5622 Q1495.7656,405.3903 1496.8594,403.7653 Q1497.9688,402.1247 1500.1094,402.1247 Q1502.2656,402.1247 1503.3594,403.7653 Q1504.4688,405.3903 1504.4688,408.5622 Q1504.4688,411.7341 1503.3594,413.3591 Q1502.2656,414.9841 1500.1094,414.9841 Q1497.9688,414.9841 1496.8594,413.3591 Q1495.7656,411.7341 1495.7656,408.5622 Z " fill="#000000"/><text fill="#000000" font-family="sans-serif" font-size="12" font-style="italic" lengthAdjust="spacing" textLength="92" x="1565" y="404.7555">&#171;Organization&#187;</text><text fill="#0A2A61" font-family="sans-serif" font-size="14" lengthAdjust="spacing" textLength="194" x="1514" y="420.5807">VC for Education Task Force</text></g><!--class VC EDU Use Cases--><g id="elem_VC EDU Use Cases"><rect codeLine="105" fill="#ECF6F4" height="64.5625" id="VC EDU Use Cases" rx="2.5" ry="2.5" style="stroke:#181818;stroke-width:0.5;" width="163" x="1354.5" y="542.4769"/><ellipse cx="1369.5" cy="562.6097" fill="#5588D9" rx="11" ry="11" style="stroke:#181818;stroke-width:1.0;"/><path d="M1364.5,556.4691 L1366.6406,556.4691 L1367.5313,565.5628 L1368.5938,559.6722 L1370.6406,559.6722 L1371.875,565.5628 L1372.5781,556.4691 L1374.7344,556.4691 L1373.3125,568.8597 L1371.0313,568.8597 L1369.6094,562.3441 L1368.2969,568.8597 L1366.0313,568.8597 L1364.5,556.4691 Z " fill="#000000"/><text fill="#000000" font-family="sans-serif" font-size="12" font-style="italic" lengthAdjust="spacing" textLength="98" x="1400" y="558.6155">&#171;Work Product&#187;</text><text fill="#0A2A61" font-family="sans-serif" font-size="14" lengthAdjust="spacing" textLength="131" x="1383.5" y="574.4407">VC EDU Use Cases</text><line style="stroke:#181818;stroke-width:0.5;" x1="1355.5" x2="1516.5" y1="582.7425" y2="582.7425"/><a href="https://w3c-ccg.github.io/vc-ed-use-cases/" target="_top" title="https://w3c-ccg.github.io/vc-ed-use-cases/" xlink:actuate="onRequest" xlink:href="https://w3c-ccg.github.io/vc-ed-use-cases/" xlink:show="new" xlink:title="https://w3c-ccg.github.io/vc-ed-use-cases/" xlink:type="simple"><text fill="#F5665D" font-family="sans-serif" font-size="14" lengthAdjust="spacing" text-decoration="underline" textLength="72" x="1360.5" y="599.7376">Use cases</text></a></g><!--class VC EDU Models--><g id="elem_VC EDU Models"><rect codeLine="109" fill="#ECF6F4" height="64.5625" id="VC EDU Models" rx="2.5" ry="2.5" style="stroke:#181818;stroke-width:0.5;" width="139" x="1552.5" y="542.4769"/><ellipse cx="1567.5" cy="562.6097" fill="#5588D9" rx="11" ry="11" style="stroke:#181818;stroke-width:1.0;"/><path d="M1562.5,556.4691 L1564.6406,556.4691 L1565.5313,565.5628 L1566.5938,559.6722 L1568.6406,559.6722 L1569.875,565.5628 L1570.5781,556.4691 L1572.7344,556.4691 L1571.3125,568.8597 L1569.0313,568.8597 L1567.6094,562.3441 L1566.2969,568.8597 L1564.0313,568.8597 L1562.5,556.4691 Z " fill="#000000"/><text fill="#000000" font-family="sans-serif" font-size="12" font-style="italic" lengthAdjust="spacing" textLength="98" x="1586" y="558.6155">&#171;Work Product&#187;</text><text fill="#0A2A61" font-family="sans-serif" font-size="14" lengthAdjust="spacing" textLength="107" x="1581.5" y="574.4407">VC EDU Models</text><line style="stroke:#181818;stroke-width:0.5;" x1="1553.5" x2="1690.5" y1="582.7425" y2="582.7425"/><a href="https://w3c-ccg.github.io/vc-ed-models/" target="_top" title="https://w3c-ccg.github.io/vc-ed-models/" xlink:actuate="onRequest" xlink:href="https://w3c-ccg.github.io/vc-ed-models/" xlink:show="new" xlink:title="https://w3c-ccg.github.io/vc-ed-models/" xlink:type="simple"><text fill="#F5665D" font-family="sans-serif" font-size="14" lengthAdjust="spacing" text-decoration="underline" textLength="50" x="1558.5" y="599.7376">Models</text></a></g><!--class ISO org--><g id="elem_ISO org"><rect codeLine="125" fill="#ECF6F4" height="40.2656" id="ISO org" rx="2.5" ry="2.5" style="stroke:#181818;stroke-width:0.5;" width="120" x="532" y="388.6169"/><ellipse cx="547" cy="408.7497" fill="#D99B55" rx="11" ry="11" style="stroke:#181818;stroke-width:1.0;"/><path d="M547.1094,404.3278 Q546.1719,404.3278 545.7344,405.3278 Q545.3125,406.3278 545.3125,408.5622 Q545.3125,410.7966 545.7344,411.7966 Q546.1719,412.7966 547.1094,412.7966 Q548.0625,412.7966 548.4844,411.7966 Q548.9219,410.7966 548.9219,408.5622 Q548.9219,406.3278 548.4844,405.3278 Q548.0625,404.3278 547.1094,404.3278 Z M542.7656,408.5622 Q542.7656,405.3903 543.8594,403.7653 Q544.9688,402.1247 547.1094,402.1247 Q549.2656,402.1247 550.3594,403.7653 Q551.4688,405.3903 551.4688,408.5622 Q551.4688,411.7341 550.3594,413.3591 Q549.2656,414.9841 547.1094,414.9841 Q544.9688,414.9841 543.8594,413.3591 Q542.7656,411.7341 542.7656,408.5622 Z " fill="#000000"/><text fill="#000000" font-family="sans-serif" font-size="12" font-style="italic" lengthAdjust="spacing" textLength="92" x="559" y="404.7555">&#171;Organization&#187;</text><text fill="#0A2A61" font-family="sans-serif" font-size="14" lengthAdjust="spacing" textLength="50" x="580" y="420.5807">ISO org</text></g><!--class ISO/IEC 18013-5:2021 mDL--><g id="elem_ISO/IEC 18013-5:2021 mDL"><rect codeLine="126" fill="#ECF6F4" height="64.5625" id="ISO/IEC 18013-5:2021 mDL" rx="2.5" ry="2.5" style="stroke:#181818;stroke-width:0.5;" width="221" x="623.5" y="542.4769"/><ellipse cx="638.5" cy="562.6097" fill="#55D9D6" rx="11" ry="11" style="stroke:#181818;stroke-width:1.0;"/><path d="M637.9844,563.1722 Q636.125,562.4691 635.4688,561.7034 Q634.8281,560.9222 634.8281,559.6097 Q634.8281,557.9222 635.9063,556.9534 Q636.9844,555.9847 638.8594,555.9847 Q639.7188,555.9847 640.5625,556.1878 Q641.4219,556.3753 642.2656,556.7659 L642.2656,559.1566 Q641.4844,558.5941 640.6563,558.3128 Q639.8438,558.0159 639.0469,558.0159 Q638.1719,558.0159 637.6875,558.3753 Q637.2188,558.7347 637.2188,559.3909 Q637.2188,559.9066 637.5625,560.2503 Q637.9063,560.5784 639,560.9847 L640.0625,561.3909 Q641.5469,561.9378 642.25,562.8441 Q642.9688,563.7503 642.9688,565.1253 Q642.9688,567.0003 641.8594,567.9222 Q640.75,568.8441 638.5,568.8441 Q637.5781,568.8441 636.6563,568.6253 Q635.7344,568.4066 634.875,567.9847 L634.875,565.4534 Q635.8438,566.1409 636.7656,566.4847 Q637.6875,566.8284 638.5781,566.8284 Q639.4844,566.8284 639.9844,566.4222 Q640.4844,566.0003 640.4844,565.2659 Q640.4844,564.7034 640.1406,564.2972 Q639.8125,563.8753 639.1875,563.6253 L637.9844,563.1722 Z " fill="#000000"/><text fill="#000000" font-family="sans-serif" font-size="12" font-style="italic" lengthAdjust="spacing" textLength="72" x="711" y="558.6155">&#171;Standard&#187;</text><text fill="#0A2A61" font-family="sans-serif" font-size="14" lengthAdjust="spacing" textLength="189" x="652.5" y="574.4407">ISO/IEC 18013-5:2021 mDL</text><line style="stroke:#181818;stroke-width:0.5;" x1="624.5" x2="843.5" y1="582.7425" y2="582.7425"/><a href="https://www.iso.org/standard/69084.html" target="_top" title="https://www.iso.org/standard/69084.html" xlink:actuate="onRequest" xlink:href="https://www.iso.org/standard/69084.html" xlink:show="new" xlink:title="https://www.iso.org/standard/69084.html" xlink:type="simple"><text fill="#F5665D" font-family="sans-serif" font-size="14" lengthAdjust="spacing" text-decoration="underline" textLength="75" x="629.5" y="599.7376">mDL at ISO</text></a></g><!--class Linked Data--><g id="elem_Linked Data"><rect codeLine="139" fill="#ECF6F4" height="64.5625" id="Linked Data" rx="2.5" ry="2.5" style="stroke:#181818;stroke-width:0.5;" width="113" x="1452.5" y="684.0369"/><ellipse cx="1467.5" cy="704.1697" fill="#55D9D6" rx="11" ry="11" style="stroke:#181818;stroke-width:1.0;"/><path d="M1466.9844,704.7322 Q1465.125,704.0291 1464.4688,703.2634 Q1463.8281,702.4822 1463.8281,701.1697 Q1463.8281,699.4822 1464.9063,698.5134 Q1465.9844,697.5447 1467.8594,697.5447 Q1468.7188,697.5447 1469.5625,697.7478 Q1470.4219,697.9353 1471.2656,698.3259 L1471.2656,700.7166 Q1470.4844,700.1541 1469.6563,699.8728 Q1468.8438,699.5759 1468.0469,699.5759 Q1467.1719,699.5759 1466.6875,699.9353 Q1466.2188,700.2947 1466.2188,700.9509 Q1466.2188,701.4666 1466.5625,701.8103 Q1466.9063,702.1384 1468,702.5447 L1469.0625,702.9509 Q1470.5469,703.4978 1471.25,704.4041 Q1471.9688,705.3103 1471.9688,706.6853 Q1471.9688,708.5603 1470.8594,709.4822 Q1469.75,710.4041 1467.5,710.4041 Q1466.5781,710.4041 1465.6563,710.1853 Q1464.7344,709.9666 1463.875,709.5447 L1463.875,707.0134 Q1464.8438,707.7009 1465.7656,708.0447 Q1466.6875,708.3884 1467.5781,708.3884 Q1468.4844,708.3884 1468.9844,707.9822 Q1469.4844,707.5603 1469.4844,706.8259 Q1469.4844,706.2634 1469.1406,705.8572 Q1468.8125,705.4353 1468.1875,705.1853 L1466.9844,704.7322 Z " fill="#000000"/><text fill="#000000" font-family="sans-serif" font-size="12" font-style="italic" lengthAdjust="spacing" textLength="72" x="1486" y="700.1755">&#171;Standard&#187;</text><text fill="#0A2A61" font-family="sans-serif" font-size="14" lengthAdjust="spacing" textLength="81" x="1481.5" y="716.0007">Linked Data</text><line style="stroke:#181818;stroke-width:0.5;" x1="1453.5" x2="1564.5" y1="724.3025" y2="724.3025"/><a href="https://www.w3.org/TR/ldp/" target="_top" title="https://www.w3.org/TR/ldp/" xlink:actuate="onRequest" xlink:href="https://www.w3.org/TR/ldp/" xlink:show="new" xlink:title="https://www.w3.org/TR/ldp/" xlink:type="simple"><text fill="#F5665D" font-family="sans-serif" font-size="14" lengthAdjust="spacing" text-decoration="underline" textLength="71" x="1458.5" y="741.2976">LD at W3C</text></a></g><!--class Schema org--><g id="elem_Schema org"><rect codeLine="143" fill="#ECF6F4" height="64.5625" id="Schema org" rx="2.5" ry="2.5" style="stroke:#181818;stroke-width:0.5;" width="115" x="1108.5" y="542.4769"/><ellipse cx="1123.5" cy="562.6097" fill="#55D9D6" rx="11" ry="11" style="stroke:#181818;stroke-width:1.0;"/><path d="M1122.9844,563.1722 Q1121.125,562.4691 1120.4688,561.7034 Q1119.8281,560.9222 1119.8281,559.6097 Q1119.8281,557.9222 1120.9063,556.9534 Q1121.9844,555.9847 1123.8594,555.9847 Q1124.7188,555.9847 1125.5625,556.1878 Q1126.4219,556.3753 1127.2656,556.7659 L1127.2656,559.1566 Q1126.4844,558.5941 1125.6563,558.3128 Q1124.8438,558.0159 1124.0469,558.0159 Q1123.1719,558.0159 1122.6875,558.3753 Q1122.2188,558.7347 1122.2188,559.3909 Q1122.2188,559.9066 1122.5625,560.2503 Q1122.9063,560.5784 1124,560.9847 L1125.0625,561.3909 Q1126.5469,561.9378 1127.25,562.8441 Q1127.9688,563.7503 1127.9688,565.1253 Q1127.9688,567.0003 1126.8594,567.9222 Q1125.75,568.8441 1123.5,568.8441 Q1122.5781,568.8441 1121.6563,568.6253 Q1120.7344,568.4066 1119.875,567.9847 L1119.875,565.4534 Q1120.8438,566.1409 1121.7656,566.4847 Q1122.6875,566.8284 1123.5781,566.8284 Q1124.4844,566.8284 1124.9844,566.4222 Q1125.4844,566.0003 1125.4844,565.2659 Q1125.4844,564.7034 1125.1406,564.2972 Q1124.8125,563.8753 1124.1875,563.6253 L1122.9844,563.1722 Z " fill="#000000"/><text fill="#000000" font-family="sans-serif" font-size="12" font-style="italic" lengthAdjust="spacing" textLength="72" x="1143" y="558.6155">&#171;Standard&#187;</text><text fill="#0A2A61" font-family="sans-serif" font-size="14" lengthAdjust="spacing" textLength="83" x="1137.5" y="574.4407">Schema org</text><line style="stroke:#181818;stroke-width:0.5;" x1="1109.5" x2="1222.5" y1="582.7425" y2="582.7425"/><a href="https://schema.org/docs/schemas.html" target="_top" title="https://schema.org/docs/schemas.html" xlink:actuate="onRequest" xlink:href="https://schema.org/docs/schemas.html" xlink:show="new" xlink:title="https://schema.org/docs/schemas.html" xlink:type="simple"><text fill="#F5665D" font-family="sans-serif" font-size="14" lengthAdjust="spacing" text-decoration="underline" textLength="63" x="1114.5" y="599.7376">schemas</text></a></g><!--class Verifiable Driver's\nLicense Vocabulary--><g id="elem_Verifiable Driver's\nLicense Vocabulary"><rect codeLine="147" fill="#ECF6F4" height="113.4531" id="Verifiable Driver's\nLicense Vocabulary" rx="2.5" ry="2.5" style="stroke:#181818;stroke-width:0.5;" width="229" x="687.5" y="352.0169"/><ellipse cx="731.75" cy="380.2981" fill="#5588D9" rx="11" ry="11" style="stroke:#181818;stroke-width:1.0;"/><path d="M726.75,374.1575 L728.8906,374.1575 L729.7813,383.2512 L730.8438,377.3606 L732.8906,377.3606 L734.125,383.2512 L734.8281,374.1575 L736.9844,374.1575 L735.5625,386.5481 L733.2813,386.5481 L731.8594,380.0325 L730.5469,386.5481 L728.2813,386.5481 L726.75,374.1575 Z " fill="#000000"/><text fill="#000000" font-family="sans-serif" font-size="12" font-style="italic" lengthAdjust="spacing" textLength="98" x="769.25" y="368.1555">&#171;Work Product&#187;</text><text fill="#0A2A61" font-family="sans-serif" font-size="14" lengthAdjust="spacing" textLength="117" x="759.75" y="383.9807">Verifiable Driver's</text><text fill="#0A2A61" font-family="sans-serif" font-size="14" lengthAdjust="spacing" textLength="132" x="752.25" y="400.2776">License Vocabulary</text><line style="stroke:#181818;stroke-width:0.5;" x1="688.5" x2="915.5" y1="408.5794" y2="408.5794"/><text fill="#000000" font-family="sans-serif" font-size="14" lengthAdjust="spacing" textLength="180" x="693.5" y="425.5745">Linked Data vocabulary for</text><text fill="#000000" font-family="sans-serif" font-size="14" lengthAdjust="spacing" textLength="217" x="693.5" y="441.8714">asserting ISO18013-compatible</text><text fill="#000000" font-family="sans-serif" font-size="14" lengthAdjust="spacing" textLength="37" x="693.5" y="458.1682">DLs *</text><a href="https://github.com/w3c-ccg/vdl-vocab" target="_top" title="https://github.com/w3c-ccg/vdl-vocab" xlink:actuate="onRequest" xlink:href="https://github.com/w3c-ccg/vdl-vocab" xlink:show="new" xlink:title="https://github.com/w3c-ccg/vdl-vocab" xlink:type="simple"><text fill="#F5665D" font-family="sans-serif" font-size="14" lengthAdjust="spacing" text-decoration="underline" textLength="95" x="734.5" y="458.1682">DLV at GitHub</text></a></g><!--class Citizenship Vocabulary--><g id="elem_Citizenship Vocabulary"><rect codeLine="156" fill="#ECF6F4" height="64.5625" id="Citizenship Vocabulary" rx="2.5" ry="2.5" style="stroke:#181818;stroke-width:0.5;" width="187" x="951.5" y="376.4669"/><ellipse cx="966.5" cy="396.5997" fill="#55D9D6" rx="11" ry="11" style="stroke:#181818;stroke-width:1.0;"/><path d="M965.9844,397.1622 Q964.125,396.4591 963.4688,395.6934 Q962.8281,394.9122 962.8281,393.5997 Q962.8281,391.9122 963.9063,390.9434 Q964.9844,389.9747 966.8594,389.9747 Q967.7188,389.9747 968.5625,390.1778 Q969.4219,390.3653 970.2656,390.7559 L970.2656,393.1466 Q969.4844,392.5841 968.6563,392.3028 Q967.8438,392.0059 967.0469,392.0059 Q966.1719,392.0059 965.6875,392.3653 Q965.2188,392.7247 965.2188,393.3809 Q965.2188,393.8966 965.5625,394.2403 Q965.9063,394.5684 967,394.9747 L968.0625,395.3809 Q969.5469,395.9278 970.25,396.8341 Q970.9688,397.7403 970.9688,399.1153 Q970.9688,400.9903 969.8594,401.9122 Q968.75,402.8341 966.5,402.8341 Q965.5781,402.8341 964.6563,402.6153 Q963.7344,402.3966 962.875,401.9747 L962.875,399.4434 Q963.8438,400.1309 964.7656,400.4747 Q965.6875,400.8184 966.5781,400.8184 Q967.4844,400.8184 967.9844,400.4122 Q968.4844,399.9903 968.4844,399.2559 Q968.4844,398.6934 968.1406,398.2872 Q967.8125,397.8653 967.1875,397.6153 L965.9844,397.1622 Z " fill="#000000"/><text fill="#000000" font-family="sans-serif" font-size="12" font-style="italic" lengthAdjust="spacing" textLength="72" x="1022" y="392.6055">&#171;Standard&#187;</text><text fill="#0A2A61" font-family="sans-serif" font-size="14" lengthAdjust="spacing" textLength="155" x="980.5" y="408.4307">Citizenship Vocabulary</text><line style="stroke:#181818;stroke-width:0.5;" x1="952.5" x2="1137.5" y1="416.7325" y2="416.7325"/><a href="https://w3c-ccg.github.io/citizenship-vocab/" target="_top" title="https://w3c-ccg.github.io/citizenship-vocab/" xlink:actuate="onRequest" xlink:href="https://w3c-ccg.github.io/citizenship-vocab/" xlink:show="new" xlink:title="https://w3c-ccg.github.io/citizenship-vocab/" xlink:type="simple"><text fill="#F5665D" font-family="sans-serif" font-size="14" lengthAdjust="spacing" text-decoration="underline" textLength="72" x="957.5" y="433.7276">CV at W3C</text></a></g><!--class EOCred-schema CG--><g id="elem_EOCred-schema CG"><rect codeLine="165" fill="#ECF6F4" height="113.4531" id="EOCred-schema CG" rx="2.5" ry="2.5" style="stroke:#181818;stroke-width:0.5;" width="221" x="1153.5" y="161.5669"/><ellipse cx="1191.45" cy="181.6997" fill="#D99B55" rx="11" ry="11" style="stroke:#181818;stroke-width:1.0;"/><path d="M1191.5594,177.2778 Q1190.6219,177.2778 1190.1844,178.2778 Q1189.7625,179.2778 1189.7625,181.5122 Q1189.7625,183.7466 1190.1844,184.7466 Q1190.6219,185.7466 1191.5594,185.7466 Q1192.5125,185.7466 1192.9344,184.7466 Q1193.3719,183.7466 1193.3719,181.5122 Q1193.3719,179.2778 1192.9344,178.2778 Q1192.5125,177.2778 1191.5594,177.2778 Z M1187.2156,181.5122 Q1187.2156,178.3403 1188.3094,176.7153 Q1189.4188,175.0747 1191.5594,175.0747 Q1193.7156,175.0747 1194.8094,176.7153 Q1195.9188,178.3403 1195.9188,181.5122 Q1195.9188,184.6841 1194.8094,186.3091 Q1193.7156,187.9341 1191.5594,187.9341 Q1189.4188,187.9341 1188.3094,186.3091 Q1187.2156,184.6841 1187.2156,181.5122 Z " fill="#000000"/><text fill="#000000" font-family="sans-serif" font-size="12" font-style="italic" lengthAdjust="spacing" textLength="92" x="1233.55" y="177.7055">&#171;Organization&#187;</text><text fill="#0A2A61" font-family="sans-serif" font-size="14" lengthAdjust="spacing" textLength="138" x="1210.55" y="193.5307">EOCred-schema CG</text><line style="stroke:#181818;stroke-width:0.5;" x1="1154.5" x2="1373.5" y1="201.8325" y2="201.8325"/><text fill="#000000" font-family="sans-serif" font-size="14" lengthAdjust="spacing" textLength="209" x="1159.5" y="218.8276">"Educational and Occupational</text><text fill="#000000" font-family="sans-serif" font-size="14" lengthAdjust="spacing" textLength="185" x="1159.5" y="235.1245">Credentials in schema org"</text><text fill="#000000" font-family="sans-serif" font-size="14" lengthAdjust="spacing" textLength="156" x="1159.5" y="251.4214">_Not clear if still active_</text><a href="https://www.w3.org/groups/cg/eocred-schema/" target="_top" title="https://www.w3.org/groups/cg/eocred-schema/" xlink:actuate="onRequest" xlink:href="https://www.w3.org/groups/cg/eocred-schema/" xlink:show="new" xlink:title="https://www.w3.org/groups/cg/eocred-schema/" xlink:type="simple"><text fill="#F5665D" font-family="sans-serif" font-size="14" lengthAdjust="spacing" text-decoration="underline" textLength="123" x="1159.5" y="267.7182">Community group</text></a></g><!--class Educational Occupationa Credential--><g id="elem_Educational Occupationa Credential"><rect codeLine="171" fill="#ECF6F4" height="64.5625" id="Educational Occupationa Credential" rx="2.5" ry="2.5" style="stroke:#181818;stroke-width:0.5;" width="277" x="1173.5" y="376.4669"/><ellipse cx="1188.5" cy="396.5997" fill="#55D9D6" rx="11" ry="11" style="stroke:#181818;stroke-width:1.0;"/><path d="M1187.9844,397.1622 Q1186.125,396.4591 1185.4688,395.6934 Q1184.8281,394.9122 1184.8281,393.5997 Q1184.8281,391.9122 1185.9063,390.9434 Q1186.9844,389.9747 1188.8594,389.9747 Q1189.7188,389.9747 1190.5625,390.1778 Q1191.4219,390.3653 1192.2656,390.7559 L1192.2656,393.1466 Q1191.4844,392.5841 1190.6563,392.3028 Q1189.8438,392.0059 1189.0469,392.0059 Q1188.1719,392.0059 1187.6875,392.3653 Q1187.2188,392.7247 1187.2188,393.3809 Q1187.2188,393.8966 1187.5625,394.2403 Q1187.9063,394.5684 1189,394.9747 L1190.0625,395.3809 Q1191.5469,395.9278 1192.25,396.8341 Q1192.9688,397.7403 1192.9688,399.1153 Q1192.9688,400.9903 1191.8594,401.9122 Q1190.75,402.8341 1188.5,402.8341 Q1187.5781,402.8341 1186.6563,402.6153 Q1185.7344,402.3966 1184.875,401.9747 L1184.875,399.4434 Q1185.8438,400.1309 1186.7656,400.4747 Q1187.6875,400.8184 1188.5781,400.8184 Q1189.4844,400.8184 1189.9844,400.4122 Q1190.4844,399.9903 1190.4844,399.2559 Q1190.4844,398.6934 1190.1406,398.2872 Q1189.8125,397.8653 1189.1875,397.6153 L1187.9844,397.1622 Z " fill="#000000"/><text fill="#000000" font-family="sans-serif" font-size="12" font-style="italic" lengthAdjust="spacing" textLength="72" x="1289" y="392.6055">&#171;Standard&#187;</text><text fill="#0A2A61" font-family="sans-serif" font-size="14" lengthAdjust="spacing" textLength="245" x="1202.5" y="408.4307">Educational Occupationa Credential</text><line style="stroke:#181818;stroke-width:0.5;" x1="1174.5" x2="1449.5" y1="416.7325" y2="416.7325"/><a href="https://schema.org/EducationalOccupationalCredential" target="_top" title="https://schema.org/EducationalOccupationalCredential" xlink:actuate="onRequest" xlink:href="https://schema.org/EducationalOccupationalCredential" xlink:show="new" xlink:title="https://schema.org/EducationalOccupationalCredential" xlink:type="simple"><text fill="#F5665D" font-family="sans-serif" font-size="14" lengthAdjust="spacing" text-decoration="underline" textLength="133" x="1179.5" y="433.7276">EOC at schema.org</text></a></g><!--link W3C to Verifiable credentials WG--><g id="link_W3C_Verifiable credentials WG"><path codeLine="68" d="M1072.59,79.3169 C959.05,105.3969 718.5877,160.6435 579.2477,192.6535 " fill="none" id="W3C-to-Verifiable credentials WG" style="stroke:#0A2A61;stroke-width:1.0;stroke-dasharray:7.0,7.0;"/><polygon fill="#0A2A61" points="573.4,193.9969,583.0671,195.8803,578.2731,192.8774,581.2759,188.0834,573.4,193.9969" style="stroke:#0A2A61;stroke-width:1.0;"/><text fill="#0A2A61" font-family="sans-serif" font-size="13" lengthAdjust="spacing" textLength="75" x="901" y="127.6338">coordinates</text></g><!--link Verifiable credentials WG to Verifiable credentials (W3C)--><g id="link_Verifiable credentials WG_Verifiable credentials (W3C)"><path codeLine="74" d="M370.56,238.2469 C318.36,251.2769 255.47,272.2969 206,305.0169 C177.85,323.6369 156.8499,348.612 140.7299,371.352 " fill="none" id="Verifiable credentials WG-to-Verifiable credentials (W3C)" style="stroke:#0A2A61;stroke-width:1.0;stroke-dasharray:7.0,7.0;"/><polygon fill="#0A2A61" points="137.26,376.2469,145.7281,371.2178,140.1516,372.1678,139.2016,366.5913,137.26,376.2469" style="stroke:#0A2A61;stroke-width:1.0;"/><text fill="#0A2A61" font-family="sans-serif" font-size="13" lengthAdjust="spacing" textLength="63" x="207" y="318.0838">maintains</text></g><!--link W3C to Credentials CG--><g id="link_W3C_Credentials CG"><path codeLine="87" d="M1099.16,84.9769 C1055.04,110.4469 982.5157,152.3161 929.9657,182.6661 " fill="none" id="W3C-to-Credentials CG" style="stroke:#0A2A61;stroke-width:1.0;stroke-dasharray:7.0,7.0;"/><polygon fill="#0A2A61" points="924.77,185.6669,934.5641,184.6295,929.0998,183.1662,930.5631,177.7019,924.77,185.6669" style="stroke:#0A2A61;stroke-width:1.0;"/><text fill="#0A2A61" font-family="sans-serif" font-size="13" lengthAdjust="spacing" textLength="75" x="1041" y="127.6338">coordinates</text></g><!--link Credentials CG to Verifiable Credentials API--><g id="link_Credentials CG_Verifiable Credentials API"><path codeLine="91" d="M802.24,232.0569 C665.21,258.4269 365.21,319.1969 331,352.0169 C276.5,404.3069 325.94,456.7069 275,512.4769 C264.15,524.3469 255.8023,531.1764 241.4423,539.1064 " fill="none" id="Credentials CG-to-Verifiable Credentials API" style="stroke:#0A2A61;stroke-width:1.0;stroke-dasharray:7.0,7.0;"/><polygon fill="#0A2A61" points="236.19,542.0069,246.0022,541.1577,240.567,539.5898,242.1349,534.1546,236.19,542.0069" style="stroke:#0A2A61;stroke-width:1.0;"/><text fill="#0A2A61" font-family="sans-serif" font-size="13" lengthAdjust="spacing" textLength="63" x="332" y="413.3138">maintains</text></g><!--reverse link Verifiable credentials (W3C) to Verifiable Credentials API--><g id="link_Verifiable credentials (W3C)_Verifiable Credentials API"><path codeLine="92" d="M123.9343,459.1918 C128.0143,488.2318 131.51,513.2169 135.58,542.2269 " fill="none" id="Verifiable credentials (W3C)-backto-Verifiable Credentials API" style="stroke:#0A2A61;stroke-width:1.0;"/><polygon fill="none" points="121.43,441.3669,117.9927,460.0266,129.876,458.357,121.43,441.3669" style="stroke:#0A2A61;stroke-width:1.0;"/></g><!--link Credentials CG to Verifiable Issuers and Verifiers--><g id="link_Credentials CG_Verifiable Issuers and Verifiers"><path codeLine="97" d="M802.24,232.0569 C695.83,253.4669 496.71,299.4669 449,352.0169 C400.86,405.0469 397.1534,488.7524 399.1834,536.1824 " fill="none" id="Credentials CG-to-Verifiable Issuers and Verifiers" style="stroke:#0A2A61;stroke-width:1.0;stroke-dasharray:7.0,7.0;"/><polygon fill="#0A2A61" points="399.44,542.1769,403.0515,533.0141,399.2262,537.1814,395.0588,533.3562,399.44,542.1769" style="stroke:#0A2A61;stroke-width:1.0;"/><text fill="#0A2A61" font-family="sans-serif" font-size="13" lengthAdjust="spacing" textLength="63" x="450" y="413.3138">maintains</text></g><!--reverse link Verifiable credentials (W3C) to Verifiable Issuers and Verifiers--><g id="link_Verifiable credentials (W3C)_Verifiable Issuers and Verifiers"><path codeLine="98" d="M187.5517,450.3439 C238.0217,479.3839 296.8,513.2169 347.22,542.2269 " fill="none" id="Verifiable credentials (W3C)-backto-Verifiable Issuers and Verifiers" style="stroke:#0A2A61;stroke-width:1.0;"/><polygon fill="none" points="171.95,441.3669,184.5593,455.5445,190.544,445.1434,171.95,441.3669" style="stroke:#0A2A61;stroke-width:1.0;"/></g><!--link Credentials CG to VC for Education Task Force--><g id="link_Credentials CG_VC for Education Task Force"><path codeLine="103" d="M937.79,244.4769 C1004,268.0769 1108.1,302.5669 1201,322.0169 C1317.88,346.4969 1352.55,321.4969 1468,352.0169 C1500.29,360.5569 1529.5653,373.1206 1554.9753,385.4906 " fill="none" id="Credentials CG-to-VC for Education Task Force" style="stroke:#0A2A61;stroke-width:1.0;stroke-dasharray:7.0,7.0;"/><polygon fill="#0A2A61" points="1560.37,388.1169,1554.0288,380.5811,1555.8744,385.9283,1550.5271,387.774,1560.37,388.1169" style="stroke:#0A2A61;stroke-width:1.0;"/><text fill="#0A2A61" font-family="sans-serif" font-size="13" lengthAdjust="spacing" textLength="75" x="1202" y="318.0838">coordinates</text></g><!--link VC for Education Task Force to VC EDU Use Cases--><g id="link_VC for Education Task Force_VC EDU Use Cases"><path codeLine="108" d="M1578.78,429.2069 C1551.21,457.1169 1504.3264,504.5781 1471.3264,537.9881 " fill="none" id="VC for Education Task Force-to-VC EDU Use Cases" style="stroke:#0A2A61;stroke-width:1.0;stroke-dasharray:7.0,7.0;"/><polygon fill="#0A2A61" points="1467.11,542.2569,1476.2804,538.6647,1470.6236,538.6996,1470.5887,533.0428,1467.11,542.2569" style="stroke:#0A2A61;stroke-width:1.0;"/><text fill="#0A2A61" font-family="sans-serif" font-size="13" lengthAdjust="spacing" textLength="63" x="1513" y="508.5438">maintains</text></g><!--link VC for Education Task Force to VC EDU Models--><g id="link_VC for Education Task Force_VC EDU Models"><path codeLine="112" d="M1600.85,429.2069 C1604.93,457.1169 1611.6311,502.9101 1616.5211,536.3201 " fill="none" id="VC for Education Task Force-to-VC EDU Models" style="stroke:#0A2A61;stroke-width:1.0;stroke-dasharray:7.0,7.0;"/><polygon fill="#0A2A61" points="1617.39,542.2569,1620.0444,532.7725,1616.6659,537.3096,1612.1288,533.931,1617.39,542.2569" style="stroke:#0A2A61;stroke-width:1.0;"/><text fill="#0A2A61" font-family="sans-serif" font-size="13" lengthAdjust="spacing" textLength="63" x="1613" y="508.5438">maintains</text></g><!--link ISO org to ISO/IEC 18013-5:2021 mDL--><g id="link_ISO org_ISO/IEC 18013-5:2021 mDL"><path codeLine="129" d="M608.85,429.2069 C633.02,457.1169 673.8724,504.311 702.8024,537.721 " fill="none" id="ISO org-to-ISO/IEC 18013-5:2021 mDL" style="stroke:#0A2A61;stroke-width:1.0;"/><polygon fill="#0A2A61" points="706.73,542.2569,703.8625,532.8347,703.457,538.477,697.8147,538.0715,706.73,542.2569" style="stroke:#0A2A61;stroke-width:1.0;"/><text fill="#0A2A61" font-family="sans-serif" font-size="13" lengthAdjust="spacing" textLength="63" x="681" y="508.5438">maintains</text></g><!--link W3C to Linked Data--><g id="link_W3C_Linked Data"><path codeLine="142" d="M1193.38,66.7969 C1354.25,72.0369 1781,97.2669 1781,217.2969 C1781,217.2969 1781,217.2969 1781,575.7569 C1781,671.6869 1651.359,701.0264 1571.649,710.3964 " fill="none" id="W3C-to-Linked Data" style="stroke:#0A2A61;stroke-width:1.0;stroke-dasharray:7.0,7.0;"/><polygon fill="#0A2A61" points="1565.69,711.0969,1575.0954,714.0188,1570.6558,710.5131,1574.1615,706.0735,1565.69,711.0969" style="stroke:#0A2A61;stroke-width:1.0;"/><text fill="#0A2A61" font-family="sans-serif" font-size="13" lengthAdjust="spacing" textLength="63" x="1782" y="413.3138">maintains</text></g><!--link Schema org to Linked Data--><g id="link_Schema org_Linked Data"><path codeLine="146" d="M1223.8,599.2669 C1287.37,625.1369 1383.3323,664.1858 1446.5523,689.9058 " fill="none" id="Schema org-to-Linked Data" style="stroke:#0A2A61;stroke-width:1.0;stroke-dasharray:7.0,7.0;"/><polygon fill="#0A2A61" points="1452.11,692.1669,1445.2809,685.0702,1447.4786,690.2827,1442.2661,692.4804,1452.11,692.1669" style="stroke:#0A2A61;stroke-width:1.0;"/><text fill="#0A2A61" font-family="sans-serif" font-size="13" lengthAdjust="spacing" textLength="30" x="1359" y="650.1038">uses</text></g><!--link Credentials CG to Verifiable Driver's\nLicense Vocabulary--><g id="link_Credentials CG_Verifiable Driver's\nLicense Vocabulary"><path codeLine="152" d="M858.62,250.8369 C848.71,278.2869 836.1566,313.0931 824.2666,346.0431 " fill="none" id="Credentials CG-to-Verifiable Driver's\nLicense Vocabulary" style="stroke:#0A2A61;stroke-width:1.0;stroke-dasharray:7.0,7.0;"/><polygon fill="#0A2A61" points="822.23,351.6869,829.0474,344.5789,823.9271,346.9837,821.5223,341.8635,822.23,351.6869" style="stroke:#0A2A61;stroke-width:1.0;"/><text fill="#0A2A61" font-family="sans-serif" font-size="13" lengthAdjust="spacing" textLength="63" x="839" y="318.0838">maintains</text></g><!--link Verifiable Driver's\nLicense Vocabulary to Schema org--><g id="link_Verifiable Driver's\nLicense Vocabulary_Schema org"><path codeLine="153" d="M916.67,461.4169 C980.34,490.0969 1051.3195,522.0824 1102.6395,545.2024 " fill="none" id="Verifiable Driver's\nLicense Vocabulary-to-Schema org" style="stroke:#0A2A61;stroke-width:1.0;stroke-dasharray:7.0,7.0;"/><polygon fill="#0A2A61" points="1108.11,547.6669,1101.5473,540.3231,1103.5513,545.6131,1098.2613,547.6171,1108.11,547.6669" style="stroke:#0A2A61;stroke-width:1.0;"/><text fill="#0A2A61" font-family="sans-serif" font-size="13" lengthAdjust="spacing" textLength="30" x="1028" y="508.5438">uses</text></g><!--link Verifiable Driver's\nLicense Vocabulary to ISO/IEC 18013-5:2021 mDL--><g id="link_Verifiable Driver's\nLicense Vocabulary_ISO/IEC 18013-5:2021 mDL"><path codeLine="154" d="M778.79,465.7269 C768.17,491.3369 758.2757,515.1834 749.3057,536.8434 " fill="none" id="Verifiable Driver's\nLicense Vocabulary-to-ISO/IEC 18013-5:2021 mDL" style="stroke:#0A2A61;stroke-width:1.0;stroke-dasharray:7.0,7.0;"/><polygon fill="#0A2A61" points="747.01,542.3869,754.1492,535.6022,748.9231,537.7673,746.7579,532.5412,747.01,542.3869" style="stroke:#0A2A61;stroke-width:1.0;"/><text fill="#0A2A61" font-family="sans-serif" font-size="13" lengthAdjust="spacing" textLength="30" x="766" y="508.5438">uses</text></g><!--link Credentials CG to Citizenship Vocabulary--><g id="link_Credentials CG_Citizenship Vocabulary"><path codeLine="159" d="M899.29,250.8369 C931.6,285.6269 979.1874,336.87 1011.5274,371.7 " fill="none" id="Credentials CG-to-Citizenship Vocabulary" style="stroke:#0A2A61;stroke-width:1.0;stroke-dasharray:7.0,7.0;"/><polygon fill="#0A2A61" points="1015.61,376.0969,1012.4174,366.7798,1012.2079,372.4328,1006.5549,372.2232,1015.61,376.0969" style="stroke:#0A2A61;stroke-width:1.0;"/><text fill="#0A2A61" font-family="sans-serif" font-size="13" lengthAdjust="spacing" textLength="63" x="963" y="318.0838">maintains</text></g><!--link Citizenship Vocabulary to Schema org--><g id="link_Citizenship Vocabulary_Schema org"><path codeLine="160" d="M1068.33,441.3669 C1089.76,470.4069 1117.7782,508.3885 1139.1782,537.3985 " fill="none" id="Citizenship Vocabulary-to-Schema org" style="stroke:#0A2A61;stroke-width:1.0;stroke-dasharray:7.0,7.0;"/><polygon fill="#0A2A61" points="1142.74,542.2269,1140.6162,532.6097,1139.7718,538.2032,1134.1784,537.3588,1142.74,542.2269" style="stroke:#0A2A61;stroke-width:1.0;"/><text fill="#0A2A61" font-family="sans-serif" font-size="13" lengthAdjust="spacing" textLength="30" x="1120" y="508.5438">uses</text></g><!--link W3C to EOCred-schema CG--><g id="link_W3C_EOCred-schema CG"><path codeLine="170" d="M1149.86,84.9769 C1166.44,104.1969 1188.6406,129.934 1211.7106,156.674 " fill="none" id="W3C-to-EOCred-schema CG" style="stroke:#0A2A61;stroke-width:1.0;stroke-dasharray:7.0,7.0;"/><polygon fill="#0A2A61" points="1215.63,161.2169,1212.7795,151.7895,1212.3638,157.4311,1206.7223,157.0154,1215.63,161.2169" style="stroke:#0A2A61;stroke-width:1.0;"/><text fill="#0A2A61" font-family="sans-serif" font-size="13" lengthAdjust="spacing" textLength="75" x="1187" y="127.6338">coordinates</text></g><!--link EOCred-schema CG to Educational Occupationa Credential--><g id="link_EOCred-schema CG_Educational Occupationa Credential"><path codeLine="174" d="M1278.27,275.3269 C1286.65,308.1969 1295.4399,342.7223 1302.4299,370.1823 " fill="none" id="EOCred-schema CG-to-Educational Occupationa Credential" style="stroke:#0A2A61;stroke-width:1.0;stroke-dasharray:7.0,7.0;"/><polygon fill="#0A2A61" points="1303.91,375.9969,1305.5662,366.2883,1302.6766,371.1514,1297.8134,368.2618,1303.91,375.9969" style="stroke:#0A2A61;stroke-width:1.0;"/><text fill="#0A2A61" font-family="sans-serif" font-size="13" lengthAdjust="spacing" textLength="66" x="1290" y="318.0838">developed</text></g><!--link Educational Occupationa Credential to Schema org--><g id="link_Educational Occupationa Credential_Schema org"><path codeLine="175" d="M1283.85,441.3669 C1258,470.4069 1231.8598,499.7735 1206.0298,528.7835 " fill="none" id="Educational Occupationa Credential-to-Schema org" style="stroke:#0A2A61;stroke-width:1.0;"/><polygon fill="none" points="1194.06,542.2269,1210.5109,532.7734,1201.5486,524.7936,1194.06,542.2269" style="stroke:#0A2A61;stroke-width:1.0;"/></g><!--SRC=[pLZhJzj84F_kls8Ef0DEE4v2d89LeOCOA3gke491TsrLRUmbMU6NrXjI-lZVRtRNYPyngOuFpGU4TyQpC_ERfwsj6yf35iL1F7a25a54lmYOq8Xo8bWSWSUfJoF1I90QneXJ8gZlGB_R7rXTs-eFeDTp1dsdtpSkI2eWZ7rspweijcFlEuEXOPp673mcbEWKIEH3BAQKWnzxin2lKOHTI09AKWeffM1y-3SMbCSmuV4iWO2DEU5FdxQdGYIfOrdp-RppLN5qOZwn55TgsVQWDnmCBMaD6bCmOiVOiWp0tnOiH7XeFEyGFnxJZXU7bgUirCVcV4ff08huvyJpibUFvFD8CLm591ApC80nggp8l_dqdaKKakDWHW4sRNj_tpseaeZt09lTe_xHi5ScNP60dd5A8zWy6PqEJmTbSaQoRVV07PP9xbyPiVlA7jd7PU8b9z64mgPxS71issNQFpG8uZbidjedxj5-cVQE-f8m7DgkOKoPJu66YNY2a8PZoZ4e5fo2VBaM22dXFcnVxsf5Ts1nLkIxv1FOljpDTDe1V2OH-whGB_BTnVm1jkzsbITtG3rUyTYVUS8mqWSM9OIJy9i6PG5daW6Yi5moDVEOfS3h8F0-nYCUfXqMMpIo0eo4L5ZtCG-942oQM2G8J2dLL6BJpbI4WG5A_17dyLn5HGPmVdeQHw94KQGn_YSZDl8rJQ0_KfIB2cc6KK3IzBZ2bKU8ul4aJqs-CdT9kcPVAVIwbTEt9AHmH1BwHH7KdpTF2UK1YnuoQGY_LkKj9bbD4nquEJtcFkKPJOExf3Lxu8Q9e4xwKI0wSBStKgK2aO7R4I2iuInYuaap_POAmaKw6yCevjIm_dz1mserSFe7pnIqLqxlu9SfQ0fIs41FRS3hrph33W-rVsZaI-zKlNKxKWVB28ADMyhHL38EQD59S7TMbFbj-PRyVVXGL7k-LrHvFh4UFKibBUQDDlVJf-Nh6SRof_NkT0vRTN0GUOml5icKNBwxfX7RUCLEPiUY8XqUmXhMtBn3CqoV269YBD30aZ58X8pA5TQqsD1cerRHWP0mZ1iMfKRPo0p8MjHpcQ4vxvOwMGWTdPKip9nKvbWDxtCGUnEhO8656PYbPWrjxQFYKm7qgZhDI3U3N7ptwEgy1d6hGNkUwNcJpeI9wMmiApuYJH8c8KPPTPGRhAZgNaMugbyHtvAWPmBtkscsoYq9UyPdvsawmzQjofK-ngVdakDProtbcqpBDnyNij6Xvx_VleW_L-Z-Kcvj5hywks1AKbaGS4204vnBT8-v8Ua3O6lmQ2CIgzcBgTZW_sTybJchJNmvjLPeT-A-X_VOhaROinPn8SjuKpQjaL7KDsSfDJqfpLA2rR_jST1gnSBEigAhOg1isD-oYB-CLQeVe4bQv0lPa-dNP4of3QXerCD6CGxcSaQEOe5p3nxwSWAACGyV6PqRBp4S3PqkRdkzjk5ewFJwJdV_bzhsiXWulxu4VB4s9ELaw_na1BtzRc_Fj1sqgWUXUz7ILShjaQLQiJJZj8O7tVs1sX6a75a1yOuiKdI4v3gPvc6R2iM8U9afTy_f3Tk1x2EGUxyCa4MeBd15mV1sSIvR6vryeWlyn88BjzoHCZpokQHqHpKXCpsklIaDII6e6XjehaUg-9KUSitCdlKQ2Tb3MP_Y3JMr7C3IchOCmIvdcFvRwSVeWdaqGdXkOu-CPm72KIg2bNPJk0GUbs_86bPYm-iebtknZ6iTixYV9HWGU7c9qxr8uO-28x9YAfVqhBvQZtvWghkGMKqBPqoycOrBO_RQWqAhuKtLTNslgQkAi5HG-4b9RIclv5RX7J61-toKJbbIHtETxQRMpxnSeaO0P_dRfYsdtVqh56lqzYeZLZctklUSNEhDf-8RVMpgJAeiDnM7R2oRCGbKKRlql5cI7NoCYXPYXKrpbKfIFh_5PkjXvUF0xY4LB41Xda3KFni_iKVHsClrRjkaVZIjpNMhctUeXPCAXXUCBWmIwmTJeQ0Ln1PTcKkLeCceojzfDgnkZhPo3RKTyEaZ3U84OwCHw5KlckRtSk3Lfgry15i6eNlkwa5iy-RIlOHtLCvPUWQBxw41yEN7AuiaIO0Tr_IPRwAJpKSl-oxjKgmJWfC0qyE7SwMWN4CAEqbz0vJ2lAm_vx5pfffl-Uk1WSCXnReDM9PI-RrLVQ1h6HzKDrWz90pafx3-db6FyP_fxz_qkF133G-biG8Z15MN8otz3m00]--></g></svg>