<?xml version="1.0" encoding="us-ascii" standalone="no"?><svg xmlns="http://www.w3.org/2000/svg" xmlns:xlink="http://www.w3.org/1999/xlink" contentStyleType="text/css" height="590px" preserveAspectRatio="none" style="width:1481px;height:590px;" version="1.1" viewBox="0 0 1481 590" width="1481px" zoomAndPan="magnify"><defs/><g><text fill="#0A2A61" font-family="sans-serif" font-size="14" font-weight="bold" lengthAdjust="spacing" textLength="104" x="681.5" y="22.9951">All the things</text><!--class W3C--><g id="elem_W3C"><rect codeLine="56" fill="#ECF6F4" height="40.2656" id="W3C" rx="2.5" ry="2.5" style="stroke:#181818;stroke-width:0.5;" width="94" x="459.5" y="50.8669"/><text fill="#000000" font-family="sans-serif" font-size="12" font-style="italic" lengthAdjust="spacing" textLength="92" x="460.5" y="67.0055">&#171;Organization&#187;</text><text fill="#0A2A61" font-family="sans-serif" font-size="14" lengthAdjust="spacing" textLength="32" x="490.5" y="82.8307">W3C</text></g><!--class Linked Data--><g id="elem_Linked Data"><rect codeLine="66" fill="#ECF6F4" height="40.2656" id="Linked Data" rx="2.5" ry="2.5" style="stroke:#181818;stroke-width:0.5;" width="87" x="359" y="543.7869"/><text fill="#000000" font-family="sans-serif" font-size="12" font-style="italic" lengthAdjust="spacing" textLength="72" x="366.5" y="559.9255">&#171;Standard&#187;</text><text fill="#0A2A61" font-family="sans-serif" font-size="14" lengthAdjust="spacing" textLength="81" x="362" y="575.7507">Linked Data</text></g><!--class Schema org--><g id="elem_Schema org"><rect codeLine="70" fill="#ECF6F4" height="40.2656" id="Schema org" rx="2.5" ry="2.5" style="stroke:#181818;stroke-width:0.5;" width="89" x="958" y="426.5269"/><text fill="#000000" font-family="sans-serif" font-size="12" font-style="italic" lengthAdjust="spacing" textLength="72" x="966.5" y="442.6655">&#171;Standard&#187;</text><text fill="#0A2A61" font-family="sans-serif" font-size="14" lengthAdjust="spacing" textLength="83" x="961" y="458.4907">Schema org</text></g><!--class EOCred-schema CG--><g id="elem_EOCred-schema CG"><rect codeLine="74" fill="#ECF6F4" height="40.2656" id="EOCred-schema CG" rx="2.5" ry="2.5" style="stroke:#181818;stroke-width:0.5;" width="144" x="779.5" y="183.8469"/><text fill="#000000" font-family="sans-serif" font-size="12" font-style="italic" lengthAdjust="spacing" textLength="92" x="805.5" y="199.9855">&#171;Organization&#187;</text><text fill="#0A2A61" font-family="sans-serif" font-size="14" lengthAdjust="spacing" textLength="138" x="782.5" y="215.8107">EOCred-schema CG</text></g><!--class Educational Occupationa Credential--><g id="elem_Educational Occupationa Credential"><rect codeLine="80" fill="#ECF6F4" height="40.2656" id="Educational Occupationa Credential" rx="2.5" ry="2.5" style="stroke:#181818;stroke-width:0.5;" width="251" x="877" y="309.2569"/><text fill="#000000" font-family="sans-serif" font-size="12" font-style="italic" lengthAdjust="spacing" textLength="72" x="966.5" y="325.3955">&#171;Standard&#187;</text><text fill="#0A2A61" font-family="sans-serif" font-size="14" lengthAdjust="spacing" textLength="245" x="880" y="341.2207">Educational Occupationa Credential</text></g><!--class Verifiable credentials WG--><g id="elem_Verifiable credentials WG"><rect codeLine="85" fill="#ECF6F4" height="40.2656" id="Verifiable credentials WG" rx="2.5" ry="2.5" style="stroke:#181818;stroke-width:0.5;" width="176" x="568.5" y="183.8469"/><text fill="#000000" font-family="sans-serif" font-size="12" font-style="italic" lengthAdjust="spacing" textLength="92" x="610.5" y="199.9855">&#171;Organization&#187;</text><text fill="#0A2A61" font-family="sans-serif" font-size="14" lengthAdjust="spacing" textLength="170" x="571.5" y="215.8107">Verifiable credentials WG</text></g><!--class Verifiable credentials (W3C)--><g id="elem_Verifiable credentials (W3C)"><rect codeLine="91" fill="#ECF6F4" height="40.2656" id="Verifiable credentials (W3C)" rx="2.5" ry="2.5" style="stroke:#181818;stroke-width:0.5;" width="194" x="648.5" y="309.2569"/><text fill="#000000" font-family="sans-serif" font-size="12" font-style="italic" lengthAdjust="spacing" textLength="72" x="709.5" y="325.3955">&#171;Standard&#187;</text><text fill="#0A2A61" font-family="sans-serif" font-size="14" lengthAdjust="spacing" textLength="188" x="651.5" y="341.2207">Verifiable credentials (W3C)</text></g><!--class Credentials CG--><g id="elem_Credentials CG"><rect codeLine="102" fill="#ECF6F4" height="40.2656" id="Credentials CG" rx="2.5" ry="2.5" style="stroke:#181818;stroke-width:0.5;" width="109" x="471" y="309.2569"/><text fill="#000000" font-family="sans-serif" font-size="12" font-style="italic" lengthAdjust="spacing" textLength="92" x="479.5" y="325.3955">&#171;Organization&#187;</text><text fill="#0A2A61" font-family="sans-serif" font-size="14" lengthAdjust="spacing" textLength="103" x="474" y="341.2207">Credentials CG</text></g><!--class Verifiable Credentials API--><g id="elem_Verifiable Credentials API"><rect codeLine="106" fill="#ECF6F4" height="40.2656" id="Verifiable Credentials API" rx="2.5" ry="2.5" style="stroke:#181818;stroke-width:0.5;" width="175" x="454" y="426.5269"/><text fill="#000000" font-family="sans-serif" font-size="12" font-style="italic" lengthAdjust="spacing" textLength="72" x="505.5" y="442.6655">&#171;Standard&#187;</text><text fill="#0A2A61" font-family="sans-serif" font-size="14" lengthAdjust="spacing" textLength="169" x="457" y="458.4907">Verifiable Credentials API</text></g><!--class Verifiable Issuers and Verifiers--><g id="elem_Verifiable Issuers and Verifiers"><rect codeLine="112" fill="#ECF6F4" height="40.2656" id="Verifiable Issuers and Verifiers" rx="2.5" ry="2.5" style="stroke:#181818;stroke-width:0.5;" width="211" x="675" y="426.5269"/><text fill="#000000" font-family="sans-serif" font-size="12" font-style="italic" lengthAdjust="spacing" textLength="72" x="744.5" y="442.6655">&#171;Standard&#187;</text><text fill="#0A2A61" font-family="sans-serif" font-size="14" lengthAdjust="spacing" textLength="205" x="678" y="458.4907">Verifiable Issuers and Verifiers</text></g><!--class VC for Education Task Force--><g id="elem_VC for Education Task Force"><rect codeLine="119" fill="#ECF6F4" height="40.2656" id="VC for Education Task Force" rx="2.5" ry="2.5" style="stroke:#181818;stroke-width:0.5;" width="200" x="107.5" y="426.5269"/><text fill="#000000" font-family="sans-serif" font-size="12" font-style="italic" lengthAdjust="spacing" textLength="92" x="161.5" y="442.6655">&#171;Organization&#187;</text><text fill="#0A2A61" font-family="sans-serif" font-size="14" lengthAdjust="spacing" textLength="194" x="110.5" y="458.4907">VC for Education Task Force</text></g><!--class VC EDU Use Cases--><g id="elem_VC EDU Use Cases"><rect codeLine="123" fill="#ECF6F4" height="40.2656" id="VC EDU Use Cases" rx="2.5" ry="2.5" style="stroke:#181818;stroke-width:0.5;" width="137" x="155" y="543.7869"/><text fill="#000000" font-family="sans-serif" font-size="12" font-style="italic" lengthAdjust="spacing" textLength="98" x="174.5" y="559.9255">&#171;Work Product&#187;</text><text fill="#0A2A61" font-family="sans-serif" font-size="14" lengthAdjust="spacing" textLength="131" x="158" y="575.7507">VC EDU Use Cases</text></g><!--class VC EDU Models--><g id="elem_VC EDU Models"><rect codeLine="127" fill="#ECF6F4" height="40.2656" id="VC EDU Models" rx="2.5" ry="2.5" style="stroke:#181818;stroke-width:0.5;" width="113" x="7" y="543.7869"/><text fill="#000000" font-family="sans-serif" font-size="12" font-style="italic" lengthAdjust="spacing" textLength="98" x="14.5" y="559.9255">&#171;Work Product&#187;</text><text fill="#0A2A61" font-family="sans-serif" font-size="14" lengthAdjust="spacing" textLength="107" x="10" y="575.7507">VC EDU Models</text></g><!--class 1EdTech Consortium--><g id="elem_1EdTech Consortium"><rect codeLine="132" fill="#ECF6F4" height="40.2656" id="1EdTech Consortium" rx="2.5" ry="2.5" style="stroke:#181818;stroke-width:0.5;" width="152" x="1039.5" y="50.8669"/><text fill="#000000" font-family="sans-serif" font-size="12" font-style="italic" lengthAdjust="spacing" textLength="92" x="1069.5" y="67.0055">&#171;Organization&#187;</text><text fill="#0A2A61" font-family="sans-serif" font-size="14" lengthAdjust="spacing" textLength="146" x="1042.5" y="82.8307">1EdTech Consortium</text></g><!--class Comprehensive\nLearner Record (CLR)--><g id="elem_Comprehensive\nLearner Record (CLR)"><rect codeLine="134" fill="#ECF6F4" height="56.5625" id="Comprehensive\nLearner Record (CLR)" rx="2.5" ry="2.5" style="stroke:#181818;stroke-width:0.5;" width="153" x="959" y="175.6969"/><text fill="#000000" font-family="sans-serif" font-size="12" font-style="italic" lengthAdjust="spacing" textLength="72" x="999.5" y="191.8355">&#171;Standard&#187;</text><text fill="#0A2A61" font-family="sans-serif" font-size="14" lengthAdjust="spacing" textLength="109" x="981" y="207.6607">Comprehensive</text><text fill="#0A2A61" font-family="sans-serif" font-size="14" lengthAdjust="spacing" textLength="147" x="962" y="223.9576">Learner Record (CLR)</text></g><!--class Open Badges--><g id="elem_Open Badges"><rect codeLine="139" fill="#ECF6F4" height="40.2656" id="Open Badges" rx="2.5" ry="2.5" style="stroke:#181818;stroke-width:0.5;" width="101" x="1147" y="183.8469"/><text fill="#000000" font-family="sans-serif" font-size="12" font-style="italic" lengthAdjust="spacing" textLength="72" x="1161.5" y="199.9855">&#171;Standard&#187;</text><text fill="#0A2A61" font-family="sans-serif" font-size="14" lengthAdjust="spacing" textLength="95" x="1150" y="215.8107">Open Badges</text></g><g id="elem_version"><path d="M1227,43.2969 L1227,98.6953 L1474,98.6953 L1474,53.2969 L1464,43.2969 L1227,43.2969 " fill="#F5EDA8" style="stroke:#D99B55;stroke-width:0.5;"/><path d="M1464,43.2969 L1464,53.2969 L1474,53.2969 L1464,43.2969 " fill="#F5EDA8" style="stroke:#D99B55;stroke-width:1.0;"/><text fill="#0A2A61" font-family="sans-serif" font-size="13" lengthAdjust="spacing" textLength="177" x="1233" y="60.3638">Next generation credentials</text><text fill="#0A2A61" font-family="sans-serif" font-size="13" lengthAdjust="spacing" textLength="226" x="1233" y="75.4966">Last modified: 2024/05/24 14:57:23</text><a href="https://www.zotero.org/groups/5541646/nextgencredentials" target="_top" title="Zotero" xlink:actuate="onRequest" xlink:href="https://www.zotero.org/groups/5541646/nextgencredentials" xlink:show="new" xlink:title="Zotero" xlink:type="simple"><text fill="#F5665D" font-family="sans-serif" font-size="13" lengthAdjust="spacing" text-decoration="underline" textLength="124" x="1233" y="90.6294">see documentation</text></a></g><!--link W3C to Linked Data--><g id="link_W3C_Linked Data"><path codeLine="69" d="M459.1,91.0369 C416.47,111.6569 360.5,149.0069 360.5,202.9769 C360.5,202.9769 360.5,202.9769 360.5,447.6569 C360.5,483.0169 375.2426,515.7439 387.6626,538.0639 " fill="none" id="W3C-to-Linked Data" style="stroke:#0A2A61;stroke-width:1.0;stroke-dasharray:7.0,7.0;"/><polygon fill="#0A2A61" points="390.58,543.3069,389.6991,533.4975,388.1488,538.9378,382.7085,537.3874,390.58,543.3069" style="stroke:#0A2A61;stroke-width:1.0;"/><text fill="#0A2A61" font-family="sans-serif" font-size="13" lengthAdjust="spacing" textLength="63" x="361.5" y="333.9638">maintains</text></g><!--link Schema org to Linked Data--><g id="link_Schema org_Linked Data"><path codeLine="73" d="M957.66,456.3369 C940.69,459.6169 921.21,463.3769 903.5,466.7869 C734.56,499.3269 539.443,536.709 452.293,553.389 " fill="none" id="Schema org-to-Linked Data" style="stroke:#0A2A61;stroke-width:1.0;stroke-dasharray:7.0,7.0;"/><polygon fill="#0A2A61" points="446.4,554.5169,455.9915,556.7537,451.3109,553.577,454.4876,548.8963,446.4,554.5169" style="stroke:#0A2A61;stroke-width:1.0;"/><text fill="#0A2A61" font-family="sans-serif" font-size="13" lengthAdjust="spacing" textLength="30" x="739.5" y="509.8538">uses</text></g><!--link W3C to EOCred-schema CG--><g id="link_W3C_EOCred-schema CG"><path codeLine="79" d="M553.83,86.8169 C587.9,97.7369 634.83,113.3169 675.5,128.6969 C721.1,145.9469 766.8669,165.4633 802.2569,181.0133 " fill="none" id="W3C-to-EOCred-schema CG" style="stroke:#0A2A61;stroke-width:1.0;stroke-dasharray:7.0,7.0;"/><polygon fill="#0A2A61" points="807.75,183.4269,801.1194,176.1444,803.1724,181.4155,797.9012,183.4685,807.75,183.4269" style="stroke:#0A2A61;stroke-width:1.0;"/><text fill="#0A2A61" font-family="sans-serif" font-size="13" lengthAdjust="spacing" textLength="75" x="715.5" y="141.7638">coordinates</text></g><!--link EOCred-schema CG to Educational Occupationa Credential--><g id="link_EOCred-schema CG_Educational Occupationa Credential"><path codeLine="83" d="M875.43,224.5369 C903.7,247.6469 945.8141,282.0601 974.0441,305.1301 " fill="none" id="EOCred-schema CG-to-Educational Occupationa Credential" style="stroke:#0A2A61;stroke-width:1.0;stroke-dasharray:7.0,7.0;"/><polygon fill="#0A2A61" points="978.69,308.9269,974.2522,300.1345,974.8184,305.7629,969.1899,306.3291,978.69,308.9269" style="stroke:#0A2A61;stroke-width:1.0;"/><text fill="#0A2A61" font-family="sans-serif" font-size="13" lengthAdjust="spacing" textLength="66" x="941.5" y="275.3238">developed</text></g><!--link Educational Occupationa Credential to Schema org--><g id="link_Educational Occupationa Credential_Schema org"><path codeLine="84" d="M1002.5,349.9469 C1002.5,371.2669 1002.5,387.1869 1002.5,408.3969 " fill="none" id="Educational Occupationa Credential-to-Schema org" style="stroke:#0A2A61;stroke-width:1.0;"/><polygon fill="none" points="1002.5,426.3969,1008.5,408.3969,996.5,408.3969,1002.5,426.3969" style="stroke:#0A2A61;stroke-width:1.0;"/></g><!--link W3C to Verifiable credentials WG--><g id="link_W3C_Verifiable credentials WG"><path codeLine="89" d="M528.96,91.6069 C557.4,116.4469 601.581,155.0199 629.861,179.7199 " fill="none" id="W3C-to-Verifiable credentials WG" style="stroke:#0A2A61;stroke-width:1.0;stroke-dasharray:7.0,7.0;"/><polygon fill="#0A2A61" points="634.38,183.6669,630.2328,174.7338,630.6141,180.3777,624.9702,180.7591,634.38,183.6669" style="stroke:#0A2A61;stroke-width:1.0;"/><text fill="#0A2A61" font-family="sans-serif" font-size="13" lengthAdjust="spacing" textLength="75" x="591.5" y="141.7638">coordinates</text></g><!--link Verifiable credentials WG to Verifiable credentials (W3C)--><g id="link_Verifiable credentials WG_Verifiable credentials (W3C)"><path codeLine="95" d="M670.6,224.5369 C687.27,247.6469 711.3214,280.9896 727.9514,304.0596 " fill="none" id="Verifiable credentials WG-to-Verifiable credentials (W3C)" style="stroke:#0A2A61;stroke-width:1.0;stroke-dasharray:7.0,7.0;"/><polygon fill="#0A2A61" points="731.46,308.9269,729.442,299.287,728.5362,304.8708,722.9523,303.965,731.46,308.9269" style="stroke:#0A2A61;stroke-width:1.0;"/><text fill="#0A2A61" font-family="sans-serif" font-size="13" lengthAdjust="spacing" textLength="63" x="710.5" y="275.3238">maintains</text></g><!--link W3C to Credentials CG--><g id="link_W3C_Credentials CG"><path codeLine="105" d="M497.12,91.3669 C483.7,121.6269 461.96,181.8769 474.5,232.2569 C481.62,260.8569 495.6588,285.3232 508.1488,303.9532 " fill="none" id="W3C-to-Credentials CG" style="stroke:#0A2A61;stroke-width:1.0;stroke-dasharray:7.0,7.0;"/><polygon fill="#0A2A61" points="511.49,308.9369,509.8007,299.234,508.7057,304.7838,503.1558,303.6888,511.49,308.9369" style="stroke:#0A2A61;stroke-width:1.0;"/><text fill="#0A2A61" font-family="sans-serif" font-size="13" lengthAdjust="spacing" textLength="75" x="475.5" y="208.5438">coordinates</text></g><!--link Credentials CG to Verifiable Credentials API--><g id="link_Credentials CG_Verifiable Credentials API"><path codeLine="109" d="M527.17,349.8269 C528.4,363.0269 530.24,380.8669 532.5,396.5269 C533.91,406.3069 534.7213,411.234 536.4413,420.214 " fill="none" id="Credentials CG-to-Verifiable Credentials API" style="stroke:#0A2A61;stroke-width:1.0;stroke-dasharray:7.0,7.0;"/><polygon fill="#0A2A61" points="537.57,426.1069,539.8055,416.5151,536.6294,421.1961,531.9484,418.02,537.57,426.1069" style="stroke:#0A2A61;stroke-width:1.0;"/><text fill="#0A2A61" font-family="sans-serif" font-size="13" lengthAdjust="spacing" textLength="63" x="533.5" y="392.5938">maintains</text></g><!--reverse link Verifiable credentials (W3C) to Verifiable Credentials API--><g id="link_Verifiable credentials (W3C)_Verifiable Credentials API"><path codeLine="110" d="M731.618,366.486 C725.398,381.316 721.83,384.5369 706.5,396.5269 C684.25,413.9269 655.94,425.1769 629.08,432.4469 " fill="none" id="Verifiable credentials (W3C)-backto-Verifiable Credentials API" style="stroke:#0A2A61;stroke-width:1.0;"/><polygon fill="none" points="738.58,349.8869,726.085,364.1653,737.151,368.8067,738.58,349.8869" style="stroke:#0A2A61;stroke-width:1.0;"/></g><!--link Credentials CG to Verifiable Issuers and Verifiers--><g id="link_Credentials CG_Verifiable Issuers and Verifiers"><path codeLine="115" d="M555.71,349.9569 C581.96,366.7469 618.1,389.3569 633.5,396.5269 C658.14,408.0069 680.4948,416.2504 705.4648,424.2304 " fill="none" id="Credentials CG-to-Verifiable Issuers and Verifiers" style="stroke:#0A2A61;stroke-width:1.0;stroke-dasharray:7.0,7.0;"/><polygon fill="#0A2A61" points="711.18,426.0569,703.8248,419.507,706.4173,424.5348,701.3895,427.1273,711.18,426.0569" style="stroke:#0A2A61;stroke-width:1.0;"/><text fill="#0A2A61" font-family="sans-serif" font-size="13" lengthAdjust="spacing" textLength="63" x="634.5" y="392.5938">maintains</text></g><!--reverse link Verifiable credentials (W3C) to Verifiable Issuers and Verifiers--><g id="link_Verifiable credentials (W3C)_Verifiable Issuers and Verifiers"><path codeLine="116" d="M756.6671,367.1712 C763.1371,388.4912 768.21,405.1869 774.65,426.3969 " fill="none" id="Verifiable credentials (W3C)-backto-Verifiable Issuers and Verifiers" style="stroke:#0A2A61;stroke-width:1.0;"/><polygon fill="none" points="751.44,349.9469,750.9256,368.9136,762.4085,365.4288,751.44,349.9469" style="stroke:#0A2A61;stroke-width:1.0;"/></g><!--link Credentials CG to VC for Education Task Force--><g id="link_Credentials CG_VC for Education Task Force"><path codeLine="121" d="M471.56,349.9469 C412.99,371.1769 325.6509,402.8322 267.0809,424.0622 " fill="none" id="Credentials CG-to-VC for Education Task Force" style="stroke:#0A2A61;stroke-width:1.0;stroke-dasharray:7.0,7.0;"/><polygon fill="#0A2A61" points="261.44,426.1069,271.2644,426.8005,266.1407,424.403,268.5382,419.2793,261.44,426.1069" style="stroke:#0A2A61;stroke-width:1.0;"/><text fill="#0A2A61" font-family="sans-serif" font-size="13" lengthAdjust="spacing" textLength="75" x="387.5" y="392.5938">coordinates</text></g><!--link VC for Education Task Force to VC EDU Use Cases--><g id="link_VC for Education Task Force_VC EDU Use Cases"><path codeLine="126" d="M210.21,467.2069 C213.17,488.5369 217.0534,516.5041 220.0034,537.7141 " fill="none" id="VC for Education Task Force-to-VC EDU Use Cases" style="stroke:#0A2A61;stroke-width:1.0;stroke-dasharray:7.0,7.0;"/><polygon fill="#0A2A61" points="220.83,543.6569,223.552,534.1916,220.1412,538.7045,215.6283,535.2937,220.83,543.6569" style="stroke:#0A2A61;stroke-width:1.0;"/><text fill="#0A2A61" font-family="sans-serif" font-size="13" lengthAdjust="spacing" textLength="63" x="217.5" y="509.8538">maintains</text></g><!--link VC for Education Task Force to VC EDU Models--><g id="link_VC for Education Task Force_VC EDU Models"><path codeLine="130" d="M181.02,467.2069 C169.14,476.0969 155.01,486.8369 142.5,496.7869 C123.18,512.1569 106.3087,526.2875 90.6387,539.6275 " fill="none" id="VC for Education Task Force-to-VC EDU Models" style="stroke:#0A2A61;stroke-width:1.0;stroke-dasharray:7.0,7.0;"/><polygon fill="#0A2A61" points="86.07,543.5169,95.5159,540.7286,89.8772,540.2757,90.3301,534.637,86.07,543.5169" style="stroke:#0A2A61;stroke-width:1.0;"/><text fill="#0A2A61" font-family="sans-serif" font-size="13" lengthAdjust="spacing" textLength="63" x="143.5" y="509.8538">maintains</text></g><!--link Comprehensive\nLearner Record (CLR) to Verifiable credentials (W3C)--><g id="link_Comprehensive\nLearner Record (CLR)_Verifiable credentials (W3C)"><path codeLine="137" d="M970.42,232.6769 C915.98,255.8469 856.243,281.2694 807.993,301.7994 " fill="none" id="Comprehensive\nLearner Record (CLR)-to-Verifiable credentials (W3C)" style="stroke:#0A2A61;stroke-width:1.0;"/><polygon fill="none" points="791.43,308.8469,810.3422,307.3204,805.6439,296.2784,791.43,308.8469" style="stroke:#0A2A61;stroke-width:1.0;"/></g><!--link Open Badges to Verifiable credentials (W3C)--><g id="link_Open Badges_Verifiable credentials (W3C)"><path codeLine="142" d="M1157.05,224.4569 C1120.93,241.1469 1066.22,264.7269 1016.5,279.2569 C999.72,284.1669 931.4057,296.4239 860.7057,308.6739 " fill="none" id="Open Badges-to-Verifiable credentials (W3C)" style="stroke:#0A2A61;stroke-width:1.0;"/><polygon fill="none" points="842.97,311.7469,861.7301,314.5858,859.6814,302.7619,842.97,311.7469" style="stroke:#0A2A61;stroke-width:1.0;"/></g><!--link Open Badges to Schema org--><g id="link_Open Badges_Schema org"><path codeLine="143" d="M1194.55,224.1469 C1189.18,253.7069 1175.51,311.0369 1145.5,349.5269 C1119.02,383.4969 1093.0587,401.3794 1061.4387,417.7794 " fill="none" id="Open Badges-to-Schema org" style="stroke:#0A2A61;stroke-width:1.0;"/><polygon fill="none" points="1045.46,426.0669,1064.2012,423.1056,1058.6762,412.4532,1045.46,426.0669" style="stroke:#0A2A61;stroke-width:1.0;"/></g><!--link 1EdTech Consortium to Comprehensive\nLearner Record (CLR)--><g id="link_1EdTech Consortium_Comprehensive\nLearner Record (CLR)"><path codeLine="145" d="M1100.37,91.4669 C1092.3,102.1869 1082.43,115.8969 1074.5,128.6969 C1065.22,143.6769 1058.6984,155.7379 1051.5484,169.9379 " fill="none" id="1EdTech Consortium-to-Comprehensive\nLearner Record (CLR)" style="stroke:#0A2A61;stroke-width:1.0;stroke-dasharray:7.0,7.0;"/><polygon fill="#0A2A61" points="1048.85,175.2969,1056.4702,169.0573,1051.0986,170.831,1049.3249,165.4595,1048.85,175.2969" style="stroke:#0A2A61;stroke-width:1.0;"/><text fill="#0A2A61" font-family="sans-serif" font-size="13" lengthAdjust="spacing" textLength="63" x="1075.5" y="141.7638">maintains</text></g><!--link 1EdTech Consortium to Open Badges--><g id="link_1EdTech Consortium_Open Badges"><path codeLine="146" d="M1127.78,91.6069 C1143.32,116.4469 1166.7667,153.881 1182.2267,178.581 " fill="none" id="1EdTech Consortium-to-Open Badges" style="stroke:#0A2A61;stroke-width:1.0;stroke-dasharray:7.0,7.0;"/><polygon fill="#0A2A61" points="1185.41,183.6669,1184.0256,173.9158,1182.7572,179.4286,1177.2444,178.1602,1185.41,183.6669" style="stroke:#0A2A61;stroke-width:1.0;"/><text fill="#0A2A61" font-family="sans-serif" font-size="13" lengthAdjust="spacing" textLength="63" x="1161.5" y="141.7638">maintains</text></g><!--SRC=[pLXjJzj84FxkNp5Nf0Ca79CGfs1Lw482N7LSWu0MtRLLjLaFoGg_QNT3Ibl- -utNJc8dZicfV6WaKBmpddrcdjbdT-Ditw0CHHG7yUWHH0GHVjKmmWWbqoAEW4lqCTA21SgoUXAPHj-3rdwhxUoxJgiDpQRNRdcjbdN1b8OmziMTM7PnFVVGQtSiwooMm8KseHMmo8TOZr627_D9IDCOmnua0JA5e131-lXlh576C9Bn985032MJZvztnbedodESwNJQ-6Oy6h4SESPBEQxRRdRQ7IVDXf8f9B5hRJiMq6SRPY4u9IyRp8-7sE1nw72JPJPiJyU80HZZ7oFEyrUxwNFFE5m6BDAJC80XGJRcttoy4n52SX9C463BTGyF-qVB9iRlOMk_s-fsccNJ9GlmN296i7NQE-kSjSlctEIw_QD-fspg_vKRzr-xFVUaR1n85eqGjlf7HoUkMxRzWq4GJs7hp3tjTm_BjYlqKqEdu_OjQony10mJ_GWXXaEKr1GpJys-NckYb4aVTgxtCg2xC1ih-Wta27O6UpccNQ1d5eblXlsYtsqixs7dTizKSXVCuwMC_GdNbgNkHPGmoSBl6IapEfES4CFbtAdQnourNeE8zwaVQL0rHEnWv0JK2KexTx4CcTOY6Zai2Emqgct2giPOXu459dnNodXgkY8dU35w5aUwP36c8NrBEpRoCvkcUYYAIu0oXrx0b3fPybfqYF7XgSzAV9Fkt7GjlY4qzvT6tx4GeSiI_6eCvj-VZmdAG4JtUJIYFuFoZXRP2fAiSHRsMFeeSrj6xjnMNO4ReODLqvFb_BmkaUYqlTRHCxhqsciU_JAwP9Y1LxS7lLVmvassK8wFNwWO1rwpKrUC3ecujt_monHZqTpmwe8QadIeppJBApEJbUFZRFcdduyVYnDE3ynaDrTEu2SENFI1QQ3IVlviNdWo_xDQDnh7ItDu4391gOf85N5Syp6632Zk2Woemg6Cly6HYah-d8a6v0zbFCKPLc1vC56evlFae4u7HBblP-6WTrxidG8g4_wKjDFmnmB3x83pIP8FV8fw2mhIDbCBBAKeNsWzq-J898WxK5e458nhyO1VIdwLVEJayv63CL_WTg0NX-4a4hIr69UyB8lIBD6rchK7F2O14b6gsIj5AYHUI1eMATSnkfRLGjXYAHTHWN2cZRTufpgnrNIoB3U0xO6F3nZ42Kbr9T7hNhJj7yUbZbiksWUK91Hi661HOk2sr6BVD-PyEd8Uk6EsSTf9AsYkuha6GpNX6oQnGrFiRivvML4UkEtJWhH9IJ5mu4Elh2tBsTJaK9TZ1h4eHOiahSNtRIYkszvvAOEy26MFzVHji6mB2EiMRRc_bqXTXbFDP3M9nNUxbszhzeEAX0wupVceCH9wF1ccPpnYaYKYfP1YhR9OaSKozcK6b_4jRoNFTSMiCN_OTctSKh1dQlPMgGaTretaPyFqz5ppFrkwUNnRPF7jXrbiAkZRtp-yI3tNO7-fibQ7Nx-wOCnKkk3fIW1paOKRfkw13auSAvbOxrwpMMzGgxnOTU7BIsiDkjF-UtXFXxaUdUXcVP7ATDLgsc15qKP61nMRfz4S4zXyhU-3sYncUPQ1hkk1Sc9_foBzCbaPlQUKif0lb4-EhogPsOsWUUhV81-Jt4OgbbfCmj85OUP6Qfn876Eaw2psARgW4nhT4U0AUPnUodiNLxjhvBAi-KtqDKrdX5_bdgJzWGGAaIxgt84Ay6HjDcjsrgXTc_Cq1Wb6SCBy4QgVW4ldeSWUcYWmE5b1NPfa4tHLRnJFJbObIzbsjq65YlIlZrJ4i78msBuMOHA8kqSOFa94PtGrZgVfIIkhgu_aI_aON_DBpkmtdFa05vBEzOMhkGTTEjpJzO_-A19DH74HI099wbNwSusvtzVSHrDxpQspdLx1MmSLhFwV2-FtxFxvP6wZfNigaOsax2dg_m00]--></g></svg>