<?xml version="1.0" encoding="us-ascii" standalone="no"?><svg xmlns="http://www.w3.org/2000/svg" xmlns:xlink="http://www.w3.org/1999/xlink" contentStyleType="text/css" height="738px" preserveAspectRatio="none" style="width:1467px;height:738px;background:#FFFFFF;" version="1.1" viewBox="0 0 1467 738" width="1467px" zoomAndPan="magnify"><defs/><g><text fill="#0A2A61" font-family="sans-serif" font-size="14" font-weight="bold" lengthAdjust="spacing" textLength="104" x="674.75" y="22.9951">All the things</text><!--class W3C--><g id="elem_W3C"><rect codeLine="56" fill="#ECF6F4" height="40.2656" id="W3C" rx="2.5" ry="2.5" style="stroke:#181818;stroke-width:0.5;" width="94" x="530.5" y="198.9769"/><text fill="#000000" font-family="sans-serif" font-size="12" font-style="italic" lengthAdjust="spacing" textLength="92" x="531.5" y="215.1155">&#171;Organization&#187;</text><text fill="#0A2A61" font-family="sans-serif" font-size="14" lengthAdjust="spacing" textLength="32" x="561.5" y="230.9407">W3C</text></g><!--class Linked Data--><g id="elem_Linked Data"><rect codeLine="66" fill="#ECF6F4" height="40.2656" id="Linked Data" rx="2.5" ry="2.5" style="stroke:#181818;stroke-width:0.5;" width="87" x="490" y="692.4769"/><text fill="#000000" font-family="sans-serif" font-size="12" font-style="italic" lengthAdjust="spacing" textLength="72" x="497.5" y="708.6155">&#171;Standard&#187;</text><text fill="#0A2A61" font-family="sans-serif" font-size="14" lengthAdjust="spacing" textLength="81" x="493" y="724.4407">Linked Data</text></g><!--class Schema org--><g id="elem_Schema org"><rect codeLine="70" fill="#ECF6F4" height="40.2656" id="Schema org" rx="2.5" ry="2.5" style="stroke:#181818;stroke-width:0.5;" width="89" x="936" y="575.2169"/><text fill="#000000" font-family="sans-serif" font-size="12" font-style="italic" lengthAdjust="spacing" textLength="72" x="944.5" y="591.3555">&#171;Standard&#187;</text><text fill="#0A2A61" font-family="sans-serif" font-size="14" lengthAdjust="spacing" textLength="83" x="939" y="607.1807">Schema org</text></g><!--class EOCred-schema CG--><g id="elem_EOCred-schema CG"><rect codeLine="74" fill="#ECF6F4" height="40.2656" id="EOCred-schema CG" rx="2.5" ry="2.5" style="stroke:#181818;stroke-width:0.5;" width="144" x="863.5" y="332.5369"/><text fill="#000000" font-family="sans-serif" font-size="12" font-style="italic" lengthAdjust="spacing" textLength="92" x="889.5" y="348.6755">&#171;Organization&#187;</text><text fill="#0A2A61" font-family="sans-serif" font-size="14" lengthAdjust="spacing" textLength="138" x="866.5" y="364.5007">EOCred-schema CG</text></g><!--class Educational Occupationa Credential--><g id="elem_Educational Occupationa Credential"><rect codeLine="80" fill="#ECF6F4" height="40.2656" id="Educational Occupationa Credential" rx="2.5" ry="2.5" style="stroke:#181818;stroke-width:0.5;" width="251" x="855" y="457.9469"/><text fill="#000000" font-family="sans-serif" font-size="12" font-style="italic" lengthAdjust="spacing" textLength="72" x="944.5" y="474.0855">&#171;Standard&#187;</text><text fill="#0A2A61" font-family="sans-serif" font-size="14" lengthAdjust="spacing" textLength="245" x="858" y="489.9107">Educational Occupationa Credential</text></g><!--class Verifiable credentials WG--><g id="elem_Verifiable credentials WG"><rect codeLine="85" fill="#ECF6F4" height="40.2656" id="Verifiable credentials WG" rx="2.5" ry="2.5" style="stroke:#181818;stroke-width:0.5;" width="176" x="639.5" y="332.5369"/><text fill="#000000" font-family="sans-serif" font-size="12" font-style="italic" lengthAdjust="spacing" textLength="92" x="681.5" y="348.6755">&#171;Organization&#187;</text><text fill="#0A2A61" font-family="sans-serif" font-size="14" lengthAdjust="spacing" textLength="170" x="642.5" y="364.5007">Verifiable credentials WG</text></g><!--class Verifiable credentials (W3C)--><g id="elem_Verifiable credentials (W3C)"><rect codeLine="91" fill="#ECF6F4" height="40.2656" id="Verifiable credentials (W3C)" rx="2.5" ry="2.5" style="stroke:#181818;stroke-width:0.5;" width="194" x="626.5" y="457.9469"/><text fill="#000000" font-family="sans-serif" font-size="12" font-style="italic" lengthAdjust="spacing" textLength="72" x="687.5" y="474.0855">&#171;Standard&#187;</text><text fill="#0A2A61" font-family="sans-serif" font-size="14" lengthAdjust="spacing" textLength="188" x="629.5" y="489.9107">Verifiable credentials (W3C)</text></g><!--class Credentials CG--><g id="elem_Credentials CG"><rect codeLine="102" fill="#ECF6F4" height="40.2656" id="Credentials CG" rx="2.5" ry="2.5" style="stroke:#181818;stroke-width:0.5;" width="109" x="474" y="457.9469"/><text fill="#000000" font-family="sans-serif" font-size="12" font-style="italic" lengthAdjust="spacing" textLength="92" x="482.5" y="474.0855">&#171;Organization&#187;</text><text fill="#0A2A61" font-family="sans-serif" font-size="14" lengthAdjust="spacing" textLength="103" x="477" y="489.9107">Credentials CG</text></g><!--class Verifiable Credentials API--><g id="elem_Verifiable Credentials API"><rect codeLine="106" fill="#ECF6F4" height="40.2656" id="Verifiable Credentials API" rx="2.5" ry="2.5" style="stroke:#181818;stroke-width:0.5;" width="175" x="445" y="575.2169"/><text fill="#000000" font-family="sans-serif" font-size="12" font-style="italic" lengthAdjust="spacing" textLength="72" x="496.5" y="591.3555">&#171;Standard&#187;</text><text fill="#0A2A61" font-family="sans-serif" font-size="14" lengthAdjust="spacing" textLength="169" x="448" y="607.1807">Verifiable Credentials API</text></g><!--class Verifiable Issuers and Verifiers--><g id="elem_Verifiable Issuers and Verifiers"><rect codeLine="112" fill="#ECF6F4" height="40.2656" id="Verifiable Issuers and Verifiers" rx="2.5" ry="2.5" style="stroke:#181818;stroke-width:0.5;" width="211" x="658" y="575.2169"/><text fill="#000000" font-family="sans-serif" font-size="12" font-style="italic" lengthAdjust="spacing" textLength="72" x="727.5" y="591.3555">&#171;Standard&#187;</text><text fill="#0A2A61" font-family="sans-serif" font-size="14" lengthAdjust="spacing" textLength="205" x="661" y="607.1807">Verifiable Issuers and Verifiers</text></g><!--class VC for Education Task Force--><g id="elem_VC for Education Task Force"><rect codeLine="119" fill="#ECF6F4" height="40.2656" id="VC for Education Task Force" rx="2.5" ry="2.5" style="stroke:#181818;stroke-width:0.5;" width="200" x="102.5" y="575.2169"/><text fill="#000000" font-family="sans-serif" font-size="12" font-style="italic" lengthAdjust="spacing" textLength="92" x="156.5" y="591.3555">&#171;Organization&#187;</text><text fill="#0A2A61" font-family="sans-serif" font-size="14" lengthAdjust="spacing" textLength="194" x="105.5" y="607.1807">VC for Education Task Force</text></g><!--class VC EDU Use Cases--><g id="elem_VC EDU Use Cases"><rect codeLine="123" fill="#ECF6F4" height="40.2656" id="VC EDU Use Cases" rx="2.5" ry="2.5" style="stroke:#181818;stroke-width:0.5;" width="137" x="7" y="692.4769"/><text fill="#000000" font-family="sans-serif" font-size="12" font-style="italic" lengthAdjust="spacing" textLength="98" x="26.5" y="708.6155">&#171;Work Product&#187;</text><text fill="#0A2A61" font-family="sans-serif" font-size="14" lengthAdjust="spacing" textLength="131" x="10" y="724.4407">VC EDU Use Cases</text></g><!--class VC EDU Models--><g id="elem_VC EDU Models"><rect codeLine="127" fill="#ECF6F4" height="40.2656" id="VC EDU Models" rx="2.5" ry="2.5" style="stroke:#181818;stroke-width:0.5;" width="113" x="179" y="692.4769"/><text fill="#000000" font-family="sans-serif" font-size="12" font-style="italic" lengthAdjust="spacing" textLength="98" x="186.5" y="708.6155">&#171;Work Product&#187;</text><text fill="#0A2A61" font-family="sans-serif" font-size="14" lengthAdjust="spacing" textLength="107" x="182" y="724.4407">VC EDU Models</text></g><!--class 1EdTech Consortium--><g id="elem_1EdTech Consortium"><rect codeLine="132" fill="#ECF6F4" height="40.2656" id="1EdTech Consortium" rx="2.5" ry="2.5" style="stroke:#181818;stroke-width:0.5;" width="152" x="985.5" y="58.4269"/><text fill="#000000" font-family="sans-serif" font-size="12" font-style="italic" lengthAdjust="spacing" textLength="92" x="1015.5" y="74.5655">&#171;Organization&#187;</text><text fill="#0A2A61" font-family="sans-serif" font-size="14" lengthAdjust="spacing" textLength="146" x="988.5" y="90.3907">1EdTech Consortium</text></g><!--class Open Badges--><g id="elem_Open Badges"><rect codeLine="134" fill="#ECF6F4" height="40.2656" id="Open Badges" rx="2.5" ry="2.5" style="stroke:#181818;stroke-width:0.5;" width="101" x="1076" y="332.5369"/><text fill="#000000" font-family="sans-serif" font-size="12" font-style="italic" lengthAdjust="spacing" textLength="72" x="1090.5" y="348.6755">&#171;Standard&#187;</text><text fill="#0A2A61" font-family="sans-serif" font-size="14" lengthAdjust="spacing" textLength="95" x="1079" y="364.5007">Open Badges</text></g><!--class Comprehensive\nLearner Record (CLR)--><g id="elem_Comprehensive\nLearner Record (CLR)"><rect codeLine="144" fill="#ECF6F4" height="56.5625" id="Comprehensive\nLearner Record (CLR)" rx="2.5" ry="2.5" style="stroke:#181818;stroke-width:0.5;" width="153" x="1133" y="190.8269"/><text fill="#000000" font-family="sans-serif" font-size="12" font-style="italic" lengthAdjust="spacing" textLength="72" x="1173.5" y="206.9655">&#171;Standard&#187;</text><text fill="#0A2A61" font-family="sans-serif" font-size="14" lengthAdjust="spacing" textLength="109" x="1155" y="222.7907">Comprehensive</text><text fill="#0A2A61" font-family="sans-serif" font-size="14" lengthAdjust="spacing" textLength="147" x="1136" y="239.0876">Learner Record (CLR)</text></g><!--class Credential Engine--><g id="elem_Credential Engine"><rect codeLine="153" fill="#ECF6F4" height="40.2656" id="Credential Engine" rx="2.5" ry="2.5" style="stroke:#181818;stroke-width:0.5;" width="128" x="1321.5" y="198.9769"/><text fill="#000000" font-family="sans-serif" font-size="12" font-style="italic" lengthAdjust="spacing" textLength="92" x="1339.5" y="215.1155">&#171;Organization&#187;</text><text fill="#0A2A61" font-family="sans-serif" font-size="14" lengthAdjust="spacing" textLength="122" x="1324.5" y="230.9407">Credential Engine</text></g><!--class Credential Transparency\nDescription Language (CTDL)--><g id="elem_Credential Transparency\nDescription Language (CTDL)"><rect codeLine="156" fill="#ECF6F4" height="56.5625" id="Credential Transparency\nDescription Language (CTDL)" rx="2.5" ry="2.5" style="stroke:#181818;stroke-width:0.5;" width="208" x="1252.5" y="324.3869"/><text fill="#000000" font-family="sans-serif" font-size="12" font-style="italic" lengthAdjust="spacing" textLength="72" x="1320.5" y="340.5255">&#171;Standard&#187;</text><text fill="#0A2A61" font-family="sans-serif" font-size="14" lengthAdjust="spacing" textLength="168" x="1272.5" y="356.3507">Credential Transparency</text><text fill="#0A2A61" font-family="sans-serif" font-size="14" lengthAdjust="spacing" textLength="202" x="1255.5" y="372.6476">Description Language (CTDL)</text></g><g id="elem_version"><path d="M1173,43.2969 L1173,113.8281 L1420,113.8281 L1420,53.2969 L1410,43.2969 L1173,43.2969 " fill="#F5EDA8" style="stroke:#D99B55;stroke-width:0.5;"/><path d="M1410,43.2969 L1410,53.2969 L1420,53.2969 L1410,43.2969 " fill="#F5EDA8" style="stroke:#D99B55;stroke-width:1.0;"/><text fill="#0A2A61" font-family="sans-serif" font-size="13" lengthAdjust="spacing" textLength="177" x="1179" y="60.3638">Next generation credentials</text><text fill="#0A2A61" font-family="sans-serif" font-size="13" lengthAdjust="spacing" textLength="226" x="1179" y="75.4966">Last modified: 2024/05/24 18:53:54</text><text fill="#0A2A61" font-family="sans-serif" font-size="13" lengthAdjust="spacing" textLength="88" x="1179" y="90.6294">See readings:</text><text fill="#0A2A61" font-family="sans-serif" font-size="13" lengthAdjust="spacing" textLength="172" x="1179" y="105.7622">https://bit.ly/NextGenCreds</text></g><!--link W3C to Linked Data--><g id="link_W3C_Linked Data"><path codeLine="69" d="M530.15,226.7369 C464.95,238.8369 355.5,271.1369 355.5,351.6669 C355.5,351.6669 355.5,351.6669 355.5,596.3469 C355.5,660.2269 431.4308,689.0455 484.1308,701.8955 " fill="none" id="W3C-to-Linked Data" style="stroke:#0A2A61;stroke-width:1.0;stroke-dasharray:7.0,7.0;"/><polygon fill="#0A2A61" points="489.96,703.3169,482.1637,697.2987,485.1023,702.1324,480.2686,705.071,489.96,703.3169" style="stroke:#0A2A61;stroke-width:1.0;"/><text fill="#0A2A61" font-family="sans-serif" font-size="13" lengthAdjust="spacing" textLength="63" x="356.5" y="482.6538">maintains</text></g><!--link Schema org to Linked Data--><g id="link_Schema org_Linked Data"><path codeLine="73" d="M935.59,607.9269 C849.58,630.1069 668.3999,676.8287 583.1999,698.7987 " fill="none" id="Schema org-to-Linked Data" style="stroke:#0A2A61;stroke-width:1.0;stroke-dasharray:7.0,7.0;"/><polygon fill="#0A2A61" points="577.39,700.2969,587.1037,701.9229,582.2316,699.0484,585.1061,694.1763,577.39,700.2969" style="stroke:#0A2A61;stroke-width:1.0;"/><text fill="#0A2A61" font-family="sans-serif" font-size="13" lengthAdjust="spacing" textLength="30" x="785.5" y="658.5438">uses</text></g><!--link W3C to EOCred-schema CG--><g id="link_W3C_EOCred-schema CG"><path codeLine="79" d="M624.7,235.4369 C658.71,246.6469 705.62,262.4369 746.5,277.3869 C794.84,295.0669 843.956,314.5014 882.016,329.8614 " fill="none" id="W3C-to-EOCred-schema CG" style="stroke:#0A2A61;stroke-width:1.0;stroke-dasharray:7.0,7.0;"/><polygon fill="#0A2A61" points="887.58,332.1069,880.731,325.0293,882.9434,330.2356,877.7371,332.448,887.58,332.1069" style="stroke:#0A2A61;stroke-width:1.0;"/><text fill="#0A2A61" font-family="sans-serif" font-size="13" lengthAdjust="spacing" textLength="75" x="789.5" y="290.4538">coordinates</text></g><!--link EOCred-schema CG to Educational Occupationa Credential--><g id="link_EOCred-schema CG_Educational Occupationa Credential"><path codeLine="83" d="M942.63,373.2269 C951.06,396.3369 962.935,428.9098 971.345,451.9798 " fill="none" id="EOCred-schema CG-to-Educational Occupationa Credential" style="stroke:#0A2A61;stroke-width:1.0;stroke-dasharray:7.0,7.0;"/><polygon fill="#0A2A61" points="973.4,457.6169,974.0756,447.7912,971.6875,452.9193,966.5595,450.5312,973.4,457.6169" style="stroke:#0A2A61;stroke-width:1.0;"/><text fill="#0A2A61" font-family="sans-serif" font-size="13" lengthAdjust="spacing" textLength="66" x="963.5" y="424.0138">developed</text></g><!--link Educational Occupationa Credential to Schema org--><g id="link_Educational Occupationa Credential_Schema org"><path codeLine="84" d="M980.5,498.6369 C980.5,519.9569 980.5,535.8769 980.5,557.0869 " fill="none" id="Educational Occupationa Credential-to-Schema org" style="stroke:#0A2A61;stroke-width:1.0;"/><polygon fill="none" points="980.5,575.0869,986.5,557.0869,974.5,557.0869,980.5,575.0869" style="stroke:#0A2A61;stroke-width:1.0;"/></g><!--link W3C to Verifiable credentials WG--><g id="link_W3C_Verifiable credentials WG"><path codeLine="89" d="M599.63,239.5169 C627.99,264.3969 672.3586,303.3112 700.7686,328.2212 " fill="none" id="W3C-to-Verifiable credentials WG" style="stroke:#0A2A61;stroke-width:1.0;stroke-dasharray:7.0,7.0;"/><polygon fill="#0A2A61" points="705.28,332.1769,701.15,323.2358,701.5205,328.8805,695.8758,329.251,705.28,332.1769" style="stroke:#0A2A61;stroke-width:1.0;"/><text fill="#0A2A61" font-family="sans-serif" font-size="13" lengthAdjust="spacing" textLength="75" x="662.5" y="290.4538">coordinates</text></g><!--link Verifiable credentials WG to Verifiable credentials (W3C)--><g id="link_Verifiable credentials WG_Verifiable credentials (W3C)"><path codeLine="95" d="M726.87,373.2269 C726.12,396.3369 725.075,428.55 724.325,451.62 " fill="none" id="Verifiable credentials WG-to-Verifiable credentials (W3C)" style="stroke:#0A2A61;stroke-width:1.0;stroke-dasharray:7.0,7.0;"/><polygon fill="#0A2A61" points="724.13,457.6169,728.4203,448.7516,724.2925,452.6195,720.4245,448.4917,724.13,457.6169" style="stroke:#0A2A61;stroke-width:1.0;"/><text fill="#0A2A61" font-family="sans-serif" font-size="13" lengthAdjust="spacing" textLength="63" x="727.5" y="424.0138">maintains</text></g><!--link W3C to Credentials CG--><g id="link_W3C_Credentials CG"><path codeLine="105" d="M570.38,239.4269 C563.02,260.1469 551.76,294.1569 545.5,324.3869 C535.7,371.6669 531.621,422.4277 529.861,451.6277 " fill="none" id="W3C-to-Credentials CG" style="stroke:#0A2A61;stroke-width:1.0;stroke-dasharray:7.0,7.0;"/><polygon fill="#0A2A61" points="529.5,457.6169,534.0342,448.8738,529.8008,452.6259,526.0487,448.3925,529.5,457.6169" style="stroke:#0A2A61;stroke-width:1.0;"/><text fill="#0A2A61" font-family="sans-serif" font-size="13" lengthAdjust="spacing" textLength="75" x="546.5" y="357.2338">coordinates</text></g><!--link Credentials CG to Verifiable Credentials API--><g id="link_Credentials CG_Verifiable Credentials API"><path codeLine="109" d="M527.54,498.4869 C527.05,511.6669 526.7,529.5069 527.5,545.2169 C528,554.9769 528.3701,559.8244 529.3801,568.8144 " fill="none" id="Credentials CG-to-Verifiable Credentials API" style="stroke:#0A2A61;stroke-width:1.0;stroke-dasharray:7.0,7.0;"/><polygon fill="#0A2A61" points="530.05,574.7769,533.0202,565.3866,529.4918,569.8081,525.0702,566.2797,530.05,574.7769" style="stroke:#0A2A61;stroke-width:1.0;"/><text fill="#0A2A61" font-family="sans-serif" font-size="13" lengthAdjust="spacing" textLength="63" x="528.5" y="541.2838">maintains</text></g><!--reverse link Verifiable credentials (W3C) to Verifiable Credentials API--><g id="link_Verifiable credentials (W3C)_Verifiable Credentials API"><path codeLine="110" d="M719.1202,516.2271 C716.8502,530.9671 714.23,532.9669 701.5,545.2169 C689.06,557.1869 654.68,568.1669 620.14,576.6869 " fill="none" id="Verifiable credentials (W3C)-backto-Verifiable Credentials API" style="stroke:#0A2A61;stroke-width:1.0;"/><polygon fill="none" points="721.86,498.4369,713.1902,515.3139,725.0503,517.1404,721.86,498.4369" style="stroke:#0A2A61;stroke-width:1.0;"/></g><!--link Credentials CG to Verifiable Issuers and Verifiers--><g id="link_Credentials CG_Verifiable Issuers and Verifiers"><path codeLine="115" d="M568.36,498.6369 C611.71,519.8969 675.1837,551.0235 718.4437,572.2535 " fill="none" id="Credentials CG-to-Verifiable Issuers and Verifiers" style="stroke:#0A2A61;stroke-width:1.0;stroke-dasharray:7.0,7.0;"/><polygon fill="#0A2A61" points="723.83,574.8969,717.5127,567.3409,719.3414,572.6941,713.9883,574.5227,723.83,574.8969" style="stroke:#0A2A61;stroke-width:1.0;"/><text fill="#0A2A61" font-family="sans-serif" font-size="13" lengthAdjust="spacing" textLength="63" x="661.5" y="541.2838">maintains</text></g><!--reverse link Verifiable credentials (W3C) to Verifiable Issuers and Verifiers--><g id="link_Verifiable credentials (W3C)_Verifiable Issuers and Verifiers"><path codeLine="116" d="M737.9516,515.3365 C741.4816,524.3065 739.04,518.3769 742.5,528.2169 C747.98,543.7869 753.61,561.6269 757.66,574.8569 " fill="none" id="Verifiable credentials (W3C)-backto-Verifiable Issuers and Verifiers" style="stroke:#0A2A61;stroke-width:1.0;"/><polygon fill="none" points="731.36,498.5869,732.3683,517.5337,743.5348,513.1394,731.36,498.5869" style="stroke:#0A2A61;stroke-width:1.0;"/></g><!--link Credentials CG to VC for Education Task Force--><g id="link_Credentials CG_VC for Education Task Force"><path codeLine="121" d="M473.57,498.5069 C413.59,519.7069 323.757,551.4772 263.587,572.7472 " fill="none" id="Credentials CG-to-VC for Education Task Force" style="stroke:#0A2A61;stroke-width:1.0;stroke-dasharray:7.0,7.0;"/><polygon fill="#0A2A61" points="257.93,574.7469,267.7486,575.5186,262.6441,573.0804,265.0823,567.976,257.93,574.7469" style="stroke:#0A2A61;stroke-width:1.0;"/><text fill="#0A2A61" font-family="sans-serif" font-size="13" lengthAdjust="spacing" textLength="75" x="386.5" y="541.2838">coordinates</text></g><!--link VC for Education Task Force to VC EDU Use Cases--><g id="link_VC for Education Task Force_VC EDU Use Cases"><path codeLine="126" d="M178.8,615.8669 C168.18,624.7569 155.58,635.4969 144.5,645.4769 C127.49,660.8069 113.0579,674.63 99.4079,687.99 " fill="none" id="VC for Education Task Force-to-VC EDU Use Cases" style="stroke:#0A2A61;stroke-width:1.0;stroke-dasharray:7.0,7.0;"/><polygon fill="#0A2A61" points="95.12,692.1869,104.3498,688.7502,98.6933,688.6895,98.754,683.033,95.12,692.1869" style="stroke:#0A2A61;stroke-width:1.0;"/><text fill="#0A2A61" font-family="sans-serif" font-size="13" lengthAdjust="spacing" textLength="63" x="145.5" y="658.5438">maintains</text></g><!--link VC for Education Task Force to VC EDU Models--><g id="link_VC for Education Task Force_VC EDU Models"><path codeLine="130" d="M208.1,615.8969 C214.2,637.2269 222.2592,665.3685 228.3292,686.5785 " fill="none" id="VC for Education Task Force-to-VC EDU Models" style="stroke:#0A2A61;stroke-width:1.0;stroke-dasharray:7.0,7.0;"/><polygon fill="#0A2A61" points="229.98,692.3469,231.3494,682.5937,228.6043,687.5399,223.6581,684.7948,229.98,692.3469" style="stroke:#0A2A61;stroke-width:1.0;"/><text fill="#0A2A61" font-family="sans-serif" font-size="13" lengthAdjust="spacing" textLength="63" x="222.5" y="658.5438">maintains</text></g><!--link Open Badges to Verifiable credentials (W3C)--><g id="link_Open Badges_Verifiable credentials (W3C)"><path codeLine="137" d="M1109.4,373.2669 C1093.04,390.6469 1066.74,415.1869 1038.5,427.9469 C956.2,465.1569 926.71,443.8069 837.5,457.9469 C832.05,458.8169 844.2202,456.8497 838.5802,457.7597 " fill="none" id="Open Badges-to-Verifiable credentials (W3C)" style="stroke:#0A2A61;stroke-width:1.0;"/><polygon fill="none" points="820.81,460.6269,839.5359,463.6831,837.6245,451.8363,820.81,460.6269" style="stroke:#0A2A61;stroke-width:1.0;"/></g><!--link Open Badges to Schema org--><g id="link_Open Badges_Schema org"><path codeLine="138" d="M1131.38,372.8669 C1137.67,401.9769 1145.4,458.1169 1123.5,498.2169 C1102.57,536.5469 1075.4056,555.0204 1041.8256,570.1804 " fill="none" id="Open Badges-to-Schema org" style="stroke:#0A2A61;stroke-width:1.0;"/><polygon fill="none" points="1025.42,577.5869,1044.2944,575.6489,1039.3568,564.7119,1025.42,577.5869" style="stroke:#0A2A61;stroke-width:1.0;"/></g><!--link 1EdTech Consortium to Comprehensive\nLearner Record (CLR)--><g id="link_1EdTech Consortium_Comprehensive\nLearner Record (CLR)"><path codeLine="140" d="M1082.39,99.1169 C1107.89,122.9869 1146.7901,159.3961 1175.6601,186.4261 " fill="none" id="1EdTech Consortium-to-Comprehensive\nLearner Record (CLR)" style="stroke:#0A2A61;stroke-width:1.0;stroke-dasharray:7.0,7.0;"/><polygon fill="#0A2A61" points="1180.04,190.5269,1176.204,181.4558,1176.3901,187.1096,1170.7363,187.2957,1180.04,190.5269" style="stroke:#0A2A61;stroke-width:1.0;"/><text fill="#0A2A61" font-family="sans-serif" font-size="13" lengthAdjust="spacing" textLength="63" x="1145.5" y="156.8938">maintains</text></g><!--link 1EdTech Consortium to Open Badges--><g id="link_1EdTech Consortium_Open Badges"><path codeLine="141" d="M1055.64,99.0169 C1047.04,130.8969 1033.72,195.8869 1050.5,247.3869 C1061.46,281.0469 1083.6932,308.5405 1102.2832,327.9805 " fill="none" id="1EdTech Consortium-to-Open Badges" style="stroke:#0A2A61;stroke-width:1.0;stroke-dasharray:7.0,7.0;"/><polygon fill="#0A2A61" points="1106.43,332.3169,1103.1008,323.0478,1102.9744,328.7032,1097.3189,328.5768,1106.43,332.3169" style="stroke:#0A2A61;stroke-width:1.0;"/><text fill="#0A2A61" font-family="sans-serif" font-size="13" lengthAdjust="spacing" textLength="63" x="1051.5" y="223.6738">maintains</text></g><!--link Comprehensive\nLearner Record (CLR) to Open Badges--><g id="link_Comprehensive\nLearner Record (CLR)_Open Badges"><path codeLine="147" d="M1192.1,247.6869 C1176.13,273.0069 1162.4791,294.6563 1148.3691,317.0063 " fill="none" id="Comprehensive\nLearner Record (CLR)-to-Open Badges" style="stroke:#0A2A61;stroke-width:1.0;"/><polygon fill="none" points="1138.76,332.2269,1153.4426,320.2093,1143.2955,313.8033,1138.76,332.2269" style="stroke:#0A2A61;stroke-width:1.0;"/></g><!--link Credential Engine to Credential Transparency\nDescription Language (CTDL)--><g id="link_Credential Engine_Credential Transparency\nDescription Language (CTDL)"><path codeLine="157" d="M1381.22,239.5169 C1376.31,261.8169 1369.4913,292.7275 1363.9113,318.0475 " fill="none" id="Credential Engine-to-Credential Transparency\nDescription Language (CTDL)" style="stroke:#0A2A61;stroke-width:1.0;stroke-dasharray:7.0,7.0;"/><polygon fill="#0A2A61" points="1362.62,323.9069,1368.4632,315.9786,1363.6961,319.024,1360.6507,314.2569,1362.62,323.9069" style="stroke:#0A2A61;stroke-width:1.0;"/><text fill="#0A2A61" font-family="sans-serif" font-size="13" lengthAdjust="spacing" textLength="63" x="1374.5" y="290.4538">maintains</text></g><!--link Comprehensive\nLearner Record (CLR) to Credential Transparency\nDescription Language (CTDL)--><g id="link_Comprehensive\nLearner Record (CLR)_Credential Transparency\nDescription Language (CTDL)"><path codeLine="158" d="M1240.32,247.6869 C1265.32,270.0669 1286.9978,289.4622 1312.0578,311.8922 " fill="none" id="Comprehensive\nLearner Record (CLR)-to-Credential Transparency\nDescription Language (CTDL)" style="stroke:#0A2A61;stroke-width:1.0;"/><polygon fill="none" points="1325.47,323.8969,1316.0593,307.4215,1308.0562,316.363,1325.47,323.8969" style="stroke:#0A2A61;stroke-width:1.0;"/></g><!--SRC=[pLXjJzj84FxkNp5Nf0Ca4fE0Kx0gT241hZgk84YBxjggsgmNPuMzjdOtfEdBVx_PjPFOYMFI7X_A1nHxni_Ep3CpExlkze39c8iaIi8fS062VTOGCi4aqJmHG2KBcD2SHCfnUf8HpG8VslljGtVVSzk7q6hvXss_tNOkYT8G9m6_vyig7TyxzhsMuvmd4YZN5be14G4aUiGa10aTnxYC5Un16Z6Y62Z6m7d_RwAPJ22KoJY5Y0ybaTEFEoEjK-MxxcGoQNwn6ir4XgxLKgxd7ROwXntNU8FE59pOTRPT1_1l6sOG59sNJH8aGzQaIUnIwsNskZ4PCHQ15VuHKff_sZNFFQjm7H6Xnt44GpJPYdyBs3qN3DBJQCm0jZplwAX_l2mYz06szhljRgTL5bsJY5r8nWHidVNEE-U7PN4kyhp-SRzJ5lN_oeNxBxsUTreMNaaYGWPR_UFZKyyho_vXKPHCOElSE-jtZygo6nOOGQVZzHrdn0C6B4xr568M3vd4f9XfQlBvLYEbH0QmSxkN6ReBitT5lIiPmixLNcxJBk0p4VoBPR-eTvV81zYvsxEHt0NxU2sJO4oruwW7Bb8YIVmr8sL6PveJOhcSArNhD4g9rqJY0yn7VAcQF76PS2FC1ANT-qJ6H6ikGfT4KSEWDYoiQevq73bWuRjI9XER5Jd1YxVdYT0bIMRF47-Qb1L19jGO48N0Q17q4x6jiJ90ZxY28QDaZ3MHt8FWuSXM6ijGUX5HwdG9QP56LeSQdHKZh0rpqIt_mg2rl_Js3OaPT4dAFbk1_VVdD6Kouk8XHyCSoKnvWvMuOacMNGjv8WCcSrcM0NDPTPW6N4Uhek-E-_-Rb-TxXtxxkAvveSfBltNyopGlomoyk3lelO1Nhx9gEZbvfc0S-ArEVITlj_tzWryc68laXXUNc93OhFf4apmoizvpSfBr2FFt_drnmSc1NMnmuqP1wi9b7uW63Et7Z_Q3x_P_5kjcysHf3HzYmj5LBbJHZbiwOZ41n5qn0whiK5RVsc4wJ_wSTHR87yhs55TOCSi7x1DglavkrDaLKXuqCZZeNHHpfs2LXJ_31clv8v5bzehISPg_-21w2mfCcgc5BIMKJrZFk3WZ4lWzACqZ1AEQFx9F9RrAFdBoQUYoX2xiTg6NnF5OSDn_h4eUbaLebkXQzTe7cc03ui8qzfKW5HmlE0qBb-iONSjg0ROOoWKge9qcyHRVL3kswaxcvGPc-n2mHnObARRgIgBNVTXeV3ifPTnoqDunYOs232DMR35mLqgnhnjpFWdTH-hQlHwtsmgQgtYkiQ6Qy0sTsC4bTZVdlDnH7caZm89ic9qwSk5ThznRbhsfyQ7Enyp4OYjQEEaiVcz3iMvx5oKFyY2KDTRJjq7P5YoiAzfoVY-HkcnEDPFL91Q_xLw_hjaFAXmwe0rAmsR8zMWyD8CWCabIRYX4h5KMAxnOjdsPmMNxbhUIfx9YbfZV6erQt1BO4p5xhTGO9thRyhFN-FHKyZyPkZb-WsVuZSSPDWRqzU_ldYMUQsn_hh1Mmw-lBXWHPGeUpmqmRx8m8Ee1S72Yh9A9zUerc_K6iSg3LGTVBgqrrftrty9R7EPwED7DyiAqwQfgsg2YS2F3GQL13PfhWUtF-ZoezMBcPzdGTJbGTknlqwIVnolRxz6b3FAP_Cdjgt9cTY9edGK3HaVOReLAfERZk7H0cAbTfKp0AGb2fjQqnN9lRx508wnjy2hNL2uE4g8nj2XmTMfgEDT3VxyxvKMo4QAsv2g_A0uTJgLxsJwHnAba8oOK3fSVn2MEd7ZeWHj64tCLqRkyAU-Fwv6ADfHsr5diDbdgvsDA8ma8iHBCZLRDGbRq08-4pc34BEJyPYR2AL0ImneUrw2W3ZCxR9FZ2Zj2REP1mzS4CzpeEyWLhDbjp5S6iZZLYj1SvDoma2ijfqrxO5kPDNArYXutlw2RwpAhQiE6WLc56iplJ-ZqW-WpHILFRLrT4X6EqMyCrw1_kSgIKsNHqXZo8_2bhUT76FofvR8xcriUfn6_dy9m2W9FNsgKJCmCdSKfO6WC4fM5rbpapQxmvYyebtXYArow-D35OvkXLOyG2Ii1SHdWvePPfCnjdRsvgRbfCFAQ-uGZS-NWPLUSjuo1kO4p2_cb11XotOochbddWja3g78OvfinvZy0]--></g></svg>