<?xml version="1.0" encoding="us-ascii" standalone="no"?><svg xmlns="http://www.w3.org/2000/svg" xmlns:xlink="http://www.w3.org/1999/xlink" contentStyleType="text/css" height="708px" preserveAspectRatio="none" style="width:690px;height:708px;background:#FFFFFF;" version="1.1" viewBox="0 0 690 708" width="690px" zoomAndPan="magnify"><defs/><g><text fill="#0A2A61" font-family="sans-serif" font-size="14" font-weight="bold" lengthAdjust="spacing" textLength="250" x="213.25" y="22.9951">W3C and the FedCM community</text><!--class W3C--><g id="elem_W3C"><rect codeLine="60" fill="#ECF6F4" height="40.2656" id="W3C" rx="2.5" ry="2.5" style="stroke:#181818;stroke-width:0.5;" width="120" x="281" y="58.4269"/><ellipse cx="296" cy="78.5597" fill="#D99B55" rx="11" ry="11" style="stroke:#181818;stroke-width:1.0;"/><path d="M296.1094,74.1378 Q295.1719,74.1378 294.7344,75.1378 Q294.3125,76.1378 294.3125,78.3722 Q294.3125,80.6066 294.7344,81.6066 Q295.1719,82.6066 296.1094,82.6066 Q297.0625,82.6066 297.4844,81.6066 Q297.9219,80.6066 297.9219,78.3722 Q297.9219,76.1378 297.4844,75.1378 Q297.0625,74.1378 296.1094,74.1378 Z M291.7656,78.3722 Q291.7656,75.2003 292.8594,73.5753 Q293.9688,71.9347 296.1094,71.9347 Q298.2656,71.9347 299.3594,73.5753 Q300.4688,75.2003 300.4688,78.3722 Q300.4688,81.5441 299.3594,83.1691 Q298.2656,84.7941 296.1094,84.7941 Q293.9688,84.7941 292.8594,83.1691 Q291.7656,81.5441 291.7656,78.3722 Z " fill="#000000"/><text fill="#000000" font-family="sans-serif" font-size="12" font-style="italic" lengthAdjust="spacing" textLength="92" x="308" y="74.5655">&#171;Organization&#187;</text><text fill="#0A2A61" font-family="sans-serif" font-size="14" lengthAdjust="spacing" textLength="32" x="338" y="90.3907">W3C</text></g><!--class Federated Identity WG--><g id="elem_Federated Identity WG"><rect codeLine="64" fill="#ECF6F4" height="64.5625" id="Federated Identity WG" rx="2.5" ry="2.5" style="stroke:#181818;stroke-width:0.5;" width="185" x="20.5" y="190.8269"/><ellipse cx="35.5" cy="210.9597" fill="#D99B55" rx="11" ry="11" style="stroke:#181818;stroke-width:1.0;"/><path d="M35.6094,206.5378 Q34.6719,206.5378 34.2344,207.5378 Q33.8125,208.5378 33.8125,210.7722 Q33.8125,213.0066 34.2344,214.0066 Q34.6719,215.0066 35.6094,215.0066 Q36.5625,215.0066 36.9844,214.0066 Q37.4219,213.0066 37.4219,210.7722 Q37.4219,208.5378 36.9844,207.5378 Q36.5625,206.5378 35.6094,206.5378 Z M31.2656,210.7722 Q31.2656,207.6003 32.3594,205.9753 Q33.4688,204.3347 35.6094,204.3347 Q37.7656,204.3347 38.8594,205.9753 Q39.9688,207.6003 39.9688,210.7722 Q39.9688,213.9441 38.8594,215.5691 Q37.7656,217.1941 35.6094,217.1941 Q33.4688,217.1941 32.3594,215.5691 Q31.2656,213.9441 31.2656,210.7722 Z " fill="#000000"/><text fill="#000000" font-family="sans-serif" font-size="12" font-style="italic" lengthAdjust="spacing" textLength="92" x="80" y="206.9655">&#171;Organization&#187;</text><text fill="#0A2A61" font-family="sans-serif" font-size="14" lengthAdjust="spacing" textLength="153" x="49.5" y="222.7907">Federated Identity WG</text><line style="stroke:#181818;stroke-width:0.5;" x1="21.5" x2="204.5" y1="231.0925" y2="231.0925"/><a href="https://www.w3.org/groups/wg/fedid/" target="_top" title="https://www.w3.org/groups/wg/fedid/" xlink:actuate="onRequest" xlink:href="https://www.w3.org/groups/wg/fedid/" xlink:show="new" xlink:title="https://www.w3.org/groups/wg/fedid/" xlink:type="simple"><text fill="#F5665D" font-family="sans-serif" font-size="14" lengthAdjust="spacing" text-decoration="underline" textLength="101" x="26.5" y="248.0876">Working group</text></a></g><!--class Federated Identity CG--><g id="elem_Federated Identity CG"><rect codeLine="69" fill="#ECF6F4" height="64.5625" id="Federated Identity CG" rx="2.5" ry="2.5" style="stroke:#181818;stroke-width:0.5;" width="182" x="155" y="382.9369"/><ellipse cx="170" cy="403.0697" fill="#D99B55" rx="11" ry="11" style="stroke:#181818;stroke-width:1.0;"/><path d="M170.1094,398.6478 Q169.1719,398.6478 168.7344,399.6478 Q168.3125,400.6478 168.3125,402.8822 Q168.3125,405.1166 168.7344,406.1166 Q169.1719,407.1166 170.1094,407.1166 Q171.0625,407.1166 171.4844,406.1166 Q171.9219,405.1166 171.9219,402.8822 Q171.9219,400.6478 171.4844,399.6478 Q171.0625,398.6478 170.1094,398.6478 Z M165.7656,402.8822 Q165.7656,399.7103 166.8594,398.0853 Q167.9688,396.4447 170.1094,396.4447 Q172.2656,396.4447 173.3594,398.0853 Q174.4688,399.7103 174.4688,402.8822 Q174.4688,406.0541 173.3594,407.6791 Q172.2656,409.3041 170.1094,409.3041 Q167.9688,409.3041 166.8594,407.6791 Q165.7656,406.0541 165.7656,402.8822 Z " fill="#000000"/><text fill="#000000" font-family="sans-serif" font-size="12" font-style="italic" lengthAdjust="spacing" textLength="92" x="213" y="399.0755">&#171;Organization&#187;</text><text fill="#0A2A61" font-family="sans-serif" font-size="14" lengthAdjust="spacing" textLength="150" x="184" y="414.9007">Federated Identity CG</text><line style="stroke:#181818;stroke-width:0.5;" x1="156" x2="336" y1="423.2025" y2="423.2025"/><a href="https://www.w3.org/groups/cg/fed-id/" target="_top" title="https://www.w3.org/groups/cg/fed-id/" xlink:actuate="onRequest" xlink:href="https://www.w3.org/groups/cg/fed-id/" xlink:show="new" xlink:title="https://www.w3.org/groups/cg/fed-id/" xlink:type="simple"><text fill="#F5665D" font-family="sans-serif" font-size="14" lengthAdjust="spacing" text-decoration="underline" textLength="123" x="161" y="440.1976">Community group</text></a></g><!--class Web Platform Incubator CG--><g id="elem_Web Platform Incubator CG"><rect codeLine="75" fill="#ECF6F4" height="64.5625" id="Web Platform Incubator CG" rx="2.5" ry="2.5" style="stroke:#181818;stroke-width:0.5;" width="217" x="298.5" y="285.3869"/><ellipse cx="313.5" cy="305.5197" fill="#D99B55" rx="11" ry="11" style="stroke:#181818;stroke-width:1.0;"/><path d="M313.6094,301.0978 Q312.6719,301.0978 312.2344,302.0978 Q311.8125,303.0978 311.8125,305.3322 Q311.8125,307.5666 312.2344,308.5666 Q312.6719,309.5666 313.6094,309.5666 Q314.5625,309.5666 314.9844,308.5666 Q315.4219,307.5666 315.4219,305.3322 Q315.4219,303.0978 314.9844,302.0978 Q314.5625,301.0978 313.6094,301.0978 Z M309.2656,305.3322 Q309.2656,302.1603 310.3594,300.5353 Q311.4688,298.8947 313.6094,298.8947 Q315.7656,298.8947 316.8594,300.5353 Q317.9688,302.1603 317.9688,305.3322 Q317.9688,308.5041 316.8594,310.1291 Q315.7656,311.7541 313.6094,311.7541 Q311.4688,311.7541 310.3594,310.1291 Q309.2656,308.5041 309.2656,305.3322 Z " fill="#000000"/><text fill="#000000" font-family="sans-serif" font-size="12" font-style="italic" lengthAdjust="spacing" textLength="92" x="374" y="301.5255">&#171;Organization&#187;</text><text fill="#0A2A61" font-family="sans-serif" font-size="14" lengthAdjust="spacing" textLength="185" x="327.5" y="317.3507">Web Platform Incubator CG</text><line style="stroke:#181818;stroke-width:0.5;" x1="299.5" x2="514.5" y1="325.6525" y2="325.6525"/><a href="https://www.w3.org/community/wicg/" target="_top" title="https://www.w3.org/community/wicg/" xlink:actuate="onRequest" xlink:href="https://www.w3.org/community/wicg/" xlink:show="new" xlink:title="https://www.w3.org/community/wicg/" xlink:type="simple"><text fill="#F5665D" font-family="sans-serif" font-size="14" lengthAdjust="spacing" text-decoration="underline" textLength="123" x="304.5" y="342.6476">Community group</text></a></g><!--class Credential Management--><g id="elem_Credential Management"><rect codeLine="80" fill="#ECF6F4" height="64.5625" id="Credential Management" rx="2.5" ry="2.5" style="stroke:#181818;stroke-width:0.5;" width="197" x="375.5" y="637.0469"/><ellipse cx="390.5" cy="657.1797" fill="#55D9D6" rx="11" ry="11" style="stroke:#181818;stroke-width:1.0;"/><path d="M389.9844,657.7422 Q388.125,657.0391 387.4688,656.2734 Q386.8281,655.4922 386.8281,654.1797 Q386.8281,652.4922 387.9063,651.5234 Q388.9844,650.5547 390.8594,650.5547 Q391.7188,650.5547 392.5625,650.7578 Q393.4219,650.9453 394.2656,651.3359 L394.2656,653.7266 Q393.4844,653.1641 392.6563,652.8828 Q391.8438,652.5859 391.0469,652.5859 Q390.1719,652.5859 389.6875,652.9453 Q389.2188,653.3047 389.2188,653.9609 Q389.2188,654.4766 389.5625,654.8203 Q389.9063,655.1484 391,655.5547 L392.0625,655.9609 Q393.5469,656.5078 394.25,657.4141 Q394.9688,658.3203 394.9688,659.6953 Q394.9688,661.5703 393.8594,662.4922 Q392.75,663.4141 390.5,663.4141 Q389.5781,663.4141 388.6563,663.1953 Q387.7344,662.9766 386.875,662.5547 L386.875,660.0234 Q387.8438,660.7109 388.7656,661.0547 Q389.6875,661.3984 390.5781,661.3984 Q391.4844,661.3984 391.9844,660.9922 Q392.4844,660.5703 392.4844,659.8359 Q392.4844,659.2734 392.1406,658.8672 Q391.8125,658.4453 391.1875,658.1953 L389.9844,657.7422 Z " fill="#000000"/><text fill="#000000" font-family="sans-serif" font-size="12" font-style="italic" lengthAdjust="spacing" textLength="72" x="451" y="653.1855">&#171;Standard&#187;</text><text fill="#0A2A61" font-family="sans-serif" font-size="14" lengthAdjust="spacing" textLength="165" x="404.5" y="669.0107">Credential Management</text><line style="stroke:#181818;stroke-width:0.5;" x1="376.5" x2="571.5" y1="677.3125" y2="677.3125"/><a href="https://www.w3.org/TR/credential-management-1/" target="_top" title="https://www.w3.org/TR/credential-management-1/" xlink:actuate="onRequest" xlink:href="https://www.w3.org/TR/credential-management-1/" xlink:show="new" xlink:title="https://www.w3.org/TR/credential-management-1/" xlink:type="simple"><text fill="#F5665D" font-family="sans-serif" font-size="14" lengthAdjust="spacing" text-decoration="underline" textLength="75" x="381.5" y="694.3076">CM at W3C</text></a></g><!--class Digital Credentials--><g id="elem_Digital Credentials"><rect codeLine="85" fill="#ECF6F4" height="64.5625" id="Digital Credentials" rx="2.5" ry="2.5" style="stroke:#181818;stroke-width:0.5;" width="156" x="329" y="511.4869"/><ellipse cx="344" cy="531.6197" fill="#5588D9" rx="11" ry="11" style="stroke:#181818;stroke-width:1.0;"/><path d="M339,525.4791 L341.1406,525.4791 L342.0313,534.5728 L343.0938,528.6822 L345.1406,528.6822 L346.375,534.5728 L347.0781,525.4791 L349.2344,525.4791 L347.8125,537.8697 L345.5313,537.8697 L344.1094,531.3541 L342.7969,537.8697 L340.5313,537.8697 L339,525.4791 Z " fill="#000000"/><text fill="#000000" font-family="sans-serif" font-size="12" font-style="italic" lengthAdjust="spacing" textLength="98" x="371" y="527.6255">&#171;Work Product&#187;</text><text fill="#0A2A61" font-family="sans-serif" font-size="14" lengthAdjust="spacing" textLength="124" x="358" y="543.4507">Digital Credentials</text><line style="stroke:#181818;stroke-width:0.5;" x1="330" x2="484" y1="551.7525" y2="551.7525"/><a href="https://github.com/WICG/digital-credentials/" target="_top" title="https://github.com/WICG/digital-credentials/" xlink:actuate="onRequest" xlink:href="https://github.com/WICG/digital-credentials/" xlink:show="new" xlink:title="https://github.com/WICG/digital-credentials/" xlink:type="simple"><text fill="#F5665D" font-family="sans-serif" font-size="14" lengthAdjust="spacing" text-decoration="underline" textLength="89" x="335" y="568.7476">DC at GitHub</text></a></g><g id="elem_wgFedid450"><path d="M6,379.9469 L6,450.4781 L120,450.4781 L120,389.9469 L110,379.9469 L6,379.9469 " fill="#F5EDA8" style="stroke:#D99B55;stroke-width:0.5;"/><path d="M110,379.9469 L110,389.9469 L120,389.9469 L110,379.9469 " fill="#F5EDA8" style="stroke:#D99B55;stroke-width:1.0;"/><a href="https://github.com/w3c/strategy/issues/450" target="_top" title="https://github.com/w3c/strategy/issues/450" xlink:actuate="onRequest" xlink:href="https://github.com/w3c/strategy/issues/450" xlink:show="new" xlink:title="https://github.com/w3c/strategy/issues/450" xlink:type="simple"><text fill="#F5665D" font-family="sans-serif" font-size="13" lengthAdjust="spacing" text-decoration="underline" textLength="61" x="12" y="397.0138">issue 450</text></a><text fill="#0A2A61" font-family="sans-serif" font-size="13" lengthAdjust="spacing" textLength="88" x="12" y="412.1466">Adding Digital</text><text fill="#0A2A61" font-family="sans-serif" font-size="13" lengthAdjust="spacing" textLength="89" x="12" y="427.2794">Credentials to</text><text fill="#0A2A61" font-family="sans-serif" font-size="13" lengthAdjust="spacing" textLength="86" x="12" y="442.4122">the FedID WG</text></g><g id="elem_version"><path d="M436.5,43.2969 L436.5,113.8281 L683.5,113.8281 L683.5,53.2969 L673.5,43.2969 L436.5,43.2969 " fill="#F5EDA8" style="stroke:#D99B55;stroke-width:0.5;"/><path d="M673.5,43.2969 L673.5,53.2969 L683.5,53.2969 L673.5,43.2969 " fill="#F5EDA8" style="stroke:#D99B55;stroke-width:1.0;"/><text fill="#0A2A61" font-family="sans-serif" font-size="13" lengthAdjust="spacing" textLength="177" x="442.5" y="60.3638">Next generation credentials</text><text fill="#0A2A61" font-family="sans-serif" font-size="13" lengthAdjust="spacing" textLength="226" x="442.5" y="75.4966">Last modified: 2024/05/24 18:53:54</text><text fill="#0A2A61" font-family="sans-serif" font-size="13" lengthAdjust="spacing" textLength="88" x="442.5" y="90.6294">See readings:</text><text fill="#0A2A61" font-family="sans-serif" font-size="13" lengthAdjust="spacing" textLength="172" x="442.5" y="105.7622">https://bit.ly/NextGenCreds</text></g><!--link W3C to Federated Identity WG--><g id="link_W3C_Federated Identity WG"><path codeLine="67" d="M280.6,93.5969 C246.38,103.6269 204.13,119.6969 172,143.8269 C155.4,156.2969 144.4929,169.6282 134.2029,185.4382 " fill="none" id="W3C-to-Federated Identity WG" style="stroke:#0A2A61;stroke-width:1.0;stroke-dasharray:7.0,7.0;"/><polygon fill="#0A2A61" points="130.93,190.4669,139.1919,185.1058,133.6575,186.2763,132.487,180.7419,130.93,190.4669" style="stroke:#0A2A61;stroke-width:1.0;"/><text fill="#0A2A61" font-family="sans-serif" font-size="13" lengthAdjust="spacing" textLength="75" x="173" y="156.8938">coordinates</text></g><!--link W3C to Federated Identity CG--><g id="link_W3C_Federated Identity CG"><path codeLine="72" d="M329.82,99.0169 C317.8,120.7369 298.94,157.2569 288,190.8269 C266.35,257.2369 255.2686,332.6489 250.0486,376.5389 " fill="none" id="W3C-to-Federated Identity CG" style="stroke:#0A2A61;stroke-width:1.0;stroke-dasharray:7.0,7.0;"/><polygon fill="#0A2A61" points="249.34,382.4969,254.3749,374.0323,249.9305,377.5319,246.4309,373.0875,249.34,382.4969" style="stroke:#0A2A61;stroke-width:1.0;"/><text fill="#0A2A61" font-family="sans-serif" font-size="13" lengthAdjust="spacing" textLength="75" x="289" y="227.6738">coordinates</text></g><!--link Federated Identity WG to Federated Identity CG--><g id="link_Federated Identity WG_Federated Identity CG"><path codeLine="73" d="M123.65,255.8469 C133.56,282.5769 150.11,320.9769 172,349.9469 C180.92,361.7669 187.7897,369.0444 198.9597,378.6944 " fill="none" id="Federated Identity WG-to-Federated Identity CG" style="stroke:#0A2A61;stroke-width:1.0;stroke-dasharray:7.0,7.0;"/><polygon fill="#0A2A61" points="203.5,382.6169,199.3045,373.7063,199.7164,379.3482,194.0746,379.7601,203.5,382.6169" style="stroke:#0A2A61;stroke-width:1.0;"/><text fill="#0A2A61" font-family="sans-serif" font-size="13" lengthAdjust="spacing" textLength="75" x="173" y="322.2338">coordinates</text></g><!--link W3C to Web Platform Incubator CG--><g id="link_W3C_Web Platform Incubator CG"><path codeLine="78" d="M346.4,98.9669 C357.79,139.8869 382.7616,229.5765 396.6216,279.3865 " fill="none" id="W3C-to-Web Platform Incubator CG" style="stroke:#0A2A61;stroke-width:1.0;stroke-dasharray:7.0,7.0;"/><polygon fill="#0A2A61" points="398.23,285.1669,399.6709,275.424,396.8896,280.3499,391.9638,277.5686,398.23,285.1669" style="stroke:#0A2A61;stroke-width:1.0;"/><text fill="#0A2A61" font-family="sans-serif" font-size="13" lengthAdjust="spacing" textLength="75" x="364" y="156.8938">coordinates</text></g><!--link W3C to Credential Management--><g id="link_W3C_Credential Management"><path codeLine="83" d="M382.44,99.1569 C441.02,128.2369 541,183.5169 541,222.1069 C541,222.1069 541,222.1069 541,544.7669 C541,579.1669 524.3417,608.4115 506.0817,632.0115 " fill="none" id="W3C-to-Credential Management" style="stroke:#0A2A61;stroke-width:1.0;stroke-dasharray:7.0,7.0;"/><polygon fill="#0A2A61" points="502.41,636.7569,511.0811,632.0865,505.4697,632.8024,504.7539,627.191,502.41,636.7569" style="stroke:#0A2A61;stroke-width:1.0;"/><text fill="#0A2A61" font-family="sans-serif" font-size="13" lengthAdjust="spacing" textLength="63" x="542" y="419.7838">maintains</text></g><!--link Web Platform Incubator CG to Digital Credentials--><g id="link_Web Platform Incubator CG_Digital Credentials"><path codeLine="88" d="M407,350.2969 C407,393.0069 407,462.6669 407,505.2969 " fill="none" id="Web Platform Incubator CG-to-Digital Credentials" style="stroke:#0A2A61;stroke-width:1.0;stroke-dasharray:7.0,7.0;"/><polygon fill="#0A2A61" points="407,511.2969,411,502.2969,407,506.2969,403,502.2969,407,511.2969" style="stroke:#0A2A61;stroke-width:1.0;"/><text fill="#0A2A61" font-family="sans-serif" font-size="13" lengthAdjust="spacing" textLength="62" x="408" y="419.7838">incubates</text></g><!--link Digital Credentials to Credential Management--><g id="link_Digital Credentials_Credential Management"><path codeLine="89" d="M424.08,576.2669 C434.16,594.8569 438.3031,602.4817 448.3731,621.0617 " fill="none" id="Digital Credentials-to-Credential Management" style="stroke:#0A2A61;stroke-width:1.0;"/><polygon fill="none" points="456.95,636.8869,453.6481,618.2027,443.098,623.9207,456.95,636.8869" style="stroke:#0A2A61;stroke-width:1.0;"/></g><!--link Federated Identity WG to wgFedid450--><g id="link_Federated Identity WG_wgFedid450"><path codeLine="103" d="M104.74,255.4969 C95.76,289.6669 81.43,344.1469 72.12,379.5569 " fill="none" id="Federated Identity WG-wgFedid450" style="stroke:#0A2A61;stroke-width:1.0;"/></g><!--link wgFedid450 to Digital Credentials--><g id="link_wgFedid450_Digital Credentials"><path codeLine="104" d="M120.11,443.3769 C125.78,445.8569 131.48,448.2669 137,450.4869 C200.56,475.9769 274.22,500.8469 328.52,518.3369 " fill="none" id="wgFedid450-Digital Credentials" style="stroke:#0A2A61;stroke-width:1.0;"/></g><!--SRC=[pLPBRziu4BxhLqoRGn8WjcB7ScEXA3QHwjJeze6cGB1Rz4194uc8H1eaLSVjzh_laBBbH-pqiPVrmQ3u3OVVlEaVVaHLSI5BcS-12n1uRo17WOePBWMa2ZCKXhDIUrwaa1dCGkYVzWV-QU3t1z3hXOD-sEzxVp9je98Pl-NR8iCm68L1p_F6Ka7AZLEjWOaCf2bGGIRJkg9h7702qnAPHj28u7twMnfK4d8bwocKF55CpJyV5SPCTUZxizci-zL9TANAVIUb_I0Oz8Q3eM-j8MFMZ3Zs3dqFw7S8InKf6Q-wB9C9TbDP-Qcpijdkp0h44XpuHvwcYwCNzZjo0kzB9anTbP0GPGS_oV2M2uJfPLaZm44Gd9_7ess8fNTmS7hHlnZsDg7thCGhXIZWu6Kq7eu7c_022e9u50yteVZr0Znz5aJ1vIRuJZ6H8np4ez5b46nYVs5PoXaSZ8ENySNv9lO1CmiCXq7iUGNF4B2QcZbKM2MeA2cMaeRTNniAALCP75sVD4IFORctBlTEvN3qxcJ1wHZecmd-rKL_NUv6gZiukZbndZm6z_bUoQnEZUVfEowcJB7gMnEKPJYdYu2uMBP2ksKw6udNfS1db8-qgRjS-YZyaZ916_zMgeePmqNkixBiMAqTfrPt2rEL7ZZr5qh9cSkAHO1NksCfp0RIy4beQLDMP0reo26Q51CZYAKuD5GPO0gk8S6KrLGJyXO4pmjNQTXeYKgczUMMfbKQEPdKoZmWuJYqq3N_Yj0xtTfzoog42pR5UmUulrVpAQgIYxk5DigHXifRgiG7J9hiMk5IPQWMM9C1BRRRJH-vAHz2tzV046xE8jTFA7mmnYnw0nJ-gXRSp1kv9zemPNITG2GLUlv_Rtn160p2_kYnnaSYpyBUw7_J-5nKuIavwoayVzvKueiNZNzGPDOxszuYPqvYjzVc4JobJUidQWqJfv_wmStLkiflxGdx-_HfdVNiR9tnBFTlCUEPxygRAgmn-FFdLiFtTjKGxtPVx6KGKjWflxYmTUlz1EteDscdZdR7yewMYVRRpAC7pDjpU-pyUKtRFhZ116Xc6TlIO2BIEc66alEN_T2Mbp_Zv8nVzS8ZD1xd7xKf3M-OO3dQybbmNywQdpBWumT_LHwTgjNLwP4nRu0PsrD-PCOUDcH3nJYLDHSFBOXvJfsWXDLPlU1lAs0_TpfLr8aRQpUJwChF6ZsTjIBt8OuiyojkNjN97lBxFT_Oj9DVI3tIYQudvqx9JkUV_OvPdlKFOSTXI6fUPXhgAJNWdHh0I431aX9Tfs-fQ4nhXQwnJXN_GZG1xzF2FNbeP2vS1NnP9rmq8zrEVPYObQ9RblBIDcgaDbtJ7IIVkXgZS5ArfKq7J-QWSAfGMvnwrlA2LQpNh385LKHUECOBgoSh8gILBiKJc1KyBUXrbT0eeTjRLLzGqMXnDbC6yOg89R8sP2oTplWNdjMiFDIjSLrgzErXGIC2c8PPFhPTTX2S_ZYxPcUfhutjBFdSvrhNg7qw26u9j5fBBFV2oJBhWtZR1-vniku7kOajPlKaffRM0ZI67EdMX7qjiDE17LQjTfp0xXJrrYUUvorzH8xMzWNgNYEFF0Si_iZGFm-3CteQEB5hckJsLKd-qQ7RMVexuQPRpdrxpnKAIqzxIzl_1G00]--></g></svg>