<?xml version="1.0" encoding="us-ascii" standalone="no"?><svg xmlns="http://www.w3.org/2000/svg" xmlns:xlink="http://www.w3.org/1999/xlink" contentStyleType="text/css" height="693px" preserveAspectRatio="none" style="width:690px;height:693px;" version="1.1" viewBox="0 0 690 693" width="690px" zoomAndPan="magnify"><defs/><g><text fill="#0A2A61" font-family="sans-serif" font-size="14" font-weight="bold" lengthAdjust="spacing" textLength="250" x="213.25" y="22.9951">W3C and the FedCM community</text><!--class W3C--><g id="elem_W3C"><rect codeLine="60" fill="#ECF6F4" height="40.2656" id="W3C" rx="2.5" ry="2.5" style="stroke:#181818;stroke-width:0.5;" width="120" x="281" y="50.8669"/><ellipse cx="296" cy="70.9997" fill="#D99B55" rx="11" ry="11" style="stroke:#181818;stroke-width:1.0;"/><path d="M296.1094,66.5778 Q295.1719,66.5778 294.7344,67.5778 Q294.3125,68.5778 294.3125,70.8122 Q294.3125,73.0466 294.7344,74.0466 Q295.1719,75.0466 296.1094,75.0466 Q297.0625,75.0466 297.4844,74.0466 Q297.9219,73.0466 297.9219,70.8122 Q297.9219,68.5778 297.4844,67.5778 Q297.0625,66.5778 296.1094,66.5778 Z M291.7656,70.8122 Q291.7656,67.6403 292.8594,66.0153 Q293.9688,64.3747 296.1094,64.3747 Q298.2656,64.3747 299.3594,66.0153 Q300.4688,67.6403 300.4688,70.8122 Q300.4688,73.9841 299.3594,75.6091 Q298.2656,77.2341 296.1094,77.2341 Q293.9688,77.2341 292.8594,75.6091 Q291.7656,73.9841 291.7656,70.8122 Z " fill="#000000"/><text fill="#000000" font-family="sans-serif" font-size="12" font-style="italic" lengthAdjust="spacing" textLength="92" x="308" y="67.0055">&#171;Organization&#187;</text><text fill="#0A2A61" font-family="sans-serif" font-size="14" lengthAdjust="spacing" textLength="32" x="338" y="82.8307">W3C</text></g><!--class Federated Identity WG--><g id="elem_Federated Identity WG"><rect codeLine="64" fill="#ECF6F4" height="64.5625" id="Federated Identity WG" rx="2.5" ry="2.5" style="stroke:#181818;stroke-width:0.5;" width="185" x="20.5" y="175.6969"/><ellipse cx="35.5" cy="195.8297" fill="#D99B55" rx="11" ry="11" style="stroke:#181818;stroke-width:1.0;"/><path d="M35.6094,191.4078 Q34.6719,191.4078 34.2344,192.4078 Q33.8125,193.4078 33.8125,195.6422 Q33.8125,197.8766 34.2344,198.8766 Q34.6719,199.8766 35.6094,199.8766 Q36.5625,199.8766 36.9844,198.8766 Q37.4219,197.8766 37.4219,195.6422 Q37.4219,193.4078 36.9844,192.4078 Q36.5625,191.4078 35.6094,191.4078 Z M31.2656,195.6422 Q31.2656,192.4703 32.3594,190.8453 Q33.4688,189.2047 35.6094,189.2047 Q37.7656,189.2047 38.8594,190.8453 Q39.9688,192.4703 39.9688,195.6422 Q39.9688,198.8141 38.8594,200.4391 Q37.7656,202.0641 35.6094,202.0641 Q33.4688,202.0641 32.3594,200.4391 Q31.2656,198.8141 31.2656,195.6422 Z " fill="#000000"/><text fill="#000000" font-family="sans-serif" font-size="12" font-style="italic" lengthAdjust="spacing" textLength="92" x="80" y="191.8355">&#171;Organization&#187;</text><text fill="#0A2A61" font-family="sans-serif" font-size="14" lengthAdjust="spacing" textLength="153" x="49.5" y="207.6607">Federated Identity WG</text><line style="stroke:#181818;stroke-width:0.5;" x1="21.5" x2="204.5" y1="215.9625" y2="215.9625"/><a href="https://www.w3.org/groups/wg/fedid/" target="_top" title="https://www.w3.org/groups/wg/fedid/" xlink:actuate="onRequest" xlink:href="https://www.w3.org/groups/wg/fedid/" xlink:show="new" xlink:title="https://www.w3.org/groups/wg/fedid/" xlink:type="simple"><text fill="#F5665D" font-family="sans-serif" font-size="14" lengthAdjust="spacing" text-decoration="underline" textLength="101" x="26.5" y="232.9576">Working group</text></a></g><!--class Federated Identity CG--><g id="elem_Federated Identity CG"><rect codeLine="69" fill="#ECF6F4" height="64.5625" id="Federated Identity CG" rx="2.5" ry="2.5" style="stroke:#181818;stroke-width:0.5;" width="182" x="155" y="367.8069"/><ellipse cx="170" cy="387.9397" fill="#D99B55" rx="11" ry="11" style="stroke:#181818;stroke-width:1.0;"/><path d="M170.1094,383.5178 Q169.1719,383.5178 168.7344,384.5178 Q168.3125,385.5178 168.3125,387.7522 Q168.3125,389.9866 168.7344,390.9866 Q169.1719,391.9866 170.1094,391.9866 Q171.0625,391.9866 171.4844,390.9866 Q171.9219,389.9866 171.9219,387.7522 Q171.9219,385.5178 171.4844,384.5178 Q171.0625,383.5178 170.1094,383.5178 Z M165.7656,387.7522 Q165.7656,384.5803 166.8594,382.9553 Q167.9688,381.3147 170.1094,381.3147 Q172.2656,381.3147 173.3594,382.9553 Q174.4688,384.5803 174.4688,387.7522 Q174.4688,390.9241 173.3594,392.5491 Q172.2656,394.1741 170.1094,394.1741 Q167.9688,394.1741 166.8594,392.5491 Q165.7656,390.9241 165.7656,387.7522 Z " fill="#000000"/><text fill="#000000" font-family="sans-serif" font-size="12" font-style="italic" lengthAdjust="spacing" textLength="92" x="213" y="383.9455">&#171;Organization&#187;</text><text fill="#0A2A61" font-family="sans-serif" font-size="14" lengthAdjust="spacing" textLength="150" x="184" y="399.7707">Federated Identity CG</text><line style="stroke:#181818;stroke-width:0.5;" x1="156" x2="336" y1="408.0725" y2="408.0725"/><a href="https://www.w3.org/groups/cg/fed-id/" target="_top" title="https://www.w3.org/groups/cg/fed-id/" xlink:actuate="onRequest" xlink:href="https://www.w3.org/groups/cg/fed-id/" xlink:show="new" xlink:title="https://www.w3.org/groups/cg/fed-id/" xlink:type="simple"><text fill="#F5665D" font-family="sans-serif" font-size="14" lengthAdjust="spacing" text-decoration="underline" textLength="123" x="161" y="425.0676">Community group</text></a></g><!--class Web Platform Incubator CG--><g id="elem_Web Platform Incubator CG"><rect codeLine="75" fill="#ECF6F4" height="64.5625" id="Web Platform Incubator CG" rx="2.5" ry="2.5" style="stroke:#181818;stroke-width:0.5;" width="217" x="298.5" y="270.2569"/><ellipse cx="313.5" cy="290.3897" fill="#D99B55" rx="11" ry="11" style="stroke:#181818;stroke-width:1.0;"/><path d="M313.6094,285.9678 Q312.6719,285.9678 312.2344,286.9678 Q311.8125,287.9678 311.8125,290.2022 Q311.8125,292.4366 312.2344,293.4366 Q312.6719,294.4366 313.6094,294.4366 Q314.5625,294.4366 314.9844,293.4366 Q315.4219,292.4366 315.4219,290.2022 Q315.4219,287.9678 314.9844,286.9678 Q314.5625,285.9678 313.6094,285.9678 Z M309.2656,290.2022 Q309.2656,287.0303 310.3594,285.4053 Q311.4688,283.7647 313.6094,283.7647 Q315.7656,283.7647 316.8594,285.4053 Q317.9688,287.0303 317.9688,290.2022 Q317.9688,293.3741 316.8594,294.9991 Q315.7656,296.6241 313.6094,296.6241 Q311.4688,296.6241 310.3594,294.9991 Q309.2656,293.3741 309.2656,290.2022 Z " fill="#000000"/><text fill="#000000" font-family="sans-serif" font-size="12" font-style="italic" lengthAdjust="spacing" textLength="92" x="374" y="286.3955">&#171;Organization&#187;</text><text fill="#0A2A61" font-family="sans-serif" font-size="14" lengthAdjust="spacing" textLength="185" x="327.5" y="302.2207">Web Platform Incubator CG</text><line style="stroke:#181818;stroke-width:0.5;" x1="299.5" x2="514.5" y1="310.5225" y2="310.5225"/><a href="https://www.w3.org/community/wicg/" target="_top" title="https://www.w3.org/community/wicg/" xlink:actuate="onRequest" xlink:href="https://www.w3.org/community/wicg/" xlink:show="new" xlink:title="https://www.w3.org/community/wicg/" xlink:type="simple"><text fill="#F5665D" font-family="sans-serif" font-size="14" lengthAdjust="spacing" text-decoration="underline" textLength="123" x="304.5" y="327.5176">Community group</text></a></g><!--class Credential Management--><g id="elem_Credential Management"><rect codeLine="80" fill="#ECF6F4" height="64.5625" id="Credential Management" rx="2.5" ry="2.5" style="stroke:#181818;stroke-width:0.5;" width="197" x="375.5" y="621.9169"/><ellipse cx="390.5" cy="642.0497" fill="#55D9D6" rx="11" ry="11" style="stroke:#181818;stroke-width:1.0;"/><path d="M389.9844,642.6122 Q388.125,641.9091 387.4688,641.1434 Q386.8281,640.3622 386.8281,639.0497 Q386.8281,637.3622 387.9063,636.3934 Q388.9844,635.4247 390.8594,635.4247 Q391.7188,635.4247 392.5625,635.6278 Q393.4219,635.8153 394.2656,636.2059 L394.2656,638.5966 Q393.4844,638.0341 392.6563,637.7528 Q391.8438,637.4559 391.0469,637.4559 Q390.1719,637.4559 389.6875,637.8153 Q389.2188,638.1747 389.2188,638.8309 Q389.2188,639.3466 389.5625,639.6903 Q389.9063,640.0184 391,640.4247 L392.0625,640.8309 Q393.5469,641.3778 394.25,642.2841 Q394.9688,643.1903 394.9688,644.5653 Q394.9688,646.4403 393.8594,647.3622 Q392.75,648.2841 390.5,648.2841 Q389.5781,648.2841 388.6563,648.0653 Q387.7344,647.8466 386.875,647.4247 L386.875,644.8934 Q387.8438,645.5809 388.7656,645.9247 Q389.6875,646.2684 390.5781,646.2684 Q391.4844,646.2684 391.9844,645.8622 Q392.4844,645.4403 392.4844,644.7059 Q392.4844,644.1434 392.1406,643.7372 Q391.8125,643.3153 391.1875,643.0653 L389.9844,642.6122 Z " fill="#000000"/><text fill="#000000" font-family="sans-serif" font-size="12" font-style="italic" lengthAdjust="spacing" textLength="72" x="451" y="638.0555">&#171;Standard&#187;</text><text fill="#0A2A61" font-family="sans-serif" font-size="14" lengthAdjust="spacing" textLength="165" x="404.5" y="653.8807">Credential Management</text><line style="stroke:#181818;stroke-width:0.5;" x1="376.5" x2="571.5" y1="662.1825" y2="662.1825"/><a href="https://www.w3.org/TR/credential-management-1/" target="_top" title="https://www.w3.org/TR/credential-management-1/" xlink:actuate="onRequest" xlink:href="https://www.w3.org/TR/credential-management-1/" xlink:show="new" xlink:title="https://www.w3.org/TR/credential-management-1/" xlink:type="simple"><text fill="#F5665D" font-family="sans-serif" font-size="14" lengthAdjust="spacing" text-decoration="underline" textLength="75" x="381.5" y="679.1776">CM at W3C</text></a></g><!--class Digital Credentials--><g id="elem_Digital Credentials"><rect codeLine="85" fill="#ECF6F4" height="64.5625" id="Digital Credentials" rx="2.5" ry="2.5" style="stroke:#181818;stroke-width:0.5;" width="156" x="329" y="496.3569"/><ellipse cx="344" cy="516.4897" fill="#5588D9" rx="11" ry="11" style="stroke:#181818;stroke-width:1.0;"/><path d="M339,510.3491 L341.1406,510.3491 L342.0313,519.4428 L343.0938,513.5522 L345.1406,513.5522 L346.375,519.4428 L347.0781,510.3491 L349.2344,510.3491 L347.8125,522.7397 L345.5313,522.7397 L344.1094,516.2241 L342.7969,522.7397 L340.5313,522.7397 L339,510.3491 Z " fill="#000000"/><text fill="#000000" font-family="sans-serif" font-size="12" font-style="italic" lengthAdjust="spacing" textLength="98" x="371" y="512.4955">&#171;Work Product&#187;</text><text fill="#0A2A61" font-family="sans-serif" font-size="14" lengthAdjust="spacing" textLength="124" x="358" y="528.3207">Digital Credentials</text><line style="stroke:#181818;stroke-width:0.5;" x1="330" x2="484" y1="536.6225" y2="536.6225"/><a href="https://github.com/WICG/digital-credentials/" target="_top" title="https://github.com/WICG/digital-credentials/" xlink:actuate="onRequest" xlink:href="https://github.com/WICG/digital-credentials/" xlink:show="new" xlink:title="https://github.com/WICG/digital-credentials/" xlink:type="simple"><text fill="#F5665D" font-family="sans-serif" font-size="14" lengthAdjust="spacing" text-decoration="underline" textLength="89" x="335" y="553.6176">DC at GitHub</text></a></g><g id="elem_wgFedid450"><path d="M6,364.8169 L6,435.3481 L120,435.3481 L120,374.8169 L110,364.8169 L6,364.8169 " fill="#F5EDA8" style="stroke:#D99B55;stroke-width:0.5;"/><path d="M110,364.8169 L110,374.8169 L120,374.8169 L110,364.8169 " fill="#F5EDA8" style="stroke:#D99B55;stroke-width:1.0;"/><a href="https://github.com/w3c/strategy/issues/450" target="_top" title="https://github.com/w3c/strategy/issues/450" xlink:actuate="onRequest" xlink:href="https://github.com/w3c/strategy/issues/450" xlink:show="new" xlink:title="https://github.com/w3c/strategy/issues/450" xlink:type="simple"><text fill="#F5665D" font-family="sans-serif" font-size="13" lengthAdjust="spacing" text-decoration="underline" textLength="61" x="12" y="381.8838">issue 450</text></a><text fill="#0A2A61" font-family="sans-serif" font-size="13" lengthAdjust="spacing" textLength="88" x="12" y="397.0166">Adding Digital</text><text fill="#0A2A61" font-family="sans-serif" font-size="13" lengthAdjust="spacing" textLength="89" x="12" y="412.1494">Credentials to</text><text fill="#0A2A61" font-family="sans-serif" font-size="13" lengthAdjust="spacing" textLength="86" x="12" y="427.2822">the FedID WG</text></g><g id="elem_version"><path d="M436.5,43.2969 L436.5,98.6953 L683.5,98.6953 L683.5,53.2969 L673.5,43.2969 L436.5,43.2969 " fill="#F5EDA8" style="stroke:#D99B55;stroke-width:0.5;"/><path d="M673.5,43.2969 L673.5,53.2969 L683.5,53.2969 L673.5,43.2969 " fill="#F5EDA8" style="stroke:#D99B55;stroke-width:1.0;"/><text fill="#0A2A61" font-family="sans-serif" font-size="13" lengthAdjust="spacing" textLength="177" x="442.5" y="60.3638">Next generation credentials</text><text fill="#0A2A61" font-family="sans-serif" font-size="13" lengthAdjust="spacing" textLength="226" x="442.5" y="75.4966">Last modified: 2024/05/24 14:57:23</text><a href="https://www.zotero.org/groups/5541646/nextgencredentials" target="_top" title="Zotero" xlink:actuate="onRequest" xlink:href="https://www.zotero.org/groups/5541646/nextgencredentials" xlink:show="new" xlink:title="Zotero" xlink:type="simple"><text fill="#F5665D" font-family="sans-serif" font-size="13" lengthAdjust="spacing" text-decoration="underline" textLength="124" x="442.5" y="90.6294">see documentation</text></a></g><!--link W3C to Federated Identity WG--><g id="link_W3C_Federated Identity WG"><path codeLine="67" d="M280.61,82.9769 C246.39,91.3669 204.14,105.5369 172,128.6969 C155.02,140.9269 143.9694,154.4265 133.7194,170.4065 " fill="none" id="W3C-to-Federated Identity WG" style="stroke:#0A2A61;stroke-width:1.0;stroke-dasharray:7.0,7.0;"/><polygon fill="#0A2A61" points="130.48,175.4569,138.7061,170.041,133.1795,171.2482,131.9722,165.7217,130.48,175.4569" style="stroke:#0A2A61;stroke-width:1.0;"/><text fill="#0A2A61" font-family="sans-serif" font-size="13" lengthAdjust="spacing" textLength="75" x="173" y="141.7638">coordinates</text></g><!--link W3C to Federated Identity CG--><g id="link_W3C_Federated Identity CG"><path codeLine="72" d="M328.32,91.4269 C315.7,111.6669 296.71,144.6869 286,175.6969 C273.91,210.7069 258.8645,308.828 251.2645,361.648 " fill="none" id="W3C-to-Federated Identity CG" style="stroke:#0A2A61;stroke-width:1.0;stroke-dasharray:7.0,7.0;"/><polygon fill="#0A2A61" points="250.41,367.5869,255.651,359.2483,251.1221,362.6378,247.7325,358.1089,250.41,367.5869" style="stroke:#0A2A61;stroke-width:1.0;"/><text fill="#0A2A61" font-family="sans-serif" font-size="13" lengthAdjust="spacing" textLength="75" x="287" y="212.5438">coordinates</text></g><!--link Federated Identity WG to Federated Identity CG--><g id="link_Federated Identity WG_Federated Identity CG"><path codeLine="73" d="M123.65,240.7169 C133.56,267.4469 150.11,305.8469 172,334.8169 C180.92,346.6369 187.7897,353.9144 198.9597,363.5644 " fill="none" id="Federated Identity WG-to-Federated Identity CG" style="stroke:#0A2A61;stroke-width:1.0;stroke-dasharray:7.0,7.0;"/><polygon fill="#0A2A61" points="203.5,367.4869,199.3045,358.5763,199.7164,364.2182,194.0746,364.6301,203.5,367.4869" style="stroke:#0A2A61;stroke-width:1.0;"/><text fill="#0A2A61" font-family="sans-serif" font-size="13" lengthAdjust="spacing" textLength="75" x="173" y="307.1038">coordinates</text></g><!--link W3C to Web Platform Incubator CG--><g id="link_W3C_Web Platform Incubator CG"><path codeLine="78" d="M346.63,91.5669 C358.07,131.3569 382.4722,216.2205 396.3122,264.3605 " fill="none" id="W3C-to-Web Platform Incubator CG" style="stroke:#0A2A61;stroke-width:1.0;stroke-dasharray:7.0,7.0;"/><polygon fill="#0A2A61" points="397.97,270.1269,399.3276,260.372,396.5885,265.3215,391.639,262.5825,397.97,270.1269" style="stroke:#0A2A61;stroke-width:1.0;"/><text fill="#0A2A61" font-family="sans-serif" font-size="13" lengthAdjust="spacing" textLength="75" x="362" y="141.7638">coordinates</text></g><!--link W3C to Credential Management--><g id="link_W3C_Credential Management"><path codeLine="83" d="M385.39,91.5669 C444.31,118.9969 541,169.6969 541,206.9769 C541,206.9769 541,206.9769 541,529.6369 C541,564.0369 524.3417,593.2815 506.0817,616.8815 " fill="none" id="W3C-to-Credential Management" style="stroke:#0A2A61;stroke-width:1.0;stroke-dasharray:7.0,7.0;"/><polygon fill="#0A2A61" points="502.41,621.6269,511.0811,616.9565,505.4697,617.6724,504.7539,612.061,502.41,621.6269" style="stroke:#0A2A61;stroke-width:1.0;"/><text fill="#0A2A61" font-family="sans-serif" font-size="13" lengthAdjust="spacing" textLength="63" x="542" y="404.6538">maintains</text></g><!--link Web Platform Incubator CG to Digital Credentials--><g id="link_Web Platform Incubator CG_Digital Credentials"><path codeLine="88" d="M407,335.1669 C407,377.8769 407,447.5369 407,490.1669 " fill="none" id="Web Platform Incubator CG-to-Digital Credentials" style="stroke:#0A2A61;stroke-width:1.0;stroke-dasharray:7.0,7.0;"/><polygon fill="#0A2A61" points="407,496.1669,411,487.1669,407,491.1669,403,487.1669,407,496.1669" style="stroke:#0A2A61;stroke-width:1.0;"/><text fill="#0A2A61" font-family="sans-serif" font-size="13" lengthAdjust="spacing" textLength="62" x="408" y="404.6538">incubates</text></g><!--link Digital Credentials to Credential Management--><g id="link_Digital Credentials_Credential Management"><path codeLine="89" d="M424.08,561.1369 C434.16,579.7269 438.3031,587.3517 448.3731,605.9317 " fill="none" id="Digital Credentials-to-Credential Management" style="stroke:#0A2A61;stroke-width:1.0;"/><polygon fill="none" points="456.95,621.7569,453.6481,603.0727,443.098,608.7907,456.95,621.7569" style="stroke:#0A2A61;stroke-width:1.0;"/></g><!--link Federated Identity WG to wgFedid450--><g id="link_Federated Identity WG_wgFedid450"><path codeLine="103" d="M104.74,240.3669 C95.76,274.5369 81.43,329.0169 72.12,364.4269 " fill="none" id="Federated Identity WG-wgFedid450" style="stroke:#0A2A61;stroke-width:1.0;"/></g><!--link wgFedid450 to Digital Credentials--><g id="link_wgFedid450_Digital Credentials"><path codeLine="104" d="M120.11,428.2469 C125.78,430.7269 131.48,433.1369 137,435.3569 C200.56,460.8469 274.22,485.7169 328.52,503.2069 " fill="none" id="wgFedid450-Digital Credentials" style="stroke:#0A2A61;stroke-width:1.0;"/></g><!--SRC=[pLPBRziu4BxhLqoRGn8WDcF7SXEZA3QHrwcnsmVQ0i5kqGCbJMGY4ccGL1sts_- -GqgMPSTE7tjP7mo9typecpVPuGVKXP0gLzaIX0I9znOobAYv5Kf2eZ55QGNFJH146hd5T0Jzq_w0dOQiFu1URpJeZ_hzu4zkB1Gg5RTYMoGSXUUZmJ089af38gmtRO3B59ITeOPK9ML1d_702Snpv0R184BmyMzbKIl8j2hda8jOSxtyT3IpTcv6Z2qMY-uNBz5LEcDUoh0m7FI6Wo5ptf0pBIUEWqCM0FqEOMKY8UTrbwSgncwY2fPuBwlZpcA6c8C7VykIf5QzTE-H5tYRSsdB8eUOA7luIOgtGYBCh_8I0Gx2yFnyVB4DyUGE3aul-vV3tYRqbkTuhH4b7FmUJOQJmIPSGs4ulXWFDw7n7pLu-YoCmgjDy8tcCaCu65zSN8NX9lONvhbQmC4a_7ryURw9lSFK0SDXE0w2cKWHi9ZR9HHOnAYfA5QIbj-_jvHIhbCuUdzI4Js6rLbRxetEuEZDIStf6EYTI_75PxyjTwFq7HpTdFX87eD_VQjLMYOs2CoTa7EkUV6rIiegdVCw8JwNZT1kcSv6uNKfyIdL8nsQhb0C9Skf4enbjqeNt5eXCyRplEEiThnPqvtP8W_0cx_KMYryLTG9NfzEbBGRY8TYUd8LAzCAinGFGtQ9K2KGvToOgosfTOLucSJ9FB3ltMsWz-8BGkzqw_GrBn0k-HplFU3_NYxdg7CXxsfhbFwAocjgiWTCgi9Puqgdg6kiIcw3xOx01s7pXz2t5ZY2cxF8ZmhA34mmZLu1PROefR3BIkw9iLnRKyOGAOq1- -ypZGRMODI_-CvCUpRgNVnlPfhFAZobO3s5vy-h9dlneeeFojH5PpjQ5Cpfs9yrTGHFwT35YRf-wkrJgzzSjqr-RJJSx-F7Dkl5MPln8cEtc8gK-SwbvgaS_lIfiV2jUQg8TxilzZ8OKTgfleHqBHdy0Ete5sadddR7yOvMXVRBpAC7p1kzFNx-kANj6DnW3BIEh9jMC9L96NDBnVdJSMZQYoq41UDde_08ZSVvHqr9moikUOQkVMhkgpNoGmvyUCVMxT4f6bkT7Zdp2hXrC-LxRknXGpuKN51R2_dGWx78Q1BaiDOrDN_N0VkvazQiZFt6kfb6roojx7HQJSvW73dcryA-BECzvFT7ll9f9xyHpKWlsYxEdPATpZ_x0xFIPOUmGndYKkIfWN9E0tYd1R0AKF8uHp_f6oe6arAZ7wnpBJuJJS3xPEPlC-eMwb21MFM9aDMsTWiTfdPjw9Od8dU36cbCb_GDaazyZr4wgTkIQeB7Iz0ursWSJZDhzO5rhbjUsHbrH3RpZ6klfsiYP9K-YYUmc8baHXUdc5O9VRqnzHarhHRlCrMGA8XOh4fBpf9sAZwBjEJveMcSwzAWRvGbhGZW1XRPn4tPGNZw_UfQd2NCM3TPiYKJnfHe62c2VmHwQXMMlxoagOl1U3i6_dBIZeFQnEfTFHtJI6i0MaEUTEF2lX7OwS0EhzOdNc1tYGRjZHS4gnXHe8sxNFhRo2FN0OS_ilG7RkdtpuA7a-TdzlNNQlr_yvU1ZMi2HNyLf7y1]--></g></svg>