<?xml version="1.0" encoding="us-ascii" standalone="no"?><svg xmlns="http://www.w3.org/2000/svg" xmlns:xlink="http://www.w3.org/1999/xlink" contentStyleType="text/css" height="236px" preserveAspectRatio="none" style="width:251px;height:236px;background:#FFFFFF;" version="1.1" viewBox="0 0 251 236" width="251px" zoomAndPan="magnify"><defs/><g><!--class W3C--><g id="elem_W3C"><rect codeLine="9" fill="#F1F1F1" height="56.2656" id="W3C" rx="2.5" ry="2.5" style="stroke:#181818;stroke-width:0.5;" width="83" x="7" y="15.15"/><ellipse cx="22" cy="35.2828" fill="#ADD1B2" rx="11" ry="11" style="stroke:#181818;stroke-width:1.0;"/><path d="M24.9688,40.9234 Q24.3906,41.2203 23.75,41.3609 Q23.1094,41.5172 22.4063,41.5172 Q19.9063,41.5172 18.5781,39.8766 Q17.2656,38.2203 17.2656,35.0953 Q17.2656,31.9703 18.5781,30.3141 Q19.9063,28.6578 22.4063,28.6578 Q23.1094,28.6578 23.75,28.8141 Q24.4063,28.9703 24.9688,29.2672 L24.9688,31.9859 Q24.3438,31.4078 23.75,31.1422 Q23.1563,30.8609 22.5313,30.8609 Q21.1875,30.8609 20.5,31.9391 Q19.8125,33.0016 19.8125,35.0953 Q19.8125,37.1891 20.5,38.2672 Q21.1875,39.3297 22.5313,39.3297 Q23.1563,39.3297 23.75,39.0641 Q24.3438,38.7828 24.9688,38.2047 L24.9688,40.9234 Z " fill="#000000"/><text fill="#000000" font-family="sans-serif" font-size="12" font-style="italic" lengthAdjust="spacing" textLength="55" x="34" y="31.2887">&#171;taxOrg&#187;</text><text fill="#000000" font-family="sans-serif" font-size="14" lengthAdjust="spacing" textLength="32" x="45.5" y="47.1139">W3C</text><line style="stroke:#181818;stroke-width:0.5;" x1="8" x2="89" y1="55.4156" y2="55.4156"/><line style="stroke:#181818;stroke-width:0.5;" x1="8" x2="89" y1="63.4156" y2="63.4156"/></g><!--class Linked Data--><g id="elem_Linked Data"><rect codeLine="10" fill="#F1F1F1" height="72.5625" id="Linked Data" rx="2.5" ry="2.5" style="stroke:#181818;stroke-width:0.5;" width="119" x="57" y="156.57"/><ellipse cx="72" cy="176.7028" fill="#ADD1B2" rx="11" ry="11" style="stroke:#181818;stroke-width:1.0;"/><path d="M74.9688,182.3434 Q74.3906,182.6403 73.75,182.7809 Q73.1094,182.9372 72.4063,182.9372 Q69.9063,182.9372 68.5781,181.2966 Q67.2656,179.6403 67.2656,176.5153 Q67.2656,173.3903 68.5781,171.7341 Q69.9063,170.0778 72.4063,170.0778 Q73.1094,170.0778 73.75,170.2341 Q74.4063,170.3903 74.9688,170.6872 L74.9688,173.4059 Q74.3438,172.8278 73.75,172.5622 Q73.1563,172.2809 72.5313,172.2809 Q71.1875,172.2809 70.5,173.3591 Q69.8125,174.4216 69.8125,176.5153 Q69.8125,178.6091 70.5,179.6872 Q71.1875,180.7497 72.5313,180.7497 Q73.1563,180.7497 73.75,180.4841 Q74.3438,180.2028 74.9688,179.6247 L74.9688,182.3434 Z " fill="#000000"/><text fill="#000000" font-family="sans-serif" font-size="12" font-style="italic" lengthAdjust="spacing" textLength="91" x="84" y="172.7087">&#171;taxStandard&#187;</text><text fill="#000000" font-family="sans-serif" font-size="14" lengthAdjust="spacing" textLength="81" x="89" y="188.5339">Linked Data</text><line style="stroke:#181818;stroke-width:0.5;" x1="58" x2="175" y1="196.8356" y2="196.8356"/><a href="https://www.w3.org/TR/ldp/" target="_top" title="https://www.w3.org/TR/ldp/" xlink:actuate="onRequest" xlink:href="https://www.w3.org/TR/ldp/" xlink:show="new" xlink:title="https://www.w3.org/TR/ldp/" xlink:type="simple"><text fill="#0000FF" font-family="sans-serif" font-size="14" lengthAdjust="spacing" text-decoration="underline" textLength="71" x="63" y="213.8307">LD at W3C</text></a><line style="stroke:#181818;stroke-width:0.5;" x1="58" x2="175" y1="221.1325" y2="221.1325"/></g><!--class Schema org--><g id="elem_Schema org"><rect codeLine="14" fill="#F1F1F1" height="72.5625" id="Schema org" rx="2.5" ry="2.5" style="stroke:#181818;stroke-width:0.5;" width="119" x="125" y="7"/><ellipse cx="140" cy="27.1328" fill="#ADD1B2" rx="11" ry="11" style="stroke:#181818;stroke-width:1.0;"/><path d="M142.9688,32.7734 Q142.3906,33.0703 141.75,33.2109 Q141.1094,33.3672 140.4063,33.3672 Q137.9063,33.3672 136.5781,31.7266 Q135.2656,30.0703 135.2656,26.9453 Q135.2656,23.8203 136.5781,22.1641 Q137.9063,20.5078 140.4063,20.5078 Q141.1094,20.5078 141.75,20.6641 Q142.4063,20.8203 142.9688,21.1172 L142.9688,23.8359 Q142.3438,23.2578 141.75,22.9922 Q141.1563,22.7109 140.5313,22.7109 Q139.1875,22.7109 138.5,23.7891 Q137.8125,24.8516 137.8125,26.9453 Q137.8125,29.0391 138.5,30.1172 Q139.1875,31.1797 140.5313,31.1797 Q141.1563,31.1797 141.75,30.9141 Q142.3438,30.6328 142.9688,30.0547 L142.9688,32.7734 Z " fill="#000000"/><text fill="#000000" font-family="sans-serif" font-size="12" font-style="italic" lengthAdjust="spacing" textLength="91" x="152" y="23.1387">&#171;taxStandard&#187;</text><text fill="#000000" font-family="sans-serif" font-size="14" lengthAdjust="spacing" textLength="83" x="156" y="38.9639">Schema org</text><line style="stroke:#181818;stroke-width:0.5;" x1="126" x2="243" y1="47.2656" y2="47.2656"/><a href="https://schema.org/docs/schemas.html" target="_top" title="https://schema.org/docs/schemas.html" xlink:actuate="onRequest" xlink:href="https://schema.org/docs/schemas.html" xlink:show="new" xlink:title="https://schema.org/docs/schemas.html" xlink:type="simple"><text fill="#0000FF" font-family="sans-serif" font-size="14" lengthAdjust="spacing" text-decoration="underline" textLength="63" x="131" y="64.2607">schemas</text></a><line style="stroke:#181818;stroke-width:0.5;" x1="126" x2="243" y1="71.5625" y2="71.5625"/></g><!--link W3C to Linked Data--><g id="link_W3C_Linked Data"><path codeLine="13" d="M56.11,71.56 C61.07,87.87 68.16,108.81 76.5,126.57 C81.19,136.55 83.9157,141.8076 89.6857,151.2676 " fill="none" id="W3C-to-Linked Data" style="stroke:#181818;stroke-width:1.0;stroke-dasharray:7.0,7.0;"/><polygon fill="#181818" points="92.81,156.39,91.5384,146.6236,90.2064,152.1214,84.7086,150.7893,92.81,156.39" style="stroke:#181818;stroke-width:1.0;"/><text fill="#000000" font-family="sans-serif" font-size="13" lengthAdjust="spacing" textLength="63" x="77.5" y="122.6369">maintains</text></g><!--link Schema org to Linked Data--><g id="link_Schema org_Linked Data"><path codeLine="17" d="M168.04,80.01 C157.39,103.12 146.0802,127.6503 135.4402,150.7503 " fill="none" id="Schema org-to-Linked Data" style="stroke:#181818;stroke-width:1.0;stroke-dasharray:7.0,7.0;"/><polygon fill="#181818" points="132.93,156.2,140.3284,149.6989,135.0218,151.6586,133.0621,146.352,132.93,156.2" style="stroke:#181818;stroke-width:1.0;"/><text fill="#000000" font-family="sans-serif" font-size="13" lengthAdjust="spacing" textLength="30" x="153.5" y="122.6369">uses</text></g><!--SRC=[RP11QyCm38Nl_XLYbsumuZPDEXfABYqx5GPhOR3IWnThYLbY1ribxSR- -rmlXsoj3WQXPxtlYO-sQ1kbJMtA4oWD6ey49MgqWfJHK5YKg4c9sZ6sj2W8PGRnE4xuEELn0fCqIvCidhErS0IDaUfTNP4yP9CvOu_6Gg4eh7OWj0H35LgGfZWqtYOCxg6jKJW4XmXizse8hO7IcaCBjNgpmfxsjnLHwpBEkwwBFeCYChRaGULucYQJMJBZvpG-p2347HjnLjJ2ERXvcIvlOB4WSNooPPupyDMFraf_e8IL8D5BDkHnXPLv_XM4vzhjXXZTD21idtajMmxh5GW2xx7VXm_VuVqrZQBydqS6ZL3-04gx8SUcgB0HuFTUOC0r3XVqWSFVrFMzYofgQkYRlpn3Xmki30uEtGy0]--></g></svg>